<svg width="32" height="32" viewBox="0 0 32 32" fill="none" xmlns="http://www.w3.org/2000/svg">
<path d="M16 0C24.8366 0 32 7.16344 32 16C32 24.8366 24.8366 32 16 32C7.16344 32 0 24.8366 0 16C0 7.16344 7.16344 0 16 0ZM22.4941 9.14453C21.8923 9.15513 20.9687 9.47608 16.5254 11.3242C14.9691 11.9715 11.8587 13.3116 7.19434 15.3438C6.4371 15.6449 6.04008 15.9395 6.00391 16.2275C5.93456 16.7807 6.73139 16.9526 7.7334 17.2783C8.55033 17.5439 9.64942 17.8548 10.2207 17.8672C10.7387 17.8783 11.3168 17.6648 11.9551 17.2266C16.3094 14.2873 18.5594 12.8002 18.7041 12.7656C18.8037 12.743 18.9426 12.7147 19.0361 12.7979C19.129 12.8808 19.1202 13.0372 19.1104 13.0801C19.0311 13.4179 14.9368 17.142 14.7012 17.3867C13.801 18.3216 12.7775 18.8938 14.3564 19.9346C15.7234 20.8353 16.5195 21.4109 17.9277 22.334C18.8274 22.9238 19.533 23.6225 20.4619 23.5371C20.8894 23.4978 21.3314 23.0962 21.5557 21.8975C22.0857 19.0638 23.1274 12.9235 23.3682 10.3936C23.3892 10.1719 23.3631 9.88815 23.3418 9.76367C23.3205 9.63926 23.2757 9.46228 23.1143 9.33105C22.9227 9.17559 22.6266 9.14224 22.4941 9.14453Z" fill="white"/>
</svg>
