<svg width="44" height="44" viewBox="0 0 44 44" fill="none" xmlns="http://www.w3.org/2000/svg">
<path d="M22 1.83301C33.1377 1.83301 42.167 10.8623 42.167 22C42.167 33.1377 33.1377 42.167 22 42.167C10.8623 42.167 1.83301 33.1377 1.83301 22C1.83301 10.8623 10.8623 1.83301 22 1.83301Z" stroke="#28251E" stroke-width="1.83333"/>
<path fill-rule="evenodd" clip-rule="evenodd" d="M11.7497 21.2083C17.3615 18.7634 21.1035 17.1515 22.9759 16.3727C28.3219 14.1491 29.4327 13.7629 30.1567 13.7501C30.316 13.7473 30.672 13.7868 30.9027 13.9739C31.0974 14.132 31.151 14.3454 31.1767 14.4953C31.2023 14.6451 31.2342 14.9864 31.2088 15.2531C30.9191 18.297 29.6656 25.6837 29.0279 29.0929C28.758 30.5355 28.2267 31.0192 27.7123 31.0665C26.5944 31.1694 25.7456 30.3277 24.6628 29.618C22.9686 28.5074 22.0114 27.816 20.3668 26.7323C18.4663 25.4798 19.6983 24.7914 20.7815 23.6664C21.0649 23.372 25.9904 18.8919 26.0857 18.4855C26.0976 18.4347 26.1087 18.2452 25.9961 18.1452C25.8836 18.0452 25.7175 18.0794 25.5976 18.1066C25.4276 18.1451 22.721 19.9341 17.4778 23.4735C16.7095 24.001 16.0136 24.258 15.3902 24.2446C14.7028 24.2297 13.3807 23.8559 12.3978 23.5365C11.1923 23.1446 10.2341 22.9374 10.3176 22.2719C10.361 21.9252 10.8384 21.5707 11.7497 21.2083Z" fill="#28251E"/>
</svg>
