<svg width="48" height="49" viewBox="0 0 48 49" fill="none" xmlns="http://www.w3.org/2000/svg">
<path d="M24 2.7666C36.1503 2.7666 46 12.6163 46 24.7666C46 36.9169 36.1503 46.7666 24 46.7666C11.8497 46.7666 2 36.9169 2 24.7666C2 12.6163 11.8497 2.7666 24 2.7666Z" stroke="#CCC8C0" stroke-width="2"/>
<path fill-rule="evenodd" clip-rule="evenodd" d="M12.4428 23.903C18.5648 21.2357 22.647 19.4773 24.6896 18.6277C30.5216 16.202 31.7334 15.7807 32.5233 15.7667C32.697 15.7637 33.0854 15.8067 33.337 16.0109C33.5495 16.1833 33.6079 16.4162 33.6359 16.5796C33.6639 16.7431 33.6987 17.1154 33.671 17.4063C33.355 20.7269 31.9875 28.7852 31.2918 32.5043C30.9974 34.078 30.4178 34.6057 29.8566 34.6573C28.6371 34.7695 27.7111 33.8514 26.5299 33.0771C24.6816 31.8656 23.6375 31.1113 21.8434 29.9291C19.77 28.5628 21.1141 27.8118 22.2957 26.5845C22.6049 26.2634 27.9781 21.376 28.0821 20.9326C28.0951 20.8772 28.1072 20.6705 27.9844 20.5614C27.8616 20.4522 27.6804 20.4895 27.5496 20.5192C27.3643 20.5613 24.4116 22.5129 18.6917 26.374C17.8535 26.9495 17.0944 27.2299 16.4143 27.2152C15.6645 27.199 14.2221 26.7913 13.1499 26.4427C11.8348 26.0152 10.7895 25.7892 10.8805 25.0632C10.9279 24.685 11.4487 24.2983 12.4428 23.903Z" fill="#CCC8C0"/>
</svg>
