<svg width="32" height="32" viewBox="0 0 32 32" fill="none" xmlns="http://www.w3.org/2000/svg">
<path d="M16.6396 0C23.8804 0 27.5016 -0.000396273 29.751 2.24902C32.0004 4.49844 32 8.11958 32 15.3604V16.6396C32 23.8804 32.0004 27.5016 29.751 29.751C27.5016 32.0004 23.8804 32 16.6396 32H15.3604C8.11958 32 4.49844 32.0004 2.24902 29.751C-0.000396273 27.5016 0 23.8804 0 16.6396V15.3604C0 8.11958 -0.000396373 4.49844 2.24902 2.24902C4.49844 -0.000396373 8.11958 0 15.3604 0H16.6396ZM5.40039 9.7334C5.57372 18.0533 9.7332 23.0536 17.0264 23.0537H17.4404V18.2939C20.1202 18.5608 22.1467 20.5205 22.96 23.0537H26.7471C25.7071 19.2672 22.9733 17.1741 21.2666 16.374C22.9733 15.3874 25.373 12.9867 25.9463 9.7334H22.5068C21.7602 12.3732 19.547 14.7731 17.4404 15V9.7334H14V18.96C11.8667 18.4266 9.17371 15.84 9.05371 9.7334H5.40039Z" fill="white"/>
</svg>
