<svg width="32" height="33" viewBox="0 0 32 33" fill="none" xmlns="http://www.w3.org/2000/svg">
<g clip-path="url(#clip0_57_1844)">
<path d="M0 32.7188L2.2617 24.5058C0.863419 22.0952 0.129895 19.3651 0.137536 16.5743C0.137536 7.82902 7.28939 0.71875 16.0688 0.71875C20.3324 0.71875 24.3362 2.36894 27.339 5.36514C30.3495 8.36134 32.0076 12.3461 32 16.5819C32 25.3271 24.8481 32.4374 16.0611 32.4374H16.0535C13.3868 32.4374 10.766 31.7682 8.43552 30.5058L0 32.7188ZM8.84049 27.6389L9.32187 27.9279C11.3543 29.1294 13.6848 29.7606 16.0611 29.7682H16.0688C23.3658 29.7682 29.3104 23.8594 29.3104 16.5895C29.3104 13.0686 27.935 9.76058 25.4365 7.26628C22.9379 4.77198 19.6065 3.40316 16.0688 3.40316C8.77172 3.39556 2.82712 9.3043 2.82712 16.5743C2.82712 19.061 3.52244 21.4868 4.85195 23.5857L5.16523 24.0876L3.82808 28.9469L8.84049 27.6389Z" fill="#FFFEFA"/>
<path fill-rule="evenodd" clip-rule="evenodd" d="M12.0883 9.94397C11.7903 9.28237 11.4771 9.26716 11.1943 9.25956C10.9651 9.25195 10.6977 9.25195 10.4303 9.25195C10.1628 9.25195 9.73494 9.35081 9.36818 9.74625C9.00142 10.1417 7.97754 11.0999 7.97754 13.0542C7.97754 15.001 9.40638 16.8869 9.60504 17.1531C9.80371 17.4193 12.3634 21.5485 16.4054 23.1379C19.7674 24.4611 20.4551 24.1949 21.181 24.1265C21.9069 24.058 23.5344 23.1683 23.8706 22.2405C24.1991 21.3128 24.1991 20.5219 24.0998 20.3546C24.0004 20.1873 23.733 20.0885 23.3357 19.8907C22.9384 19.693 20.9823 18.7348 20.6155 18.598C20.2488 18.4687 19.9813 18.4002 19.7216 18.7957C19.4541 19.1911 18.69 20.0809 18.4608 20.347C18.2316 20.6132 17.9947 20.6436 17.5974 20.4459C17.2001 20.2482 15.9164 19.8299 14.3959 18.4763C13.2115 17.4269 12.4092 16.1265 12.18 15.731C11.9508 15.3356 12.1571 15.1227 12.3558 14.925C12.5315 14.7501 12.7531 14.4611 12.9517 14.2329C13.1504 14.0048 13.2192 13.8375 13.3491 13.5713C13.479 13.3052 13.4178 13.077 13.3185 12.8793C13.2192 12.6892 12.4398 10.7272 12.0883 9.94397Z" fill="#FFFEFA"/>
</g>
<defs>
<clipPath id="clip0_57_1844">
<rect width="32" height="32" fill="white" transform="translate(0 0.71875)"/>
</clipPath>
</defs>
</svg>
