<svg width="112" height="104" viewBox="0 0 112 104" fill="none" xmlns="http://www.w3.org/2000/svg">
<path d="M110 15.5101V37.0532H98V20.1911L9.78135 36.9242H9.71296C9.31021 37.0154 8.89227 37.0534 8.46673 37.0534C7.00012 37.0534 5.64751 36.567 4.56085 35.7311C3.00306 34.5533 2 32.6915 2 30.5942V16H4.15811V30.5942C4.15811 32.9651 6.08825 34.9028 8.46673 34.9028C8.74029 34.9028 9.00625 34.88 9.26462 34.8269H9.28741L9.33301 34.8117L110 15.5101Z" fill="#FAF7F9"/>
<path d="M47.9867 41.5H2V62.5H14V54.2878H47.9867C51.5506 54.2878 54.4458 51.385 54.4458 47.8211C54.4458 44.2572 51.5506 41.5 47.9867 41.5ZM47.9867 52H14V43.75H47.9867C50.3576 43.75 52.2953 45.4502 52.2953 47.8211C52.2953 50.192 50.3576 52 47.9867 52Z" fill="#FAF7F9"/>
<path d="M110 69.0355V67H68.0995C62.1571 67 57.5 71.5576 57.5 77.5H70.25V69.25L110 69.0355Z" fill="#FAF7F9"/>
<path d="M57.5 77.5C57.5 83.4348 62.1571 88 68.0995 88H110V85.75H70.25V77.5H57.5Z" fill="#E55CA1"/>
<path d="M76.3333 4C73.081 4 72.0019 6.15051 72.0019 8.30102C72.0019 10.4515 68.7192 11.9234 68.742 16.6044C68.7724 23.0483 76.3105 25.9891 76.3105 27.3569L77.2148 35.1459C77.344 36.2325 78.2635 37.0532 79.3577 37.0532H80.8623C82.3289 37.0532 83.37 35.6094 82.9065 34.2188L80.6192 27.3645C79.8593 25.0773 82.7697 23.0559 82.7697 18.7473C82.7697 15.4114 79.5401 13.3596 79.5401 11.2091C79.5401 9.05862 83.8487 8.30862 83.8487 8.30862C81.6982 6.15811 79.5401 4 76.3257 4.0076L76.3333 4Z" fill="#E55CA1"/>
<path d="M54.5 67V88H42.5029V74.5551L11.0124 87.4748L10.9744 87.49C10.7768 87.5736 10.5716 87.6496 10.3589 87.718C9.75855 87.9004 9.12784 87.9992 8.46673 87.9992C4.90281 87.9992 2 85.104 2 81.5401V67H4.25V81.5401C4.25 83.9109 6.08825 85.8487 8.46673 85.8487C9.04425 85.8487 9.59897 85.7347 10.1005 85.5219L10.1385 85.5067L54.5 67Z" fill="#FAF7F9"/>
<path d="M110 41.5V43.75H90.5V62.5H78.5V43.75H57.5V41.5H110Z" fill="#FAF7F9"/>
</svg>
