<svg width="33" height="32" viewBox="0 0 33 32" fill="none" xmlns="http://www.w3.org/2000/svg">
<path d="M32.9996 21.2384L19.338 21.2383C18.9698 21.2383 18.6714 21.5368 18.6714 21.905L18.6714 25.6827C18.6714 26.0509 18.9699 26.3494 19.338 26.3494L32.9996 26.3494" stroke="#FFFAFD" stroke-width="1.33333" stroke-linejoin="round"/>
<path d="M1.6499 21.0156V26.1269L16.3259 21.4603V27.0158" stroke="#FFFAFD" stroke-width="1.33333"/>
<path d="M1.6499 21.0156V26.1268L8.93192 23.8147" stroke="#FC51B8" stroke-width="1.33333"/>
<path d="M32.9998 14.5007L25.552 14.5007M18 14.5007H25.552M25.552 19.834V14.5007" stroke="#FFFAFD" stroke-width="1.33333"/>
<path d="M1.6499 17.3933L15.9896 17.3952C16.175 17.3952 16.3253 17.245 16.3253 17.0596V14.8382C16.3253 14.6529 16.1751 14.5026 15.9897 14.5026L1.6499 14.5007L1.6499 19.834" stroke="#FFFAFD" stroke-width="1.33333"/>
<path d="M1.6499 5.05078V11.8286L32.3277 5.75922V12.537" stroke="#FFFAFD" stroke-width="1.33333"/>
<path d="M25.0052 2.00142C24.6695 1.989 24.485 2.05728 24.2437 2.24328C23.9162 2.49579 23.7293 2.91073 23.7293 3.40212C23.7293 3.80482 23.6067 4.00153 23.4488 4.18647C22.9997 4.71241 22.9425 5.21436 23.0413 5.99882C23.1821 6.74402 23.7209 7.41646 24.2988 8.0611C24.6686 8.47358 25.1006 8.68264 25.1006 9.10572L25.1006 9.13483C25.1006 9.85083 25.1006 10.3742 25.2362 11.2659C25.3038 11.7105 25.4899 11.8605 25.6468 11.9451C25.8542 12.011 26.1195 12.0171 26.3279 11.9658C26.4863 11.9267 26.5712 11.8612 26.6152 11.6339C26.702 11.1846 26.3792 9.92814 26.1743 9.10572C26.0998 8.80679 26.2278 8.52592 26.2812 8.33661C26.5217 7.48374 26.6186 6.8808 26.6186 6.33718C26.6186 5.86486 26.5312 5.38619 26.4346 5.14595C26.2587 4.70825 25.9679 4.46501 25.8458 4.18647C25.767 4.00656 25.8548 3.88066 25.9318 3.81919C26.0935 3.6902 26.2733 3.60646 26.534 3.54508C26.7139 3.50271 27.1172 3.45801 26.9672 3.32962C26.1275 2.61076 25.9872 2.34424 25.7362 2.19677C25.4756 2.04367 25.2652 2.01103 25.0052 2.00142Z" fill="#FC51B8"/>
</svg>
