<svg width="68" height="68" viewBox="0 0 68 68" fill="none" xmlns="http://www.w3.org/2000/svg">
<path d="M36.9639 43.8131L37.1047 44.8031L36.9639 43.8131ZM2.9577 40.7122C2.79877 40.1833 2.24116 39.8834 1.71223 40.0423C1.18331 40.2012 0.883371 40.7588 1.0423 41.2878L2 41L2.9577 40.7122ZM23.9666 31.7412C23.8237 31.2077 23.2753 30.8911 22.7419 31.0341C22.2084 31.177 21.8918 31.7254 22.0348 32.2588L23.0007 32L23.9666 31.7412ZM11.0007 59C11.0007 59.5523 11.4484 60 12.0007 60C12.553 60 13.0007 59.5523 13.0007 59H12.0007H11.0007ZM68.0007 41.0005V40.0005C58.9129 40.0005 43.2967 41.9023 36.8231 42.8231L36.9639 43.8131L37.1047 44.8031C43.5812 43.882 59.0703 42.0005 68.0007 42.0005V41.0005ZM23.0007 32L22.0348 32.2588C22.8112 35.1564 23.9923 36.901 25.4891 37.9407C26.9549 38.959 28.5923 39.1984 29.9821 39.3793C31.4475 39.57 32.6043 39.6989 33.5928 40.2781C34.5077 40.8142 35.3952 41.8223 35.998 44.0719L36.9639 43.8131L37.9299 43.5543C37.2311 40.9463 36.0908 39.4237 34.6039 38.5525C33.1908 37.7245 31.572 37.5694 30.2403 37.396C28.8331 37.2128 27.6519 37.008 26.6301 36.2982C25.6393 35.6099 24.6637 34.3427 23.9666 31.7412L23.0007 32ZM36.9639 43.8131L36.8231 42.8231C30.9011 43.6654 28.0793 43.992 22.1946 44.6516L22.3059 45.6454L22.4173 46.6391C28.3111 45.9786 31.1548 45.6494 37.1047 44.8031L36.9639 43.8131ZM22.3059 45.6454L22.1946 44.6516C19.1853 44.9888 14.7976 45.6611 10.8577 45.3535C6.87307 45.0425 3.87918 43.779 2.9577 40.7122L2 41L1.0423 41.2878C2.34857 45.6351 6.56301 47.0243 10.7021 47.3474C14.886 47.6741 19.5373 46.9619 22.4173 46.6391L22.3059 45.6454ZM22.3059 45.6454L21.337 45.3982C20.7336 47.7639 19.8544 49.0704 18.9446 49.8893C18.0128 50.7279 16.975 51.1313 15.8249 51.5843C14.7265 52.0169 13.4363 52.5219 12.4837 53.6586C11.5082 54.8226 11.0007 56.4908 11.0007 59H12.0007H13.0007C13.0007 56.7368 13.4607 55.6065 14.0166 54.9432C14.5955 54.2524 15.4006 53.901 16.5578 53.4452C17.6635 53.0097 19.0416 52.4927 20.2825 51.3759C21.5454 50.2393 22.5957 48.5553 23.2749 45.8925L22.3059 45.6454Z" fill="#28251E"/>
<path d="M50.0262 12.0062C48.3474 11.9516 47.4248 12.252 46.2185 13.0704C44.581 14.1815 43.6467 16.0072 43.6467 18.1693C43.6467 19.9412 43.0333 20.8067 42.2438 21.6205C39.9986 23.9346 39.7123 26.1432 40.2066 29.5948C40.9107 32.8737 43.6046 35.8324 46.4941 38.6689C48.3429 40.4837 50.5032 41.4036 50.5032 43.2652L50.5032 43.3932C50.5031 46.5436 50.503 48.8466 51.1809 52.77C51.5189 54.726 52.4496 55.386 53.2338 55.7586C54.2712 56.0485 55.5976 56.0754 56.6395 55.8495C57.4316 55.6777 57.8562 55.3891 58.0759 54.3891C58.5101 52.4123 56.896 46.8838 55.8714 43.2652C55.499 41.9499 56.1389 40.7141 56.4058 39.8811C57.6082 36.1284 58.0929 33.4755 58.0929 31.0836C58.0929 29.0054 57.656 26.8992 57.1731 25.8422C56.2933 23.9163 54.8393 22.8461 54.229 21.6205C53.8348 20.8289 54.2739 20.2749 54.6591 20.0044C55.4674 19.4369 56.3667 19.0684 57.6699 18.7984C58.5695 18.6119 60.5861 18.4152 59.8362 17.8503C55.6376 14.6874 54.9362 13.5146 53.681 12.8658C52.3779 12.1921 51.326 12.0485 50.0262 12.0062Z" fill="#E55CA1"/>
</svg>
