<svg width="64" height="64" viewBox="0 0 64 64" fill="none" xmlns="http://www.w3.org/2000/svg">
<path d="M34.4998 38.5L34.6406 39.49L34.4998 38.5ZM1.66776 37.2556C1.25665 36.8868 0.624419 36.9211 0.255624 37.3322C-0.11317 37.7433 -0.0788684 38.3756 0.332239 38.7444L1 38L1.66776 37.2556ZM17.5833 30.1879C17.1348 29.8656 16.51 29.9679 16.1877 30.4164C15.8654 30.8649 15.9677 31.4898 16.4162 31.8121L16.9997 31L17.5833 30.1879ZM9.60207 52.0826C9.0954 52.3024 8.86281 52.8912 9.08258 53.3979C9.30235 53.9046 9.89125 54.1372 10.3979 53.9174L10 53L9.60207 52.0826ZM64 36V35C56.4879 35 40.8511 36.5866 34.359 37.51L34.4998 38.5L34.6406 39.49C41.0985 38.5715 56.6273 37 64 37V36ZM16.9997 31L16.4162 31.8121C18.5569 33.3505 20.3512 34.1282 21.9634 34.534C23.5512 34.9336 24.9422 34.9616 26.1289 35.0415C27.3293 35.1223 28.3838 35.2549 29.5457 35.786C30.7141 36.32 32.0654 37.293 33.757 39.1696L34.4998 38.5L35.2426 37.8304C33.4297 35.8193 31.866 34.6475 30.3771 33.967C28.8818 33.2835 27.5368 33.1318 26.2632 33.046C24.9759 32.9594 23.8185 32.9385 22.4516 32.5945C21.1091 32.2565 19.5422 31.5956 17.5833 30.1879L16.9997 31ZM34.4998 38.5L34.359 37.51C28.4604 38.3489 22.9517 38.9512 16.7921 40.2585L16.9997 41.2367L17.2074 42.2149C23.2787 40.9263 28.6672 40.3396 34.6406 39.49L34.4998 38.5ZM16.9997 41.2367L16.7921 40.2585C10.8514 41.5194 5.80072 40.9632 1.66776 37.2556L1 38L0.332239 38.7444C5.11714 43.0368 10.9171 43.55 17.2074 42.2149L16.9997 41.2367ZM16.9997 41.2367L16.018 41.4267C16.4932 43.8819 16.4495 45.7961 15.603 47.428C14.7543 49.0641 12.9968 50.6101 9.60207 52.0826L10 53L10.3979 53.9174C13.9943 52.3575 16.2289 50.5648 17.3783 48.3489C18.5301 46.1286 18.4907 43.6773 17.9815 41.0467L16.9997 41.2367Z" fill="#FAF7F9"/>
<path opacity="0.7" d="M10 57C12.2091 57 14 55.2091 14 53C14 50.7909 12.2091 49 10 49C7.79086 49 6 50.7909 6 53C6 55.2091 7.79086 57 10 57Z" fill="#7588FF"/>
<path opacity="0.7" d="M21 31C21 33.2091 19.2091 35 17 35C14.7909 35 13 33.2091 13 31C13 28.7909 14.7909 27 17 27C19.2091 27 21 28.7909 21 31Z" fill="#7588FF"/>
<path d="M46.0262 6.00624C44.3474 5.95159 43.4248 6.25203 42.2185 7.07045C40.581 8.18148 39.6467 10.0072 39.6467 12.1693C39.6467 13.9412 39.0333 14.8067 38.2438 15.6205C35.9986 17.9346 35.7123 20.1432 36.2066 23.5948C36.9107 26.8737 39.6046 29.8324 42.4941 32.6689C44.3429 34.4837 46.5032 35.4036 46.5032 37.2652L46.5032 37.3932C46.5031 40.5436 46.503 42.8466 47.1809 46.77C47.5189 48.726 48.4496 49.386 49.2338 49.7586C50.2712 50.0485 51.5976 50.0754 52.6395 49.8495C53.4316 49.6777 53.8562 49.3891 54.0759 48.3891C54.5101 46.4123 52.896 40.8838 51.8714 37.2652C51.499 35.9499 52.1389 34.7141 52.4058 33.8811C53.6082 30.1284 54.0929 27.4755 54.0929 25.0836C54.0929 23.0054 53.656 20.8992 53.1731 19.8422C52.2933 17.9163 50.8393 16.8461 50.229 15.6205C49.8348 14.8289 50.2739 14.2749 50.6591 14.0044C51.4674 13.4369 52.3667 13.0684 53.6699 12.7984C54.5695 12.6119 56.5861 12.4152 55.8362 11.8503C51.6376 8.68735 50.9362 7.51465 49.681 6.86578C48.3779 6.19213 47.326 6.04855 46.0262 6.00624Z" fill="#E55CA1"/>
</svg>
