<svg width="24" height="48" viewBox="0 0 24 48" fill="none" xmlns="http://www.w3.org/2000/svg">
<path d="M12.0262 2.00624C10.3474 1.95159 9.42479 2.25203 8.21854 3.07045C6.58102 4.18148 5.64667 6.0072 5.64667 8.16934C5.64667 9.94122 5.03333 10.8067 4.24384 11.6205C1.99865 13.9346 1.71226 16.1432 2.2066 19.5948C2.91072 22.8737 5.60456 25.8324 8.49406 28.6689C10.3429 30.4837 12.5032 31.4036 12.5032 33.2652L12.5032 33.3932C12.5031 36.5436 12.503 38.8466 13.1809 42.77C13.5189 44.726 14.4496 45.386 15.2338 45.7586C16.2712 46.0485 17.5976 46.0754 18.6395 45.8495C19.4316 45.6777 19.8562 45.3891 20.0759 44.3891C20.5101 42.4123 18.896 36.8838 17.8714 33.2652C17.499 31.9499 18.1389 30.7141 18.4058 29.8811C19.6082 26.1284 20.0929 23.4755 20.0929 21.0836C20.0929 19.0054 19.656 16.8992 19.1731 15.8422C18.2933 13.9163 16.8393 12.8461 16.229 11.6205C15.8348 10.8289 16.2739 10.2749 16.6591 10.0044C17.4674 9.43688 18.3667 9.06845 19.6699 8.79837C20.5695 8.61194 22.5861 8.41523 21.8362 7.85031C17.6376 4.68735 16.9362 3.51465 15.681 2.86578C14.3779 2.19213 13.326 2.04855 12.0262 2.00624Z" fill="#EB42A4"/>
</svg>
