<svg width="170" height="170" viewBox="0 0 170 170" fill="none" xmlns="http://www.w3.org/2000/svg">
<path d="M29 1C23.4621 1 18.0486 2.64217 13.444 5.71885C8.83946 8.79553 5.25063 13.1685 3.13137 18.2849C1.01212 23.4012 0.457626 29.0311 1.53801 34.4625C2.6184 39.894 5.28514 44.8831 9.20101 48.799C13.1169 52.7149 18.106 55.3816 23.5375 56.462C28.9689 57.5424 34.5988 56.9879 39.7151 54.8686C44.8315 52.7494 49.2045 49.1605 52.2812 44.556C55.3578 39.9514 57 34.5379 57 29L29 29L29 1Z" stroke="#7588FF" stroke-width="1.55556"/>
<path d="M113 29C113 13.536 100.464 1 85 1C69.536 1 57 13.536 57 29C57 44.464 69.536 57 85 57H113V29ZM85 50.7773C72.9725 50.7773 63.2227 41.0275 63.2227 29C63.2227 16.9725 72.9725 7.22266 85 7.22266C97.0275 7.22266 106.777 16.9725 106.777 29C106.777 41.0275 97.0275 50.7773 85 50.7773Z" fill="#7588FF"/>
<path d="M141 29C148.426 29 155.548 26.05 160.799 20.799C166.05 15.548 169 8.42606 169 1L113 1.00001C113 8.42607 115.95 15.548 121.201 20.799C126.452 26.05 133.574 29 141 29ZM141 29L113 29C113 36.4261 115.95 43.548 121.201 48.799C126.452 54.05 133.574 57 141 57C148.426 57 155.548 54.05 160.799 48.799C166.05 43.548 169 36.4261 169 29L141 29Z" stroke="#7588FF" stroke-width="1.55556"/>
<path d="M57 57L57 113L29 113C13.536 113 0.999999 100.464 0.999999 85L0.999998 57L57 57ZM7.22266 85C7.22266 97.0275 16.9725 106.777 29 106.777C41.0275 106.777 50.7773 97.0275 50.7773 85C50.7773 72.9725 41.0275 63.2227 29 63.2227C16.9725 63.2227 7.22266 72.9725 7.22266 85Z" fill="#7588FF"/>
<path d="M99 57C106.732 57 113 63.268 113 71V99C113 106.732 106.732 113 99 113H71C63.268 113 57 106.732 57 99L57 71C57 63.268 63.268 57 71 57L99 57ZM66.9287 66.75V70.8174H82.707V103.5H87.3125V70.8174H103.091V66.75H66.9287Z" fill="#2E2C28"/>
<path d="M161.066 93.4756C166.149 98.6991 169 105.702 169 113H113C113 105.702 115.85 98.699 120.933 93.4756C124.238 101.293 131.979 106.777 141 106.777C150.021 106.777 157.761 101.293 161.066 93.4756ZM141 57C148.426 57 155.548 59.9502 160.799 65.2012C166.05 70.4522 169 77.5739 169 85L162.777 85C162.777 72.9725 153.028 63.2227 141 63.2227C128.972 63.2227 119.223 72.9725 119.223 85H113C113 77.5739 115.95 70.4522 121.201 65.2012C126.452 59.9502 133.574 57 141 57Z" fill="#7588FF"/>
<path d="M57 141C57 135.462 55.3578 130.049 52.2811 125.444C49.2045 120.839 44.8315 117.251 39.7151 115.131C34.5988 113.012 28.9689 112.458 23.5375 113.538C18.106 114.618 13.1169 117.285 9.201 121.201C5.28513 125.117 2.61839 130.106 1.53801 135.537C0.457626 140.969 1.01212 146.599 3.13138 151.715C5.25064 156.831 8.83948 161.204 13.4441 164.281C18.0486 167.358 23.4622 169 29 169L29 141H57Z" stroke="#7588FF" stroke-width="1.55556"/>
<path d="M85 162.777C72.9725 162.777 63.2227 153.028 63.2227 141C63.2227 128.972 72.9725 119.223 85 119.223C96.8395 119.223 106.472 128.67 106.771 140.438L106.777 141H113C113 135.462 111.358 130.049 108.281 125.444C105.205 120.84 100.831 117.251 95.7148 115.132C90.5985 113.013 84.9686 112.458 79.5371 113.538C74.1058 114.619 69.117 117.285 65.2012 121.201C61.2854 125.117 58.6185 130.106 57.5381 135.537C56.4577 140.969 57.0126 146.599 59.1318 151.715C61.2511 156.831 64.8398 161.205 69.4443 164.281C74.0489 167.358 79.4622 169 85 169V162.777Z" fill="#7588FF"/>
<path d="M141 112.223C156.894 112.223 169.778 125.107 169.778 141C169.778 156.894 156.894 169.778 141 169.778C125.107 169.778 112.223 156.894 112.223 141C112.223 125.107 125.107 112.223 141 112.223ZM141 113.778C125.966 113.778 113.778 125.966 113.778 141C113.778 156.035 125.966 168.223 141 168.223C156.035 168.223 168.223 156.035 168.223 141C168.223 125.966 156.035 113.778 141 113.778Z" fill="#7588FF"/>
</svg>
