<svg width="170" height="170" viewBox="0 0 170 170" fill="none" xmlns="http://www.w3.org/2000/svg">
<path d="M29 29C29 21.5739 26.05 14.452 20.799 9.20101C15.548 3.94999 8.42606 1 1 1L1.00001 57C8.42607 57 15.548 54.05 20.799 48.799C26.05 43.548 29 36.4261 29 29ZM29 29C29 36.4261 31.95 43.548 37.201 48.799C42.452 54.05 49.5739 57 57 57L57 1C49.5739 1 42.452 3.95 37.201 9.20102C31.95 14.452 29 21.5739 29 29Z" stroke="#FF66D6" stroke-width="1.55556"/>
<path d="M105.066 37.4756C110.149 42.6991 113 49.7018 113 57L57 57C57 49.702 59.8504 42.699 64.9326 37.4756C68.2383 45.2927 75.9788 50.7773 85 50.7773C94.0211 50.7773 101.761 45.2926 105.066 37.4756ZM85 1C92.4261 1 99.5478 3.95016 104.799 9.20117C110.05 14.4522 113 21.5739 113 29L106.777 29C106.777 16.9725 97.0275 7.22266 85 7.22266C72.9725 7.22266 63.2227 16.9725 63.2227 29H57C57 21.5739 59.9502 14.4522 65.2012 9.20117C70.4522 3.95015 77.5739 1 85 1Z" fill="#FF66D6"/>
<path d="M141 0.223145C156.894 0.223407 169.778 13.1071 169.778 29.0005C169.778 44.8936 156.894 57.7776 141 57.7778C125.107 57.7778 112.223 44.8938 112.223 29.0005C112.223 13.107 125.107 0.223145 141 0.223145ZM141 1.77783C125.966 1.77783 113.778 13.9661 113.778 29.0005C113.778 44.0347 125.966 56.2231 141 56.2231C156.035 56.2229 168.223 44.0345 168.223 29.0005C168.223 13.9662 156.035 1.77809 141 1.77783Z" fill="#FF66D6"/>
<path d="M57 85C57 69.536 44.464 57 29 57C13.536 57 1 69.536 1 85C1 100.464 13.536 113 29 113H57V85ZM29 106.777C16.9725 106.777 7.22266 97.0275 7.22266 85C7.22266 72.9725 16.9725 63.2227 29 63.2227C41.0275 63.2227 50.7773 72.9725 50.7773 85C50.7773 97.0275 41.0275 106.777 29 106.777Z" fill="#FF66D6"/>
<path d="M99 57C106.732 57 113 63.268 113 71V99C113 106.732 106.732 113 99 113H71C63.268 113 57 106.732 57 99L57 71C57 63.268 63.268 57 71 57L99 57ZM70.8203 66.75V103.5H75.4258V88.6533H89.6611C92.1761 88.6533 94.389 88.1957 96.2998 87.2812C98.227 86.3503 99.7135 85.0597 100.759 83.4102C101.82 81.7442 102.352 79.8408 102.352 77.7012C102.352 75.5616 101.82 73.6672 100.759 72.0176C99.7135 70.3517 98.2271 69.0611 96.2998 68.1465C94.389 67.2156 92.1761 66.75 89.6611 66.75H70.8203ZM89.5625 70.7676C91.1958 70.7676 92.6175 71.0543 93.8262 71.626C95.0509 72.1813 95.9903 72.9812 96.6436 74.0264C97.3131 75.0716 97.6474 76.2967 97.6475 77.7012C97.6475 79.1058 97.3132 80.3316 96.6436 81.377C95.9903 82.4221 95.0509 83.2301 93.8262 83.8018C92.6175 84.3571 91.1958 84.6348 89.5625 84.6348H75.4258V70.7676H89.5625Z" fill="#2E2C28"/>
<path d="M141 63.2227C128.972 63.2227 119.223 72.9725 119.223 85C119.223 97.0275 128.972 106.777 141 106.777C153.028 106.777 162.777 97.0275 162.777 85H169C169 90.5378 167.358 95.9511 164.281 100.556C161.205 105.16 156.831 108.749 151.715 110.868C146.599 112.987 140.969 113.542 135.537 112.462C130.106 111.381 125.117 108.715 121.201 104.799C117.285 100.883 114.619 95.8942 113.538 90.4629C112.458 85.0315 113.013 79.4015 115.132 74.2852C117.251 69.1688 120.84 64.7954 125.444 61.7188C130.049 58.6422 135.462 57 141 57V63.2227Z" fill="#FF66D6"/>
<path d="M57 113V112.222H57.7778V113H57ZM1 113H0.222222V112.222H1V113ZM1 144.111L0.222222 144.111V144.111H1ZM25.8887 169L25.8887 169.778L25.8887 169.778L25.8887 169ZM57 169H57.7778V169.778H57V169ZM57 113V113.778H1L1 113V112.222H57V113ZM1 113H1.77778L1.77778 144.111H1H0.222222L0.222222 113H1ZM1 144.111L1.77778 144.111C1.77789 157.427 12.5726 168.222 25.8887 168.222L25.8887 169L25.8887 169.778C11.7135 169.778 0.222344 158.286 0.222222 144.111L1 144.111ZM25.8887 169V168.222H57V169V169.778H25.8887V169ZM57 169H56.2222V113H57H57.7778V169H57Z" fill="#FF66D6"/>
<path d="M113 113L113 169L85 169C69.536 169 57 156.464 57 141L57 113L113 113ZM63.2227 141C63.2227 153.028 72.9725 162.777 85 162.777C97.0275 162.777 106.777 153.028 106.777 141C106.777 128.972 97.0275 119.223 85 119.223C72.9725 119.223 63.2227 128.972 63.2227 141Z" fill="#FF66D6"/>
<path d="M141 112.223C148.633 112.223 155.952 115.255 161.349 120.652C166.746 126.049 169.778 133.368 169.778 141V141.778H150.327C154.438 143.187 158.218 145.52 161.349 148.652C166.746 154.049 169.778 161.368 169.778 169V169.778H112.223V169C112.223 161.368 115.255 154.049 120.652 148.652C123.783 145.52 127.563 143.187 131.674 141.778H112.223V141C112.223 133.368 115.255 126.049 120.652 120.652C126.049 115.255 133.368 112.223 141 112.223ZM141 141.778C133.781 141.778 126.857 144.646 121.751 149.751C116.83 154.673 113.989 161.285 113.791 168.223H168.21C168.012 161.286 165.171 154.673 160.25 149.751C155.144 144.646 148.22 141.778 141 141.778ZM141 113.778C133.781 113.778 126.857 116.646 121.751 121.751C116.83 126.673 113.989 133.285 113.791 140.223H168.21C168.012 133.286 165.171 126.673 160.25 121.751C155.144 116.646 148.22 113.778 141 113.778Z" fill="#FF66D6"/>
</svg>
