<svg width="170" height="170" viewBox="0 0 170 170" fill="none" xmlns="http://www.w3.org/2000/svg">
<path d="M29.0005 57.7778C36.6327 57.7777 43.9524 54.7459 49.3491 49.3491C54.7459 43.9524 57.7777 36.6327 57.7778 29.0005V28.2231H38.3267C42.4383 26.8144 46.2177 24.4806 49.3491 21.3491C54.7459 15.9524 57.7777 8.63265 57.7778 1.00049V0.223145H0.222168L0.222168 1.00049C0.222298 8.63265 3.25509 15.9524 8.65186 21.3491C11.7833 24.4804 15.5628 26.8145 19.6743 28.2231H0.222168L0.222168 29.0005C0.222298 36.6327 3.25509 43.9524 8.65186 49.3491C14.0487 54.7457 21.3684 57.7778 29.0005 57.7778ZM29.0005 28.2231C21.7809 28.2231 14.8566 25.3544 9.75146 20.2495C4.82994 15.328 1.98865 8.71551 1.79053 1.77783H56.2104C56.0123 8.71552 53.171 15.328 48.2495 20.2495C43.1445 25.3546 36.2201 28.223 29.0005 28.2231ZM29.0005 56.2231C21.7809 56.2231 14.8566 53.3544 9.75146 48.2495C4.82994 43.328 1.98865 36.7155 1.79053 29.7778L56.2104 29.7778C56.0123 36.7155 53.171 43.328 48.2495 48.2495C43.1445 53.3546 36.2201 56.223 29.0005 56.2231Z" fill="#FFBF00"/>
<path d="M105.066 20.5244C110.149 15.3009 113 8.29821 113 1H57C57 8.29798 59.8504 15.301 64.9326 20.5244C68.2383 12.7073 75.9788 7.22266 85 7.22266C94.0211 7.22266 101.761 12.7074 105.066 20.5244ZM85 57C92.4261 57 99.5478 54.0498 104.799 48.7988C110.05 43.5478 113 36.4261 113 29H106.777C106.777 41.0275 97.0275 50.7773 85 50.7773C72.9725 50.7773 63.2227 41.0275 63.2227 29H57C57 36.4261 59.9502 43.5478 65.2012 48.7988C70.4522 54.0498 77.5739 57 85 57Z" fill="#FFBF00"/>
<path d="M141 1V1.77778C156.034 1.77778 168.222 13.9656 168.222 29L169 29H169.778C169.778 13.1065 156.894 0.222222 141 0.222222V1ZM169 29L168.222 29C168.222 44.0344 156.034 56.2222 141 56.2222V57V57.7778C156.894 57.7778 169.778 44.8935 169.778 29H169ZM141 57V56.2222C125.966 56.2222 113.778 44.0344 113.778 29H113H112.222C112.222 44.8935 125.106 57.7778 141 57.7778V57ZM113 29H113.778C113.778 13.9656 125.966 1.77778 141 1.77778V1V0.222222C125.106 0.222222 112.222 13.1065 112.222 29H113Z" fill="#FFBF00"/>
<path d="M1 57C8.29775 57 15.3001 59.8507 20.5234 64.9326C12.7067 68.2385 7.22266 75.9791 7.22266 85C7.22266 94.0208 12.7069 101.76 20.5234 105.066C15.3 110.149 8.29797 113 1 113L1 57ZM57 113C49.7018 113 42.6991 110.149 37.4756 105.066C45.2926 101.761 50.7773 94.0211 50.7773 85C50.7773 75.9788 45.2927 68.2383 37.4756 64.9326C42.699 59.8504 49.702 57 57 57L57 113Z" fill="#FFBF00"/>
<path d="M99 57C106.732 57 113 63.268 113 71V99C113 106.732 106.732 113 99 113H71C63.268 113 57 106.732 57 99V71C57 63.268 63.268 57 71 57H99ZM85.2363 66.1133C81.2183 66.1133 77.6732 66.913 74.6025 68.5137C71.5321 70.0979 69.1478 72.3358 67.4492 75.2266C65.7506 78.1012 64.9014 81.401 64.9014 85.125C64.9014 88.849 65.7506 92.1569 67.4492 95.0479C69.1478 97.9223 71.5321 100.16 74.6025 101.761C77.6732 103.345 81.2183 104.137 85.2363 104.137C88.7642 104.137 91.941 103.517 94.7666 102.275C97.5922 101.034 99.8703 99.3023 101.602 97.0811C103.333 94.8434 104.363 92.2706 104.689 89.3633H100.01C99.6341 91.5356 98.7849 93.4228 97.4619 95.0234C96.1553 96.6077 94.4478 97.8326 92.3408 98.6982C90.2339 99.5475 87.8407 99.9717 85.1621 99.9717C82.0264 99.9716 79.2825 99.3677 76.9307 98.1592C74.595 96.9342 72.7896 95.2025 71.5156 92.9648C70.2417 90.7272 69.6055 88.1139 69.6055 85.125C69.6055 82.1361 70.2417 79.5228 71.5156 77.2852C72.7896 75.0475 74.595 73.3239 76.9307 72.1152C79.2825 70.8904 82.0264 70.2784 85.1621 70.2783C87.8407 70.2783 90.2339 70.7106 92.3408 71.5762C94.4478 72.4418 96.1552 73.6757 97.4619 75.2764C98.7847 76.8606 99.6341 78.7309 100.01 80.8867H104.689C104.363 77.9794 103.333 75.4147 101.602 73.1934C99.8703 70.9558 97.5921 69.2159 94.7666 67.9746C91.941 66.7333 88.7642 66.1133 85.2363 66.1133Z" fill="#2E2C28"/>
<path d="M169 85C169 100.464 156.464 113 141 113C125.536 113 113 100.464 113 85C113 69.536 125.536 57 141 57H169V85ZM141 63.2227C128.972 63.2227 119.223 72.9725 119.223 85C119.223 97.0275 128.972 106.777 141 106.777C153.028 106.777 162.777 97.0275 162.777 85C162.777 72.9725 153.028 63.2227 141 63.2227Z" fill="#FFBF00"/>
<path d="M29 169C34.5379 169 39.9514 167.358 44.556 164.281C49.1605 161.204 52.7494 156.831 54.8686 151.715C56.9879 146.599 57.5424 140.969 56.462 135.537C55.3816 130.106 52.7149 125.117 48.799 121.201C44.8831 117.285 39.894 114.618 34.4625 113.538C29.0311 112.458 23.4012 113.012 18.2849 115.131C13.1685 117.251 8.79553 120.839 5.71885 125.444C2.64217 130.049 1 135.462 1 141L29 141L29 169Z" stroke="#FFBF00" stroke-width="1.55556"/>
<path d="M74.2852 166.869C79.4014 168.988 85.0316 169.542 90.4629 168.462C95.8942 167.381 100.883 164.715 104.799 160.799C108.715 156.883 111.382 151.894 112.462 146.463C113.542 141.031 112.987 135.401 110.868 130.285C108.749 125.169 105.16 120.795 100.556 117.719C95.9512 114.642 90.5378 113 85 113V119.223C97.0275 119.223 106.777 128.972 106.777 141C106.777 153.028 97.0275 162.777 85 162.777C72.9725 162.777 63.2227 153.028 63.2227 141H57C57 146.538 58.6422 151.951 61.7188 156.556C64.7954 161.16 69.1688 164.75 74.2852 166.869Z" fill="#FFBF00"/>
<path d="M141 141C141 148.426 143.95 155.548 149.201 160.799C154.452 166.05 161.574 169 169 169L169 113C161.574 113 154.452 115.95 149.201 121.201C143.95 126.452 141 133.574 141 141ZM141 141L141 113C133.574 113 126.452 115.95 121.201 121.201C115.95 126.452 113 133.574 113 141C113 148.426 115.95 155.548 121.201 160.799C126.452 166.05 133.574 169 141 169L141 141Z" stroke="#FFBF00" stroke-width="1.55556"/>
</svg>
