<svg width="170" height="170" viewBox="0 0 170 170" fill="none" xmlns="http://www.w3.org/2000/svg">
<path d="M1 29C1 34.5379 2.64217 39.9514 5.71885 44.556C8.79553 49.1605 13.1685 52.7494 18.2849 54.8686C23.4012 56.9879 29.0311 57.5424 34.4625 56.462C39.894 55.3816 44.8831 52.7149 48.799 48.799C52.7149 44.8831 55.3816 39.894 56.462 34.4625C57.5424 29.0311 56.9879 23.4012 54.8686 18.2849C52.7494 13.1685 49.1605 8.79552 44.556 5.71885C39.9514 2.64217 34.5379 0.999998 29 1L29 29L1 29Z" stroke="#FFBF00" stroke-width="1.55556"/>
<path d="M85 50.7773C72.9725 50.7773 63.2227 41.0275 63.2227 29C63.2227 16.9725 72.9725 7.22266 85 7.22266C97.0275 7.22266 106.777 16.9725 106.777 29L113 29C113 23.4622 111.358 18.0489 108.281 13.4443C105.205 8.83976 100.831 5.25109 95.7148 3.13184C90.5985 1.01261 84.9686 0.457701 79.5371 1.53809C74.1058 2.61852 69.117 5.28539 65.2012 9.20117C61.2854 13.117 58.6185 18.1058 57.5381 23.5371C56.4577 28.9685 57.0126 34.5985 59.1318 39.7148C61.2511 44.8312 64.8398 49.2046 69.4443 52.2812C74.0489 55.3578 79.4622 57 85 57V50.7773Z" fill="#FFBF00"/>
<path d="M141 29C133.574 29 126.452 26.05 121.201 20.799C115.95 15.548 113 8.42606 113 0.999999L169 1.00001C169 8.42607 166.05 15.548 160.799 20.799C155.548 26.05 148.426 29 141 29ZM141 29C148.426 29 155.548 31.95 160.799 37.201C166.05 42.452 169 49.5739 169 57L113 57C113 49.5739 115.95 42.452 121.201 37.201C126.452 31.95 133.574 29 141 29Z" stroke="#FFBF00" stroke-width="1.55556"/>
<path d="M29 57C44.464 57 57 69.536 57 85C57 100.464 44.464 113 29 113C13.536 113 1 100.464 1 85C1 69.536 13.536 57 29 57ZM29 63.2227C16.9725 63.2227 7.22266 72.9725 7.22266 85C7.22266 97.0275 16.9725 106.777 29 106.777C41.0275 106.777 50.7773 97.0275 50.7773 85C50.7773 72.9725 41.0275 63.2227 29 63.2227Z" fill="#FFBF00"/>
<path d="M99 57C106.732 57 113 63.268 113 71V99C113 106.732 106.732 113 99 113H71C63.268 113 57 106.732 57 99L57 71C57 63.268 63.268 57 71 57L99 57ZM66.7285 66.75V103.5H72.6338L98.75 71.1602V103.5H103.259V66.75H97.2559L71.2373 98.9678V66.75H66.7285Z" fill="#2E2C28"/>
<path d="M144.111 57C157.857 57.0001 169 68.1431 169 81.8887V113H137.889C124.143 113 113 101.857 113 88.1113V81.8887C113 68.1431 124.143 57.0001 137.889 57H144.111ZM141 63.2227C128.972 63.2227 119.223 72.9725 119.223 85C119.223 97.0275 128.972 106.777 141 106.777C153.028 106.777 162.777 97.0275 162.777 85C162.777 72.9725 153.028 63.2227 141 63.2227Z" fill="#FFBF00"/>
<path d="M57 141C57 146.538 55.3578 151.951 52.2811 156.556C49.2045 161.161 44.8315 164.749 39.7151 166.869C34.5988 168.988 28.9689 169.542 23.5375 168.462C18.106 167.382 13.1169 164.715 9.201 160.799C5.28513 156.883 2.61839 151.894 1.53801 146.463C0.457626 141.031 1.01212 135.401 3.13138 130.285C5.25064 125.169 8.83948 120.796 13.4441 117.719C18.0486 114.642 23.4622 113 29 113L29 141H57Z" stroke="#FFBF00" stroke-width="1.55556"/>
<path d="M113 141C113 125.536 100.464 113 85 113C69.536 113 57 125.536 57 141L57 169H113V141ZM85 162.777C72.9725 162.777 63.2227 153.028 63.2227 141C63.2227 128.972 72.9725 119.223 85 119.223C97.0275 119.223 106.777 128.972 106.777 141C106.777 153.028 97.0275 162.777 85 162.777Z" fill="#FFBF00"/>
<path d="M144.112 112.417C158.287 112.418 169.778 123.909 169.778 138.083V144.306C169.778 158.481 158.287 169.972 144.112 169.972H137.889C123.714 169.972 112.223 158.481 112.223 144.306V112.417H144.112ZM113.778 144.306C113.778 157.622 124.573 168.417 137.889 168.417H144.112C157.427 168.417 168.223 157.622 168.223 144.306V138.083C168.223 124.768 157.428 113.973 144.112 113.972H113.778V144.306Z" fill="#FFBF00"/>
</svg>
