<svg width="170" height="170" viewBox="0 0 170 170" fill="none" xmlns="http://www.w3.org/2000/svg">
<path d="M57.7778 29.0005C57.7776 44.8938 44.8929 57.7778 28.9995 57.7778C13.1064 57.7776 0.222432 44.8936 0.222168 29.0005C0.222168 13.107 13.107 0.223145 29.0005 0.223145L57.7778 0.223145L57.7778 29.0005ZM29.0005 1.77783C13.9661 1.77783 1.77686 13.9661 1.77686 29.0005C1.77712 44.0345 13.9655 56.2229 28.9995 56.2231C44.0338 56.2231 56.2229 44.0347 56.2231 29.0005L56.2231 1.77783L29.0005 1.77783Z" fill="#FF66D6"/>
<path d="M85 7.22266C72.9725 7.22266 63.2227 16.9725 63.2227 29C63.2227 41.0275 72.9725 50.7773 85 50.7773C97.0275 50.7773 106.777 41.0275 106.777 29L113 29C113 34.5378 111.358 39.9511 108.281 44.5557C105.205 49.1602 100.831 52.7489 95.7148 54.8682C90.5985 56.9874 84.9686 57.5423 79.5371 56.4619C74.1058 55.3815 69.117 52.7146 65.2012 48.7988C61.2854 44.883 58.6185 39.8942 57.5381 34.4629C56.4577 29.0315 57.0126 23.4015 59.1318 18.2852C61.2511 13.1688 64.8398 8.79542 69.4443 5.71875C74.0489 2.64218 79.4622 0.999998 85 1V7.22266Z" fill="#FF66D6"/>
<path d="M169 29C169 23.4621 167.358 18.0486 164.281 13.444C161.204 8.83945 156.831 5.25062 151.715 3.13137C146.599 1.01212 140.969 0.457626 135.537 1.53802C130.106 2.6184 125.117 5.28515 121.201 9.20102C117.285 13.1169 114.618 18.106 113.538 23.5375C112.458 28.969 113.012 34.5988 115.131 39.7152C117.251 44.8315 120.839 49.2045 125.444 52.2812C130.049 55.3578 135.462 57 141 57L141 29H169Z" stroke="#FF66D6" stroke-width="1.55556"/>
<path d="M0.999999 81.8887C1.00012 68.1431 12.1431 57.0001 25.8887 57L57 57L57 113L1 113L0.999999 81.8887ZM7.22266 85C7.22266 97.0275 16.9725 106.777 29 106.777C41.0275 106.777 50.7773 97.0275 50.7773 85C50.7773 72.9725 41.0275 63.2227 29 63.2227C16.9725 63.2227 7.22266 72.9725 7.22266 85Z" fill="#FF66D6"/>
<path d="M99 57C106.732 57 113 63.268 113 71V99C113 106.732 106.732 113 99 113H71C63.268 113 57 106.732 57 99L57 71C57 63.268 63.268 57 71 57L99 57ZM66.7285 66.75V103.5H72.6338L98.75 71.1602V103.5H103.259V66.75H97.2559L71.2373 98.9678V66.75H66.7285Z" fill="#2E2C28"/>
<path d="M161.066 93.4756C166.149 98.6991 169 105.702 169 113H113C113 105.702 115.85 98.699 120.933 93.4756C124.238 101.293 131.979 106.777 141 106.777C150.021 106.777 157.761 101.293 161.066 93.4756ZM169 57C169 64.298 166.149 71.3 161.066 76.5234C157.76 68.7069 150.021 63.2227 141 63.2227C131.979 63.2227 124.239 68.7067 120.933 76.5234C115.851 71.3001 113 64.2977 113 57H169Z" fill="#FF66D6"/>
<path d="M29.0005 112.223C36.6327 112.223 43.9524 115.255 49.3491 120.652C54.7457 126.049 57.7778 133.368 57.7778 141V141.778H38.3267C42.4382 143.187 46.2178 145.52 49.3491 148.652C54.7457 154.049 57.7778 161.368 57.7778 169V169.778H0.222168L0.222168 169C0.222169 161.368 3.25498 154.049 8.65186 148.652C11.7834 145.52 15.5626 143.187 19.6743 141.778H0.222168L0.222168 141C0.222169 133.368 3.25498 126.049 8.65186 120.652C14.0487 115.255 21.3681 112.223 29.0005 112.223ZM29.0005 141.778C21.7807 141.778 14.8566 144.646 9.75146 149.751C4.82983 154.673 1.98853 161.285 1.79053 168.223H56.2104C56.0125 161.286 53.1709 154.673 48.2495 149.751C43.1445 144.646 36.2201 141.778 29.0005 141.778ZM29.0005 113.778C21.7807 113.778 14.8566 116.646 9.75146 121.751C4.82982 126.673 1.98853 133.285 1.79053 140.223H56.2104C56.0125 133.286 53.1709 126.673 48.2495 121.751C43.1445 116.646 36.2201 113.778 29.0005 113.778Z" fill="#FF66D6"/>
<path d="M113 141C113 156.464 100.464 169 85 169C69.536 169 57 156.464 57 141C57 125.536 69.536 113 85 113L113 113V141ZM85 119.223C72.9725 119.223 63.2227 128.972 63.2227 141C63.2227 153.028 72.9725 162.777 85 162.777C97.0275 162.777 106.777 153.028 106.777 141C106.777 128.972 97.0275 119.223 85 119.223Z" fill="#FF66D6"/>
<path d="M141 141C141 133.574 138.05 126.452 132.799 121.201C127.548 115.95 120.426 113 113 113L113 169C120.426 169 127.548 166.05 132.799 160.799C138.05 155.548 141 148.426 141 141ZM141 141L141 169C148.426 169 155.548 166.05 160.799 160.799C166.05 155.548 169 148.426 169 141C169 133.574 166.05 126.452 160.799 121.201C155.548 115.95 148.426 113 141 113L141 141Z" stroke="#FF66D6" stroke-width="1.55556"/>
</svg>
