<svg width="160" height="160" viewBox="0 0 160 160" fill="none" xmlns="http://www.w3.org/2000/svg">
<path d="M23.216 23.6803C23.591 23.3053 24.2474 23.024 24.9037 22.9302C25.56 22.8365 26.1227 23.024 26.779 23.1177C28.0917 23.4928 29.1231 23.9616 29.7794 24.993C30.6233 26.212 30.7171 27.6184 32.0298 28.556C34.2801 30.0563 37.1868 27.1496 39.9059 28.9311C41.1248 29.775 42.0625 31.0877 43.0001 32.2128C44.7816 34.5569 46.9382 36.7135 49.0947 38.6825C50.7825 40.1828 52.4702 41.4954 53.7829 43.3707C54.6268 44.5896 55.0019 45.9023 55.752 47.215C56.8771 49.2778 58.3774 51.1531 59.8776 53.0284C61.6591 55.1849 63.4406 58.8417 66.441 59.5918C67.0974 59.6856 67.7537 59.7793 68.4101 60.0606C69.8165 60.5294 70.7542 61.8422 71.9731 62.4985C73.192 63.1549 74.5985 63.4362 75.8174 64.0925C78.1615 65.3114 77.5052 69.7183 74.8798 68.5931C74.2234 68.3118 73.8484 67.7492 73.4733 67.1867C71.8793 65.4052 69.3477 65.1239 67.1912 64.28C62.878 62.5923 59.5025 59.2168 55.4707 56.8727C55.0956 56.6852 54.4393 56.4039 54.158 56.8727C58.1898 60.3419 62.3154 63.7174 66.3473 67.1867C67.1911 67.843 67.9412 68.5931 68.5038 69.3432C69.0664 70.2809 69.3477 71.3123 68.9726 72.2499C68.5976 73.1875 67.4724 73.9377 66.5348 73.5626C65.4096 73.1876 64.9408 71.7811 64.1907 70.656C63.3468 69.437 61.8467 68.8744 60.534 68.1243C58.0961 66.8116 56.4083 64.7489 54.158 63.2486C51.7202 61.5609 49.1885 59.9669 47.1257 57.7166C45.813 56.4039 44.5941 54.8099 43.1876 53.5909C41.6874 52.0907 39.9997 50.9656 38.312 49.6529C34.2801 46.5587 30.8108 42.7144 27.3416 39.0576C26.1227 37.8387 24.9037 35.8696 26.0289 34.5569C26.6853 33.713 28.0917 33.2442 27.9979 32.2128C27.8104 31.6502 27.3416 31.369 26.8728 31.0877C25.0913 30.2438 22.8409 29.3062 22.3721 27.1496C21.9033 26.1182 22.2783 24.618 23.216 23.6803Z" fill="#FFFCFD"/>
<path d="M136.786 136.385C136.411 136.76 135.754 137.041 135.098 137.135C134.441 137.229 133.879 137.041 133.223 136.947C131.91 136.572 130.878 136.104 130.222 135.072C129.378 133.853 129.284 132.447 127.972 131.509C125.721 130.009 122.815 132.916 120.096 131.134C118.877 130.29 117.939 128.977 117.001 127.852C115.22 125.508 113.063 123.352 110.907 121.383C109.219 119.882 107.531 118.57 106.219 116.694C105.375 115.475 105 114.163 104.25 112.85C103.124 110.787 101.624 108.912 100.124 107.037C98.3425 104.88 96.5609 101.223 93.5605 100.473C92.9042 100.38 92.2478 100.286 91.5915 100.005C90.185 99.5357 89.2474 98.223 88.0285 97.5666C86.8095 96.9103 85.403 96.629 84.1841 95.9726C81.84 94.7537 82.4964 90.3469 85.1218 91.472C85.7781 91.7533 86.1532 92.3159 86.5282 92.8785C88.1222 94.66 90.6538 94.9412 92.8104 95.7851C97.1235 97.4728 100.499 100.848 104.531 103.192C104.906 103.38 105.562 103.661 105.844 103.192C101.812 99.7232 97.6861 96.3477 93.6543 92.8784C92.8104 92.2221 92.0603 91.472 91.4977 90.7219C90.9351 89.7842 90.6538 88.7529 91.0289 87.8152C91.404 86.8776 92.5291 86.1275 93.4667 86.5025C94.5919 86.8776 95.0607 88.284 95.8108 89.4092C96.6547 90.6281 98.1549 91.1907 99.4676 91.9408C101.905 93.2535 103.593 95.3163 105.844 96.8165C108.281 98.5042 110.813 100.098 112.876 102.349C114.188 103.661 115.407 105.255 116.814 106.474C118.314 107.974 120.002 109.1 121.69 110.412C125.721 113.506 129.191 117.351 132.66 121.008C133.879 122.226 135.098 124.196 133.973 125.508C133.316 126.352 131.91 126.821 132.004 127.852C132.191 128.415 132.66 128.696 133.129 128.977C134.91 129.821 137.161 130.759 137.629 132.916C138.098 133.947 137.723 135.447 136.786 136.385Z" fill="#FFFCFD"/>
<path d="M0 80.3383C0 79.8079 0.265204 79.1449 0.663009 78.6145C1.06082 78.0841 1.59123 77.8189 2.12164 77.4211C3.31506 76.758 4.37588 76.3603 5.5693 76.6255C7.02792 76.8907 8.08874 77.8189 9.67996 77.5537C12.332 77.0232 12.332 72.9126 15.5144 72.2496C16.9731 71.9844 18.5643 72.2496 20.0229 72.3822C22.9401 72.78 25.99 72.78 28.9072 72.6474C31.1615 72.5148 33.2831 72.2496 35.5373 72.6474C36.996 72.9126 38.1894 73.5756 39.648 73.9734C41.9022 74.6364 44.2891 74.9016 46.6759 75.1668C49.4605 75.432 53.306 76.7581 55.958 75.1668C56.4884 74.769 57.0188 74.3712 57.6818 74.106C59.0078 73.443 60.5991 73.7082 61.9251 73.3104C63.2511 72.9126 64.4446 72.117 65.7706 71.7192C68.29 70.9236 70.942 74.5038 68.29 75.5646C67.627 75.8298 66.964 75.6972 66.3009 75.5646C63.9141 75.432 61.9251 77.0233 59.8035 77.9515C55.5602 79.8079 50.7866 79.8079 46.2781 81.0013C45.8803 81.1339 45.2173 81.3991 45.3499 81.9296C50.6539 81.5317 55.958 81.0013 61.2621 80.6035C62.3229 80.4709 63.3837 80.4709 64.3119 80.6035C65.3727 80.8687 66.3009 81.3991 66.6987 82.3273C67.0965 83.2555 66.8314 84.5816 65.9032 84.9794C64.8423 85.5098 63.5163 84.8468 62.1903 84.5816C60.7317 84.3164 59.2731 84.9794 57.8145 85.3772C55.1624 86.1728 52.5104 85.9076 49.8584 86.438C46.9411 86.9684 44.0239 87.6314 40.974 87.4988C39.1176 87.4988 37.1285 87.2336 35.2721 87.3662C33.1505 87.3662 31.1615 87.764 29.0398 88.0292C24.001 88.6922 18.8295 88.427 13.7906 88.2944C12.0668 88.2944 9.81256 87.764 9.67996 86.0402C9.54736 84.9794 10.2104 83.6534 9.41474 82.9903C8.88433 82.7251 8.35395 82.8577 7.82354 82.9903C5.96712 83.6534 3.71289 84.5816 1.85646 83.3881C0.795644 82.9903 0 81.6643 0 80.3383Z" fill="#FFFCFD"/>
<path d="M160 79.7267C160 80.2571 159.735 80.9201 159.337 81.4505C158.939 81.9809 158.409 82.2462 157.878 82.644C156.685 83.307 155.624 83.7048 154.431 83.4396C152.972 83.1743 151.911 82.2462 150.32 82.5114C147.668 83.0418 147.668 87.1524 144.486 87.8154C143.027 88.0806 141.436 87.8154 139.977 87.6828C137.06 87.285 134.01 87.285 131.093 87.4176C128.839 87.5502 126.717 87.8154 124.463 87.4176C123.004 87.1524 121.811 86.4894 120.352 86.0916C118.098 85.4286 115.711 85.1634 113.324 84.8982C110.539 84.633 106.694 83.307 104.042 84.8982C103.512 85.296 102.981 85.6938 102.318 85.959C100.992 86.622 99.4009 86.3568 98.0749 86.7546C96.7489 87.1524 95.5554 87.948 94.2294 88.3458C91.71 89.1415 89.058 85.5612 91.71 84.5004C92.373 84.2352 93.036 84.3678 93.6991 84.5004C96.0859 84.633 98.0749 83.0417 100.197 82.1135C104.44 80.2571 109.213 80.2571 113.722 79.0637C114.12 78.9311 114.783 78.6659 114.65 78.1355C109.346 78.5333 104.042 79.0637 98.7379 79.4615C97.6771 79.5941 96.6163 79.5941 95.6881 79.4615C94.6273 79.1963 93.6991 78.6659 93.3013 77.7377C92.9035 76.8095 93.1686 75.4835 94.0968 75.0856C95.1577 74.5552 96.4837 75.2182 97.8097 75.4834C99.2683 75.7486 100.727 75.0857 102.186 74.6879C104.838 73.8922 107.49 74.1574 110.142 73.627C113.059 73.0966 115.976 72.4336 119.026 72.5662C120.882 72.5662 122.871 72.8314 124.728 72.6988C126.85 72.6988 128.839 72.301 130.96 72.0358C135.999 71.3728 141.171 71.638 146.209 71.7706C147.933 71.7706 150.187 72.301 150.32 74.0248C150.453 75.0857 149.79 76.4117 150.585 77.0747C151.116 77.3399 151.646 77.2073 152.176 77.0747C154.033 76.4117 156.287 75.4835 158.144 76.6769C159.204 77.0747 160 78.4007 160 79.7267Z" fill="#FFFCFD"/>
<path d="M136.817 23.6474C136.442 23.2723 135.785 22.991 135.129 22.8973C134.473 22.8035 133.91 22.991 133.254 23.0848C131.941 23.4598 130.91 23.9287 130.253 24.9601C129.41 26.179 129.316 27.5854 128.003 28.5231C125.753 30.0233 122.846 27.1166 120.127 28.8981C118.908 29.742 117.97 31.0547 117.033 32.1799C115.251 34.524 113.095 36.6805 110.938 38.6496C109.25 40.1498 107.563 41.4625 106.25 43.3378C105.406 44.5567 105.031 45.8694 104.281 47.1821C103.156 49.2449 101.655 51.1201 100.155 52.9954C98.3738 55.152 96.5923 58.8088 93.5918 59.5589C92.9355 59.6526 92.2791 59.7464 91.6228 60.0277C90.2163 60.4965 89.2787 61.8092 88.0598 62.4655C86.8408 63.1219 85.4343 63.4032 84.2154 64.0595C81.8713 65.2785 82.5277 69.6853 85.1531 68.5602C85.8094 68.2789 86.1845 67.7163 86.5595 67.1537C88.1535 65.3722 90.6851 65.091 92.8417 64.2471C97.1548 62.5593 100.53 59.1838 104.562 56.8397C104.937 56.6522 105.594 56.3709 105.875 56.8397C101.843 60.309 97.7174 63.6845 93.6856 67.1537C92.8417 67.8101 92.0916 68.5602 91.529 69.3103C90.9664 70.2479 90.6851 71.2793 91.0602 72.2169C91.4353 73.1546 92.5604 73.9047 93.498 73.5297C94.6232 73.1546 95.092 71.7482 95.8421 70.623C96.686 69.4041 98.1862 68.8415 99.4989 68.0914C101.937 66.7787 103.625 64.7159 105.875 63.2157C108.313 61.5279 110.844 59.9339 112.907 57.6836C114.22 56.3709 115.439 54.7769 116.845 53.558C118.345 52.0578 120.033 50.9326 121.721 49.6199C125.753 46.5257 129.222 42.6814 132.691 39.0246C133.91 37.8057 135.129 35.8366 134.004 34.524C133.348 33.6801 131.941 33.2113 132.035 32.1799C132.222 31.6173 132.691 31.336 133.16 31.0547C134.942 30.2108 137.192 29.2732 137.661 27.1166C138.13 26.0852 137.755 24.585 136.817 23.6474Z" fill="#FFFCFD"/>
<path d="M23.2473 136.352C23.6224 136.727 24.2787 137.008 24.9351 137.102C25.5914 137.196 26.154 137.008 26.8104 136.915C28.1231 136.54 29.1545 136.071 29.8108 135.039C30.6547 133.82 30.7485 132.414 32.0611 131.476C34.3115 129.976 37.2181 132.883 39.9373 131.101C41.1562 130.257 42.0938 128.945 43.0315 127.819C44.813 125.475 46.9696 123.319 49.1261 121.35C50.8139 119.85 52.5016 118.537 53.8143 116.662C54.6582 115.443 55.0332 114.13 55.7833 112.817C56.9085 110.754 58.4087 108.879 59.9089 107.004C61.6905 104.847 63.472 101.191 66.4724 100.44C67.1288 100.347 67.7851 100.253 68.4415 99.9717C69.8479 99.5029 70.7855 98.1901 72.0045 97.5338C73.2234 96.8774 74.6299 96.5961 75.8488 95.9398C78.1929 94.7209 77.5365 90.314 74.9111 91.4392C74.2548 91.7205 73.8797 92.283 73.5047 92.8456C71.9107 94.6271 69.3791 94.9084 67.2225 95.7523C62.9094 97.44 59.5339 100.816 55.5021 103.16C55.127 103.347 54.4706 103.628 54.1894 103.16C58.2212 99.6904 62.3468 96.3149 66.3786 92.8456C67.2225 92.1893 67.9726 91.4392 68.5352 90.689C69.0978 89.7514 69.3791 88.72 69.004 87.7824C68.629 86.8448 67.5038 86.0946 66.5662 86.4697C65.441 86.8447 64.9722 88.2512 64.2221 89.3763C63.3782 90.5953 61.878 91.1579 60.5653 91.908C58.1275 93.2207 56.4397 95.2834 54.1894 96.7837C51.7515 98.4714 49.2199 100.065 47.1571 102.316C45.8444 103.628 44.6255 105.222 43.219 106.441C41.7188 107.942 40.0311 109.067 38.3433 110.379C34.3115 113.474 30.8422 117.318 27.373 120.975C26.154 122.194 24.9351 124.163 26.0603 125.475C26.7166 126.319 28.1231 126.788 28.0293 127.819C27.8418 128.382 27.373 128.663 26.9041 128.945C25.1226 129.788 22.8723 130.726 22.4035 132.883C21.9347 133.914 22.3097 135.414 23.2473 136.352Z" fill="#FFFCFD"/>
<path d="M80.3387 0C79.8083 0 79.1453 0.265204 78.6149 0.663009C78.0845 1.06082 77.8192 1.59123 77.4214 2.12164C76.7584 3.31506 76.3606 4.37588 76.6258 5.5693C76.891 7.02792 77.8192 8.08874 77.554 9.67996C77.0236 12.332 72.913 12.332 72.2499 15.5144C71.9847 16.9731 72.25 18.5643 72.3826 20.0229C72.7804 22.9401 72.7804 25.99 72.6478 28.9072C72.5152 31.1615 72.25 33.2831 72.6478 35.5373C72.913 36.996 73.576 38.1894 73.9738 39.648C74.6368 41.9022 74.902 44.2891 75.1672 46.6759C75.4324 49.4605 76.7584 53.306 75.1672 55.958C74.7694 56.4884 74.3716 57.0188 74.1064 57.6818C73.4434 59.0078 73.7086 60.5991 73.3108 61.9251C72.913 63.2511 72.1174 64.4446 71.7196 65.7706C70.9239 68.29 74.5042 70.942 75.565 68.29C75.8302 67.627 75.6976 66.964 75.565 66.3009C75.4324 63.9141 77.0236 61.9251 77.9519 59.8035C79.8083 55.5602 79.8083 50.7866 81.0017 46.2781C81.1343 45.8803 81.3995 45.2173 81.9299 45.3499C81.5321 50.6539 81.0017 55.958 80.6039 61.2621C80.4713 62.3229 80.4713 63.3837 80.6039 64.3119C80.8691 65.3727 81.3995 66.3009 82.3277 66.6987C83.2559 67.0965 84.5819 66.8314 84.9797 65.9032C85.5101 64.8423 84.8472 63.5163 84.5819 62.1903C84.3167 60.7317 84.9797 59.2731 85.3775 57.8145C86.1731 55.1624 85.908 52.5104 86.4384 49.8584C86.9688 46.9411 87.6318 44.0239 87.4992 40.974C87.4992 39.1176 87.234 37.1285 87.3666 35.2721C87.3666 33.1505 87.7644 31.1615 88.0296 29.0398C88.6926 24.001 88.4274 18.8295 88.2948 13.7906C88.2948 12.0668 87.7644 9.81256 86.0405 9.67996C84.9797 9.54736 83.6537 10.2104 82.9907 9.41474C82.7255 8.88433 82.8581 8.35395 82.9907 7.82354C83.6537 5.96712 84.5819 3.71289 83.3885 1.85646C82.9907 0.795644 81.6647 0 80.3387 0Z" fill="#FFFCFD"/>
<path d="M79.7271 160C80.2575 160 80.9205 159.735 81.4509 159.337C81.9813 158.939 82.2465 158.409 82.6443 157.878C83.3073 156.685 83.7051 155.624 83.4399 154.431C83.1747 152.972 82.2465 151.911 82.5117 150.32C83.0421 147.668 87.1528 147.668 87.8158 144.486C88.081 143.027 87.8158 141.436 87.6832 139.977C87.2854 137.06 87.2854 134.01 87.418 131.093C87.5506 128.839 87.8158 126.717 87.418 124.463C87.1528 123.004 86.4898 121.811 86.092 120.352C85.4289 118.098 85.1637 115.711 84.8985 113.324C84.6333 110.539 83.3073 106.694 84.8985 104.042C85.2963 103.512 85.6942 102.981 85.9594 102.318C86.6224 100.992 86.3572 99.4009 86.755 98.0749C87.1528 96.7489 87.9484 95.5554 88.3462 94.2294C89.1418 91.71 85.5616 89.058 84.5008 91.71C84.2356 92.373 84.3682 93.036 84.5008 93.6991C84.6334 96.0859 83.0421 98.0749 82.1139 100.197C80.2575 104.44 80.2575 109.213 79.0641 113.722C78.9315 114.12 78.6662 114.783 78.1358 114.65C78.5336 109.346 79.0641 104.042 79.4619 98.7379C79.5945 97.6771 79.5945 96.6163 79.4619 95.6881C79.1967 94.6273 78.6663 93.6991 77.7381 93.3013C76.8098 92.9035 75.4838 93.1686 75.086 94.0968C74.5556 95.1577 75.2186 96.4837 75.4838 97.8097C75.749 99.2683 75.086 100.727 74.6882 102.186C73.8926 104.838 74.1578 107.49 73.6274 110.142C73.097 113.059 72.434 115.976 72.5666 119.026C72.5666 120.882 72.8318 122.871 72.6992 124.728C72.6992 126.85 72.3014 128.839 72.0362 130.96C71.3732 135.999 71.6384 141.171 71.771 146.209C71.771 147.933 72.3014 150.187 74.0252 150.32C75.086 150.453 76.412 149.79 77.075 150.585C77.3402 151.116 77.2076 151.646 77.075 152.176C76.412 154.033 75.4838 156.287 76.6773 158.144C77.0751 159.204 78.4011 160 79.7271 160Z" fill="#FFFCFD"/>
</svg>
