<svg width="842" height="170" viewBox="0 0 842 170" fill="none" xmlns="http://www.w3.org/2000/svg">
<path d="M1 29C1 34.5379 2.64217 39.9514 5.71885 44.556C8.79553 49.1605 13.1685 52.7494 18.2849 54.8686C23.4012 56.9879 29.0311 57.5424 34.4625 56.462C39.894 55.3816 44.8831 52.7149 48.799 48.799C52.7149 44.8831 55.3816 39.894 56.462 34.4625C57.5424 29.0311 56.9879 23.4012 54.8686 18.2849C52.7494 13.1685 49.1605 8.79552 44.556 5.71885C39.9514 2.64217 34.5379 0.999998 29 1L29 29L1 29Z" stroke="#E55CA1" stroke-width="1.55556"/>
<path d="M85 50.7773C72.9725 50.7773 63.2227 41.0275 63.2227 29C63.2227 16.9725 72.9725 7.22266 85 7.22266C97.0275 7.22266 106.777 16.9725 106.777 29L113 29C113 23.4622 111.358 18.0489 108.281 13.4443C105.205 8.83976 100.831 5.25109 95.7148 3.13184C90.5985 1.01261 84.9686 0.457701 79.5371 1.53809C74.1058 2.61852 69.117 5.28539 65.2012 9.20117C61.2854 13.117 58.6185 18.1058 57.5381 23.5371C56.4577 28.9685 57.0126 34.5985 59.1318 39.7148C61.2511 44.8312 64.8398 49.2046 69.4443 52.2812C74.0489 55.3578 79.4622 57 85 57V50.7773Z" fill="#E55CA1"/>
<path d="M141 29C133.574 29 126.452 26.05 121.201 20.799C115.95 15.548 113 8.42606 113 0.999999L169 1.00001C169 8.42607 166.05 15.548 160.799 20.799C155.548 26.05 148.426 29 141 29ZM141 29C148.426 29 155.548 31.95 160.799 37.201C166.05 42.452 169 49.5739 169 57L113 57C113 49.5739 115.95 42.452 121.201 37.201C126.452 31.95 133.574 29 141 29Z" stroke="#E55CA1" stroke-width="1.55556"/>
<path d="M29 57C44.464 57 57 69.536 57 85C57 100.464 44.464 113 29 113C13.536 113 1 100.464 1 85C1 69.536 13.536 57 29 57ZM29 63.2227C16.9725 63.2227 7.22266 72.9725 7.22266 85C7.22266 97.0275 16.9725 106.777 29 106.777C41.0275 106.777 50.7773 97.0275 50.7773 85C50.7773 72.9725 41.0275 63.2227 29 63.2227Z" fill="#E55CA1"/>
<path d="M99 57C106.732 57 113 63.268 113 71V99C113 106.732 106.732 113 99 113H71C63.268 113 57 106.732 57 99L57 71C57 63.268 63.268 57 71 57L99 57ZM66.7285 66.75V103.5H72.6338L98.75 71.1602V103.5H103.259V66.75H97.2559L71.2373 98.9678V66.75H66.7285Z" fill="#E55CA1"/>
<path d="M144.111 57C157.857 57.0001 169 68.1431 169 81.8887V113H137.889C124.143 113 113 101.857 113 88.1113V81.8887C113 68.1431 124.143 57.0001 137.889 57H144.111ZM141 63.2227C128.972 63.2227 119.223 72.9725 119.223 85C119.223 97.0275 128.972 106.777 141 106.777C153.028 106.777 162.777 97.0275 162.777 85C162.777 72.9725 153.028 63.2227 141 63.2227Z" fill="#E55CA1"/>
<path d="M57 141C57 146.538 55.3578 151.951 52.2811 156.556C49.2045 161.161 44.8315 164.749 39.7151 166.869C34.5988 168.988 28.9689 169.542 23.5375 168.462C18.106 167.382 13.1169 164.715 9.201 160.799C5.28513 156.883 2.61839 151.894 1.53801 146.463C0.457626 141.031 1.01212 135.401 3.13138 130.285C5.25064 125.169 8.83948 120.796 13.4441 117.719C18.0486 114.642 23.4622 113 29 113L29 141H57Z" stroke="#E55CA1" stroke-width="1.55556"/>
<path d="M113 141C113 125.536 100.464 113 85 113C69.536 113 57 125.536 57 141L57 169H113V141ZM85 162.777C72.9725 162.777 63.2227 153.028 63.2227 141C63.2227 128.972 72.9725 119.223 85 119.223C97.0275 119.223 106.777 128.972 106.777 141C106.777 153.028 97.0275 162.777 85 162.777Z" fill="#E55CA1"/>
<path d="M144.112 112.417C158.287 112.418 169.778 123.909 169.778 138.083V144.306C169.778 158.481 158.287 169.972 144.112 169.972H137.889C123.714 169.972 112.223 158.481 112.223 144.306V112.417H144.112ZM113.778 144.306C113.778 157.622 124.573 168.417 137.889 168.417H144.112C157.427 168.417 168.223 157.622 168.223 144.306V138.083C168.223 124.768 157.428 113.973 144.112 113.972H113.778V144.306Z" fill="#E55CA1"/>
<path d="M197 29C197 21.5739 194.05 14.452 188.799 9.20101C183.548 3.94999 176.426 1 169 1L169 57C176.426 57 183.548 54.05 188.799 48.799C194.05 43.548 197 36.4261 197 29ZM197 29C197 36.4261 199.95 43.548 205.201 48.799C210.452 54.05 217.574 57 225 57L225 1C217.574 1 210.452 3.95 205.201 9.20102C199.95 14.452 197 21.5739 197 29Z" stroke="#E55CA1" stroke-width="1.55556"/>
<path d="M273.066 37.4756C278.149 42.6991 281 49.7018 281 57L225 57C225 49.702 227.85 42.699 232.933 37.4756C236.238 45.2927 243.979 50.7773 253 50.7773C262.021 50.7773 269.761 45.2926 273.066 37.4756ZM253 1C260.426 1 267.548 3.95016 272.799 9.20117C278.05 14.4522 281 21.5739 281 29L274.777 29C274.777 16.9725 265.028 7.22266 253 7.22266C240.972 7.22266 231.223 16.9725 231.223 29H225C225 21.5739 227.95 14.4522 233.201 9.20117C238.452 3.95015 245.574 1 253 1Z" fill="#E55CA1"/>
<path d="M309 0.223145C324.894 0.223407 337.778 13.1071 337.778 29.0005C337.778 44.8936 324.894 57.7776 309 57.7778C293.107 57.7778 280.223 44.8938 280.223 29.0005C280.223 13.107 293.107 0.223145 309 0.223145ZM309 1.77783C293.966 1.77783 281.778 13.9661 281.778 29.0005C281.778 44.0347 293.966 56.2231 309 56.2231C324.035 56.2229 336.223 44.0345 336.223 29.0005C336.223 13.9662 324.035 1.77809 309 1.77783Z" fill="#E55CA1"/>
<path d="M225 85C225 69.536 212.464 57 197 57C181.536 57 169 69.536 169 85C169 100.464 181.536 113 197 113H225V85ZM197 106.777C184.972 106.777 175.223 97.0275 175.223 85C175.223 72.9725 184.972 63.2227 197 63.2227C209.028 63.2227 218.777 72.9725 218.777 85C218.777 97.0275 209.028 106.777 197 106.777Z" fill="#E55CA1"/>
<path d="M267 57C274.732 57 281 63.268 281 71V99C281 106.732 274.732 113 267 113H239C231.268 113 225 106.732 225 99V71C225 63.268 231.268 57 239 57L267 57ZM238.82 66.75V103.5H243.426V88.6533H257.661C260.176 88.6533 262.389 88.1957 264.3 87.2812C266.227 86.3503 267.713 85.0597 268.759 83.4102C269.82 81.7442 270.352 79.8408 270.352 77.7012C270.352 75.5616 269.82 73.6672 268.759 72.0176C267.713 70.3517 266.227 69.0611 264.3 68.1465C262.389 67.2156 260.176 66.75 257.661 66.75H238.82ZM257.562 70.7676C259.196 70.7676 260.618 71.0543 261.826 71.626C263.051 72.1813 263.99 72.9812 264.644 74.0264C265.313 75.0716 265.647 76.2967 265.647 77.7012C265.647 79.1058 265.313 80.3316 264.644 81.377C263.99 82.4221 263.051 83.2301 261.826 83.8018C260.618 84.3571 259.196 84.6348 257.562 84.6348H243.426V70.7676H257.562Z" fill="#E55CA1"/>
<path d="M309 63.2227C296.972 63.2227 287.223 72.9725 287.223 85C287.223 97.0275 296.972 106.777 309 106.777C321.028 106.777 330.777 97.0275 330.777 85H337C337 90.5378 335.358 95.9511 332.281 100.556C329.205 105.16 324.831 108.749 319.715 110.868C314.599 112.987 308.969 113.542 303.537 112.462C298.106 111.381 293.117 108.715 289.201 104.799C285.285 100.883 282.619 95.8942 281.538 90.4629C280.458 85.0315 281.013 79.4015 283.132 74.2852C285.251 69.1688 288.84 64.7954 293.444 61.7188C298.049 58.6422 303.462 57 309 57V63.2227Z" fill="#E55CA1"/>
<path d="M225 113V112.222H225.778V113H225ZM169 113H168.222V112.222H169V113ZM169 144.111L168.222 144.111V144.111H169ZM193.889 169L193.889 169.778L193.889 169.778L193.889 169ZM225 169H225.778V169.778H225V169ZM225 113V113.778H169V113V112.222H225V113ZM169 113H169.778V144.111H169H168.222V113H169ZM169 144.111L169.778 144.111C169.778 157.427 180.573 168.222 193.889 168.222L193.889 169L193.889 169.778C179.714 169.778 168.222 158.286 168.222 144.111L169 144.111ZM193.889 169V168.222H225V169V169.778H193.889V169ZM225 169H224.222V113H225H225.778V169H225Z" fill="#E55CA1"/>
<path d="M281 113L281 169L253 169C237.536 169 225 156.464 225 141L225 113L281 113ZM231.223 141C231.223 153.028 240.972 162.777 253 162.777C265.028 162.777 274.777 153.028 274.777 141C274.777 128.972 265.028 119.223 253 119.223C240.972 119.223 231.223 128.972 231.223 141Z" fill="#E55CA1"/>
<path d="M309 112.223C316.633 112.223 323.952 115.255 329.349 120.652C334.746 126.049 337.778 133.368 337.778 141V141.778H318.327C322.438 143.187 326.218 145.52 329.349 148.652C334.746 154.049 337.778 161.368 337.778 169V169.778H280.223V169C280.223 161.368 283.255 154.049 288.652 148.652C291.783 145.52 295.563 143.187 299.674 141.778H280.223V141C280.223 133.368 283.255 126.049 288.652 120.652C294.049 115.255 301.368 112.223 309 112.223ZM309 141.778C301.781 141.778 294.857 144.646 289.751 149.751C284.83 154.673 281.989 161.285 281.791 168.223H336.21C336.012 161.286 333.171 154.673 328.25 149.751C323.144 144.646 316.22 141.778 309 141.778ZM309 113.778C301.781 113.778 294.857 116.646 289.751 121.751C284.83 126.673 281.989 133.285 281.791 140.223H336.21C336.012 133.286 333.171 126.673 328.25 121.751C323.144 116.646 316.22 113.778 309 113.778Z" fill="#E55CA1"/>
<path d="M365 1C359.462 1 354.049 2.64217 349.444 5.71885C344.839 8.79553 341.251 13.1685 339.131 18.2849C337.012 23.4012 336.458 29.0311 337.538 34.4625C338.618 39.894 341.285 44.8831 345.201 48.799C349.117 52.7149 354.106 55.3816 359.537 56.462C364.969 57.5424 370.599 56.9879 375.715 54.8686C380.831 52.7494 385.204 49.1605 388.281 44.556C391.358 39.9514 393 34.5379 393 29L365 29L365 1Z" stroke="#E55CA1" stroke-width="1.55556"/>
<path d="M449 29C449 13.536 436.464 1 421 1C405.536 1 393 13.536 393 29C393 44.464 405.536 57 421 57H449V29ZM421 50.7773C408.972 50.7773 399.223 41.0275 399.223 29C399.223 16.9725 408.972 7.22266 421 7.22266C433.028 7.22266 442.777 16.9725 442.777 29C442.777 41.0275 433.028 50.7773 421 50.7773Z" fill="#E55CA1"/>
<path d="M477 29C484.426 29 491.548 26.05 496.799 20.799C502.05 15.548 505 8.42606 505 1L449 1.00001C449 8.42607 451.95 15.548 457.201 20.799C462.452 26.05 469.574 29 477 29ZM477 29L449 29C449 36.4261 451.95 43.548 457.201 48.799C462.452 54.05 469.574 57 477 57C484.426 57 491.548 54.05 496.799 48.799C502.05 43.548 505 36.4261 505 29L477 29Z" stroke="#E55CA1" stroke-width="1.55556"/>
<path d="M393 57L393 113L365 113C349.536 113 337 100.464 337 85L337 57L393 57ZM343.223 85C343.223 97.0275 352.972 106.777 365 106.777C377.028 106.777 386.777 97.0275 386.777 85C386.777 72.9725 377.028 63.2227 365 63.2227C352.972 63.2227 343.223 72.9725 343.223 85Z" fill="#E55CA1"/>
<path d="M435 57C442.732 57 449 63.268 449 71V99C449 106.732 442.732 113 435 113H407C399.268 113 393 106.732 393 99V71C393 63.268 399.268 57 407 57L435 57ZM402.929 66.75V70.8174H418.707V103.5H423.312V70.8174H439.091V66.75H402.929Z" fill="#E55CA1"/>
<path d="M497.066 93.4756C502.149 98.6991 505 105.702 505 113H449C449 105.702 451.85 98.699 456.933 93.4756C460.238 101.293 467.979 106.777 477 106.777C486.021 106.777 493.761 101.293 497.066 93.4756ZM477 57C484.426 57 491.548 59.9502 496.799 65.2012C502.05 70.4522 505 77.5739 505 85L498.777 85C498.777 72.9725 489.028 63.2227 477 63.2227C464.972 63.2227 455.223 72.9725 455.223 85H449C449 77.5739 451.95 70.4522 457.201 65.2012C462.452 59.9502 469.574 57 477 57Z" fill="#E55CA1"/>
<path d="M393 141C393 135.462 391.358 130.049 388.281 125.444C385.204 120.839 380.831 117.251 375.715 115.131C370.599 113.012 364.969 112.458 359.537 113.538C354.106 114.618 349.117 117.285 345.201 121.201C341.285 125.117 338.618 130.106 337.538 135.537C336.458 140.969 337.012 146.599 339.131 151.715C341.251 156.831 344.839 161.204 349.444 164.281C354.049 167.358 359.462 169 365 169L365 141H393Z" stroke="#E55CA1" stroke-width="1.55556"/>
<path d="M421 162.777C408.972 162.777 399.223 153.028 399.223 141C399.223 128.972 408.972 119.223 421 119.223C432.839 119.223 442.472 128.67 442.771 140.438L442.777 141H449C449 135.462 447.358 130.049 444.281 125.444C441.205 120.84 436.831 117.251 431.715 115.132C426.599 113.013 420.969 112.458 415.537 113.538C410.106 114.619 405.117 117.285 401.201 121.201C397.285 125.117 394.619 130.106 393.538 135.537C392.458 140.969 393.013 146.599 395.132 151.715C397.251 156.831 400.84 161.205 405.444 164.281C410.049 167.358 415.462 169 421 169V162.777Z" fill="#E55CA1"/>
<path d="M477 112.223C492.894 112.223 505.778 125.107 505.778 141C505.778 156.894 492.894 169.778 477 169.778C461.107 169.778 448.223 156.894 448.223 141C448.223 125.107 461.107 112.223 477 112.223ZM477 113.778C461.966 113.778 449.778 125.966 449.778 141C449.778 156.035 461.966 168.223 477 168.223C492.035 168.223 504.223 156.035 504.223 141C504.223 125.966 492.035 113.778 477 113.778Z" fill="#E55CA1"/>
<path d="M561.778 29.0005C561.778 44.8938 548.893 57.7778 533 57.7778C517.106 57.7776 504.222 44.8936 504.222 29.0005C504.222 13.107 517.107 0.223145 533 0.223145L561.778 0.223145V29.0005ZM533 1.77783C517.966 1.77783 505.777 13.9661 505.777 29.0005C505.777 44.0345 517.965 56.2229 533 56.2231C548.034 56.2231 560.223 44.0347 560.223 29.0005V1.77783L533 1.77783Z" fill="#E55CA1"/>
<path d="M589 7.22266C576.972 7.22266 567.223 16.9725 567.223 29C567.223 41.0275 576.972 50.7773 589 50.7773C601.028 50.7773 610.777 41.0275 610.777 29L617 29C617 34.5378 615.358 39.9511 612.281 44.5557C609.205 49.1602 604.831 52.7489 599.715 54.8682C594.599 56.9874 588.969 57.5423 583.537 56.4619C578.106 55.3815 573.117 52.7146 569.201 48.7988C565.285 44.883 562.619 39.8942 561.538 34.4629C560.458 29.0315 561.013 23.4015 563.132 18.2852C565.251 13.1688 568.84 8.79542 573.444 5.71875C578.049 2.64218 583.462 0.999998 589 1V7.22266Z" fill="#E55CA1"/>
<path d="M673 29C673 23.4621 671.358 18.0486 668.281 13.444C665.204 8.83945 660.831 5.25062 655.715 3.13137C650.599 1.01212 644.969 0.457626 639.537 1.53802C634.106 2.6184 629.117 5.28515 625.201 9.20102C621.285 13.1169 618.618 18.106 617.538 23.5375C616.458 28.969 617.012 34.5988 619.131 39.7152C621.251 44.8315 624.839 49.2045 629.444 52.2812C634.049 55.3578 639.462 57 645 57L645 29H673Z" stroke="#E55CA1" stroke-width="1.55556"/>
<path d="M505 81.8887C505 68.1431 516.143 57.0001 529.889 57L561 57L561 113L505 113L505 81.8887ZM511.223 85C511.223 97.0275 520.972 106.777 533 106.777C545.028 106.777 554.777 97.0275 554.777 85C554.777 72.9725 545.028 63.2227 533 63.2227C520.972 63.2227 511.223 72.9725 511.223 85Z" fill="#E55CA1"/>
<path d="M603 57C610.732 57 617 63.268 617 71V99C617 106.732 610.732 113 603 113H575C567.268 113 561 106.732 561 99V71C561 63.268 567.268 57 575 57L603 57ZM570.729 66.75V103.5H576.634L602.75 71.1602V103.5H607.259V66.75H601.256L575.237 98.9678V66.75H570.729Z" fill="#E55CA1"/>
<path d="M665.066 93.4756C670.149 98.6991 673 105.702 673 113H617C617 105.702 619.85 98.699 624.933 93.4756C628.238 101.293 635.979 106.777 645 106.777C654.021 106.777 661.761 101.293 665.066 93.4756ZM673 57C673 64.298 670.149 71.3 665.066 76.5234C661.76 68.7069 654.021 63.2227 645 63.2227C635.979 63.2227 628.239 68.7067 624.933 76.5234C619.851 71.3001 617 64.2977 617 57H673Z" fill="#E55CA1"/>
<path d="M533 112.223C540.633 112.223 547.952 115.255 553.349 120.652C558.746 126.049 561.778 133.368 561.778 141V141.778H542.327C546.438 143.187 550.218 145.52 553.349 148.652C558.746 154.049 561.778 161.368 561.778 169V169.778H504.222V169C504.222 161.368 507.255 154.049 512.652 148.652C515.783 145.52 519.563 143.187 523.674 141.778H504.222V141C504.222 133.368 507.255 126.049 512.652 120.652C518.049 115.255 525.368 112.223 533 112.223ZM533 141.778C525.781 141.778 518.857 144.646 513.751 149.751C508.83 154.673 505.989 161.285 505.791 168.223H560.21C560.012 161.286 557.171 154.673 552.25 149.751C547.144 144.646 540.22 141.778 533 141.778ZM533 113.778C525.781 113.778 518.857 116.646 513.751 121.751C508.83 126.673 505.989 133.285 505.791 140.223H560.21C560.012 133.286 557.171 126.673 552.25 121.751C547.144 116.646 540.22 113.778 533 113.778Z" fill="#E55CA1"/>
<path d="M617 141C617 156.464 604.464 169 589 169C573.536 169 561 156.464 561 141C561 125.536 573.536 113 589 113L617 113V141ZM589 119.223C576.972 119.223 567.223 128.972 567.223 141C567.223 153.028 576.972 162.777 589 162.777C601.028 162.777 610.777 153.028 610.777 141C610.777 128.972 601.028 119.223 589 119.223Z" fill="#E55CA1"/>
<path d="M645 141C645 133.574 642.05 126.452 636.799 121.201C631.548 115.95 624.426 113 617 113L617 169C624.426 169 631.548 166.05 636.799 160.799C642.05 155.548 645 148.426 645 141ZM645 141L645 169C652.426 169 659.548 166.05 664.799 160.799C670.05 155.548 673 148.426 673 141C673 133.574 670.05 126.452 664.799 121.201C659.548 115.95 652.426 113 645 113L645 141Z" stroke="#E55CA1" stroke-width="1.55556"/>
<path d="M701 57.7778C708.633 57.7777 715.952 54.7459 721.349 49.3491C726.746 43.9524 729.778 36.6327 729.778 29.0005V28.2231H710.327C714.438 26.8144 718.218 24.4806 721.349 21.3491C726.746 15.9524 729.778 8.63265 729.778 1.00049V0.223145H672.222V1.00049C672.222 8.63265 675.255 15.9524 680.652 21.3491C683.783 24.4804 687.563 26.8145 691.674 28.2231H672.222V29.0005C672.222 36.6327 675.255 43.9524 680.652 49.3491C686.049 54.7457 693.368 57.7778 701 57.7778ZM701 28.2231C693.781 28.2231 686.857 25.3544 681.751 20.2495C676.83 15.328 673.989 8.71551 673.791 1.77783H728.21C728.012 8.71552 725.171 15.328 720.25 20.2495C715.144 25.3546 708.22 28.223 701 28.2231ZM701 56.2231C693.781 56.2231 686.857 53.3544 681.751 48.2495C676.83 43.328 673.989 36.7155 673.791 29.7778L728.21 29.7778C728.012 36.7155 725.171 43.328 720.25 48.2495C715.144 53.3546 708.22 56.223 701 56.2231Z" fill="#E55CA1"/>
<path d="M777.066 20.5244C782.149 15.3009 785 8.29821 785 1H729C729 8.29798 731.85 15.301 736.933 20.5244C740.238 12.7073 747.979 7.22266 757 7.22266C766.021 7.22266 773.761 12.7074 777.066 20.5244ZM757 57C764.426 57 771.548 54.0498 776.799 48.7988C782.05 43.5478 785 36.4261 785 29H778.777C778.777 41.0275 769.028 50.7773 757 50.7773C744.972 50.7773 735.223 41.0275 735.223 29H729C729 36.4261 731.95 43.5478 737.201 48.7988C742.452 54.0498 749.574 57 757 57Z" fill="#E55CA1"/>
<path d="M813 1V1.77778C828.034 1.77778 840.222 13.9656 840.222 29L841 29H841.778C841.778 13.1065 828.894 0.222222 813 0.222222V1ZM841 29L840.222 29C840.222 44.0344 828.034 56.2222 813 56.2222V57V57.7778C828.894 57.7778 841.778 44.8935 841.778 29H841ZM813 57V56.2222C797.966 56.2222 785.778 44.0344 785.778 29H785H784.222C784.222 44.8935 797.106 57.7778 813 57.7778V57ZM785 29H785.778C785.778 13.9656 797.966 1.77778 813 1.77778V1V0.222222C797.106 0.222222 784.222 13.1065 784.222 29H785Z" fill="#E55CA1"/>
<path d="M673 57C680.298 57 687.3 59.8507 692.523 64.9326C684.707 68.2385 679.223 75.9791 679.223 85C679.223 94.0208 684.707 101.76 692.523 105.066C687.3 110.149 680.298 113 673 113V57ZM729 113C721.702 113 714.699 110.149 709.476 105.066C717.293 101.761 722.777 94.0211 722.777 85C722.777 75.9788 717.293 68.2383 709.476 64.9326C714.699 59.8504 721.702 57 729 57V113Z" fill="#E55CA1"/>
<path d="M771 57C778.732 57 785 63.268 785 71V99C785 106.732 778.732 113 771 113H743C735.268 113 729 106.732 729 99V71C729 63.268 735.268 57 743 57H771ZM757.236 66.1133C753.218 66.1133 749.673 66.913 746.603 68.5137C743.532 70.0979 741.148 72.3358 739.449 75.2266C737.751 78.1012 736.901 81.401 736.901 85.125C736.901 88.849 737.751 92.1569 739.449 95.0479C741.148 97.9223 743.532 100.16 746.603 101.761C749.673 103.345 753.218 104.137 757.236 104.137C760.764 104.137 763.941 103.517 766.767 102.275C769.592 101.034 771.87 99.3023 773.602 97.0811C775.333 94.8434 776.363 92.2706 776.689 89.3633H772.01C771.634 91.5356 770.785 93.4228 769.462 95.0234C768.155 96.6077 766.448 97.8326 764.341 98.6982C762.234 99.5475 759.841 99.9717 757.162 99.9717C754.026 99.9716 751.283 99.3677 748.931 98.1592C746.595 96.9342 744.79 95.2025 743.516 92.9648C742.242 90.7272 741.605 88.1139 741.605 85.125C741.605 82.1361 742.242 79.5228 743.516 77.2852C744.79 75.0475 746.595 73.3239 748.931 72.1152C751.283 70.8904 754.026 70.2784 757.162 70.2783C759.841 70.2783 762.234 70.7106 764.341 71.5762C766.448 72.4418 768.155 73.6757 769.462 75.2764C770.785 76.8606 771.634 78.7309 772.01 80.8867H776.689C776.363 77.9794 775.333 75.4147 773.602 73.1934C771.87 70.9558 769.592 69.2159 766.767 67.9746C763.941 66.7333 760.764 66.1133 757.236 66.1133Z" fill="#E55CA1"/>
<path d="M841 85C841 100.464 828.464 113 813 113C797.536 113 785 100.464 785 85C785 69.536 797.536 57 813 57H841V85ZM813 63.2227C800.972 63.2227 791.223 72.9725 791.223 85C791.223 97.0275 800.972 106.777 813 106.777C825.028 106.777 834.777 97.0275 834.777 85C834.777 72.9725 825.028 63.2227 813 63.2227Z" fill="#E55CA1"/>
<path d="M701 169C706.538 169 711.951 167.358 716.556 164.281C721.161 161.204 724.749 156.831 726.869 151.715C728.988 146.599 729.542 140.969 728.462 135.537C727.382 130.106 724.715 125.117 720.799 121.201C716.883 117.285 711.894 114.618 706.463 113.538C701.031 112.458 695.401 113.012 690.285 115.131C685.169 117.251 680.796 120.839 677.719 125.444C674.642 130.049 673 135.462 673 141L701 141L701 169Z" stroke="#E55CA1" stroke-width="1.55556"/>
<path d="M746.285 166.869C751.401 168.988 757.032 169.542 762.463 168.462C767.894 167.381 772.883 164.715 776.799 160.799C780.715 156.883 783.382 151.894 784.462 146.463C785.542 141.031 784.987 135.401 782.868 130.285C780.749 125.169 777.16 120.795 772.556 117.719C767.951 114.642 762.538 113 757 113V119.223C769.028 119.223 778.777 128.972 778.777 141C778.777 153.028 769.028 162.777 757 162.777C744.972 162.777 735.223 153.028 735.223 141H729C729 146.538 730.642 151.951 733.719 156.556C736.795 161.16 741.169 164.75 746.285 166.869Z" fill="#E55CA1"/>
<path d="M813 141C813 148.426 815.95 155.548 821.201 160.799C826.452 166.05 833.574 169 841 169L841 113C833.574 113 826.452 115.95 821.201 121.201C815.95 126.452 813 133.574 813 141ZM813 141L813 113C805.574 113 798.452 115.95 793.201 121.201C787.95 126.452 785 133.574 785 141C785 148.426 787.95 155.548 793.201 160.799C798.452 166.05 805.574 169 813 169L813 141Z" stroke="#E55CA1" stroke-width="1.55556"/>
</svg>
