<svg width="256" height="256" viewBox="0 0 256 256" fill="none" xmlns="http://www.w3.org/2000/svg">
<rect width="256" height="256" fill="#242322"/>
<path fill-rule="evenodd" clip-rule="evenodd" d="M200 80.2212C200 92.2293 191.262 102.196 179.797 104.111C191.262 106.025 200 115.992 200 128C200 140.008 191.262 149.975 179.797 151.889C191.262 153.804 200 163.771 200 175.779C200 189.156 189.156 200 175.779 200C163.771 200 153.804 191.262 151.889 179.797C149.975 191.262 140.008 200 128 200C115.992 200 106.025 191.262 104.111 179.797C102.196 191.262 92.2293 200 80.2212 200C66.8442 200 56 189.156 56 175.779C56 163.771 64.7383 153.804 76.2028 151.889C64.7383 149.975 56 140.008 56 128C56 115.992 64.7383 106.025 76.2028 104.111C64.7383 102.196 56 92.2293 56 80.2212C56 66.8442 66.8442 56 80.2212 56C92.2293 56 102.196 64.7383 104.111 76.2028C106.025 64.7383 115.992 56 128 56C140.008 56 149.975 64.7383 151.889 76.2028C153.804 64.7383 163.771 56 175.779 56C189.156 56 200 66.8442 200 80.2212ZM104.111 84.2396C102.414 94.3972 94.3972 102.414 84.2396 104.111C94.3972 105.807 102.414 113.824 104.111 123.982C105.807 113.824 113.824 105.807 123.982 104.111C113.824 102.414 105.807 94.3972 104.111 84.2396ZM132.018 104.111C142.176 102.414 150.193 94.3972 151.889 84.2396C153.586 94.3972 161.603 102.414 171.761 104.111C161.603 105.807 153.586 113.824 151.889 123.982C150.193 113.824 142.176 105.807 132.018 104.111ZM151.889 171.761C153.586 161.603 161.603 153.586 171.761 151.889C161.603 150.193 153.586 142.176 151.889 132.018C150.193 142.176 142.176 150.193 132.018 151.889C142.176 153.586 150.193 161.603 151.889 171.761ZM104.111 132.018C105.807 142.176 113.824 150.193 123.982 151.889C113.824 153.586 105.807 161.603 104.111 171.761C102.414 161.603 94.3972 153.586 84.2396 151.889C94.3972 150.193 102.414 142.176 104.111 132.018Z" fill="#7588FF"/>
</svg>
