<svg width="200" height="200" viewBox="0 0 200 200" fill="none" xmlns="http://www.w3.org/2000/svg">
<rect width="200" height="200" fill="#F5F3F0"/>
<path fill-rule="evenodd" clip-rule="evenodd" d="M136.091 76.0511C136.091 82.0702 131.711 87.0661 125.964 88.0257C131.711 88.9854 136.091 93.9815 136.091 100C136.091 106.019 131.711 111.015 125.964 111.975C131.711 112.935 136.091 117.931 136.091 123.95C136.091 130.655 130.655 136.091 123.95 136.091C117.931 136.091 112.935 131.711 111.975 125.964C111.015 131.711 106.019 136.091 100 136.091C93.9815 136.091 88.9854 131.711 88.0257 125.964C87.0661 131.711 82.0702 136.091 76.0511 136.091C69.3458 136.091 63.9102 130.655 63.9102 123.95C63.9102 117.931 68.2902 112.935 74.0369 111.975C68.2902 111.015 63.9102 106.019 63.9102 100C63.9102 93.9815 68.2902 88.9854 74.0369 88.0257C68.2902 87.0661 63.9102 82.0702 63.9102 76.0511C63.9102 69.3458 69.3458 63.9102 76.0511 63.9102C82.0702 63.9102 87.0661 68.2902 88.0257 74.0369C88.9854 68.2902 93.9815 63.9102 100 63.9102C106.019 63.9102 111.015 68.2902 111.975 74.0369C112.935 68.2902 117.931 63.9102 123.95 63.9102C130.655 63.9102 136.091 69.3458 136.091 76.0511ZM88.0257 78.0653C87.1755 83.1569 83.1569 87.1755 78.0653 88.0257C83.1569 88.8759 87.1755 92.8948 88.0257 97.9863C88.8759 92.8948 92.8948 88.8759 97.9863 88.0257C92.8948 87.1755 88.8759 83.1569 88.0257 78.0653ZM102.014 88.0257C107.106 87.1755 111.125 83.1569 111.975 78.0653C112.825 83.1569 116.844 87.1755 121.936 88.0257C116.844 88.8759 112.825 92.8948 111.975 97.9863C111.125 92.8948 107.106 88.8759 102.014 88.0257ZM111.975 121.936C112.825 116.844 116.844 112.825 121.936 111.975C116.844 111.125 112.825 107.106 111.975 102.014C111.125 107.106 107.106 111.125 102.014 111.975C107.106 112.825 111.125 116.844 111.975 121.936ZM88.0257 102.014C88.8759 107.106 92.8948 111.125 97.9863 111.975C92.8948 112.825 88.8759 116.844 88.0257 121.936C87.1755 116.844 83.1569 112.825 78.0653 111.975C83.1569 111.125 87.1755 107.106 88.0257 102.014Z" fill="#D6D3CB"/>
</svg>
