<svg width="266" height="266" viewBox="0 0 266 266" fill="none" xmlns="http://www.w3.org/2000/svg">
<rect width="266" height="266" fill="#F5F3F0"/>
<path fill-rule="evenodd" clip-rule="evenodd" d="M205 85.2212C205 97.2293 196.262 107.196 184.797 109.111C196.262 111.025 205 120.992 205 133C205 145.008 196.262 154.975 184.797 156.889C196.262 158.804 205 168.771 205 180.779C205 194.156 194.156 205 180.779 205C168.771 205 158.804 196.262 156.889 184.797C154.975 196.262 145.008 205 133 205C120.992 205 111.025 196.262 109.111 184.797C107.196 196.262 97.2293 205 85.2212 205C71.8442 205 61 194.156 61 180.779C61 168.771 69.7383 158.804 81.2028 156.889C69.7383 154.975 61 145.008 61 133C61 120.992 69.7383 111.025 81.2028 109.111C69.7383 107.196 61 97.2293 61 85.2212C61 71.8442 71.8442 61 85.2212 61C97.2293 61 107.196 69.7383 109.111 81.2028C111.025 69.7383 120.992 61 133 61C145.008 61 154.975 69.7383 156.889 81.2028C158.804 69.7383 168.771 61 180.779 61C194.156 61 205 71.8442 205 85.2212ZM109.111 89.2396C107.414 99.3972 99.3972 107.414 89.2396 109.111C99.3972 110.807 107.414 118.824 109.111 128.982C110.807 118.824 118.824 110.807 128.982 109.111C118.824 107.414 110.807 99.3972 109.111 89.2396ZM137.018 109.111C147.176 107.414 155.193 99.3972 156.889 89.2396C158.586 99.3972 166.603 107.414 176.761 109.111C166.603 110.807 158.586 118.824 156.889 128.982C155.193 118.824 147.176 110.807 137.018 109.111ZM156.889 176.761C158.586 166.603 166.603 158.586 176.761 156.889C166.603 155.193 158.586 147.176 156.889 137.018C155.193 147.176 147.176 155.193 137.018 156.889C147.176 158.586 155.193 166.603 156.889 176.761ZM109.111 137.018C110.807 147.176 118.824 155.193 128.982 156.889C118.824 158.586 110.807 166.603 109.111 176.761C107.414 166.603 99.3972 158.586 89.2396 156.889C99.3972 155.193 107.414 147.176 109.111 137.018Z" fill="#7588FF"/>
</svg>
