<svg width="200" height="200" viewBox="0 0 200 200" fill="none" xmlns="http://www.w3.org/2000/svg">
<rect width="200" height="200" fill="#2E2C28"/>
<path fill-rule="evenodd" clip-rule="evenodd" d="M145.113 70.0639C145.113 77.5877 139.638 83.8326 132.454 85.0322C139.638 86.2317 145.113 92.4768 145.113 100C145.113 107.524 139.638 113.769 132.454 114.969C139.638 116.168 145.113 122.413 145.113 129.937C145.113 138.318 138.318 145.113 129.937 145.113C122.413 145.113 116.168 139.638 114.968 132.455C113.769 139.638 107.524 145.113 100 145.113C92.4763 145.113 86.2312 139.638 85.0317 132.455C83.8321 139.638 77.5873 145.113 70.0634 145.113C61.6818 145.113 54.8872 138.318 54.8872 129.937C54.8872 122.413 60.3623 116.168 67.5456 114.969C60.3623 113.769 54.8872 107.524 54.8872 100C54.8872 92.4768 60.3623 86.2317 67.5456 85.0322C60.3623 83.8326 54.8872 77.5877 54.8872 70.0639C54.8872 61.6823 61.6818 54.8877 70.0634 54.8877C77.5873 54.8877 83.8321 60.3628 85.0317 67.5461C86.2312 60.3628 92.4763 54.8877 100 54.8877C107.524 54.8877 113.769 60.3628 114.968 67.5461C116.168 60.3628 122.413 54.8877 129.937 54.8877C138.318 54.8877 145.113 61.6823 145.113 70.0639ZM85.0317 72.5817C83.9689 78.9461 78.9456 83.9694 72.5812 85.0322C78.9456 86.0949 83.9689 91.1185 85.0317 97.4829C86.0944 91.1185 91.118 86.0949 97.4824 85.0322C91.118 83.9694 86.0944 78.9461 85.0317 72.5817ZM102.518 85.0322C108.882 83.9694 113.906 78.9461 114.968 72.5817C116.031 78.9461 121.055 83.9694 127.419 85.0322C121.055 86.0949 116.031 91.1185 114.968 97.4829C113.906 91.1185 108.882 86.0949 102.518 85.0322ZM114.968 127.419C116.031 121.055 121.055 116.032 127.419 114.969C121.055 113.906 116.031 108.882 114.968 102.518C113.906 108.882 108.882 113.906 102.518 114.969C108.882 116.032 113.906 121.055 114.968 127.419ZM85.0317 102.518C86.0944 108.882 91.118 113.906 97.4824 114.969C91.118 116.032 86.0944 121.055 85.0317 127.419C83.9689 121.055 78.9456 116.032 72.5812 114.969C78.9456 113.906 83.9689 108.882 85.0317 102.518Z" fill="#7A7873"/>
</svg>
