<svg width="200" height="200" viewBox="0 0 200 200" fill="none" xmlns="http://www.w3.org/2000/svg">
<path d="M89.0265 44.8311C99.9377 42.6607 111.247 43.774 121.526 48.0312C131.804 52.2887 140.59 59.4988 146.771 68.749C152.951 77.9992 156.25 88.8749 156.25 100H140.623C140.623 77.5634 122.435 59.375 99.9982 59.375C77.5618 59.3752 59.3732 77.5636 59.3732 100C59.3732 122.436 77.5618 140.625 99.9982 140.625L100 140.624V156.25C88.875 156.25 77.9994 152.951 68.7491 146.771C59.4989 140.59 52.2888 131.804 48.0314 121.525C43.7742 111.247 42.6609 99.9375 44.8312 89.0264C47.0016 78.1149 52.359 68.0923 60.2257 60.2256C68.0924 52.3589 78.1151 47.0015 89.0265 44.8311ZM99.9982 99.9951H124.998C124.998 104.94 123.532 109.774 120.785 113.885C118.038 117.996 114.134 121.201 109.566 123.093C104.997 124.985 99.9707 125.479 95.1212 124.515C90.2718 123.55 85.8167 121.169 82.3204 117.673C78.8244 114.177 76.4433 109.722 75.4786 104.873C74.514 100.024 75.0094 94.9968 76.9015 90.4287C78.7937 85.8606 81.9983 81.956 86.1095 79.209C90.2206 76.462 95.0538 74.9952 99.9982 74.9951V99.9951Z" fill="#2E2C28"/>
</svg>
