<svg width="266" height="266" viewBox="0 0 266 266" fill="none" xmlns="http://www.w3.org/2000/svg">
<rect width="266" height="266" fill="#F5F3F0"/>
<path fill-rule="evenodd" clip-rule="evenodd" d="M129.4 81.5723H145.021V115.369H129.4C117.4 115.369 109.202 121.858 109.202 133.001C109.202 144.144 117.4 150.632 129.4 150.632H145.021V184.429H129.4C103.361 184.429 79 163.001 79 133.001C79 103.001 103.361 81.5723 129.4 81.5723Z" fill="#E04728"/>
<path d="M145.021 115.369H172.6V81.5723H145.021M145.021 115.369H129.4C117.4 115.369 109.202 121.858 109.202 133.001C109.202 144.144 117.4 150.632 129.4 150.632H145.021M145.021 115.369V81.5723M145.021 81.5723H129.4C103.361 81.5723 79 103.001 79 133.001C79 163.001 103.361 184.429 129.4 184.429H145.021M145.021 150.632H172.6V184.429H145.021M145.021 150.632V184.429" stroke="#E04728"/>
</svg>
