<svg width="256" height="256" viewBox="0 0 256 256" fill="none" xmlns="http://www.w3.org/2000/svg">
<rect width="256" height="256" fill="#242322"/>
<path fill-rule="evenodd" clip-rule="evenodd" d="M124.4 76.5723H140.021V110.369H124.4C112.4 110.369 104.202 116.858 104.202 128.001C104.202 139.144 112.4 145.632 124.4 145.632H140.021V179.429H124.4C98.3605 179.429 74 158.001 74 128.001C74 98.0008 98.3605 76.5723 124.4 76.5723Z" fill="#E04728"/>
<path d="M140.021 110.369H167.6V76.5723H140.021M140.021 110.369H124.4C112.4 110.369 104.202 116.858 104.202 128.001C104.202 139.144 112.4 145.632 124.4 145.632H140.021M140.021 110.369V76.5723M140.021 76.5723H124.4C98.3605 76.5723 74 98.0008 74 128.001C74 158.001 98.3605 179.429 124.4 179.429H140.021M140.021 145.632H167.6V179.429H140.021M140.021 145.632V179.429" stroke="#E04728"/>
</svg>
