<svg width="200" height="200" viewBox="0 0 200 200" fill="none" xmlns="http://www.w3.org/2000/svg">
<rect width="200" height="200" fill="#1A1618"/>
<path fill-rule="evenodd" clip-rule="evenodd" d="M97.2929 61.332H109.039V86.7434H97.2929C88.2703 86.7434 82.107 91.622 82.107 100C82.107 108.378 88.2703 113.257 97.2929 113.257H109.039V138.668H97.2929C77.7146 138.668 59.3984 122.557 59.3984 100C59.3984 77.4437 77.7146 61.332 97.2929 61.332Z" fill="#82416C"/>
<path d="M109.039 86.7434H129.774V61.332H109.039M109.039 86.7434H97.2929C88.2703 86.7434 82.107 91.622 82.107 100C82.107 108.378 88.2703 113.257 97.2929 113.257H109.039M109.039 86.7434V61.332M109.039 61.332H97.2929C77.7146 61.332 59.3984 77.4437 59.3984 100C59.3984 122.557 77.7146 138.668 97.2929 138.668H109.039M109.039 113.257H129.774V138.668H109.039M109.039 113.257V138.668" stroke="#82416C" stroke-width="0.75188"/>
</svg>
