<svg width="200" height="200" viewBox="0 0 200 200" fill="none" xmlns="http://www.w3.org/2000/svg">
<rect width="200" height="200" fill="#2E2C28"/>
<path fill-rule="evenodd" clip-rule="evenodd" d="M97.2924 61.332H109.038V86.7434H97.2924C88.2698 86.7434 82.1065 91.622 82.1065 100C82.1065 108.378 88.2698 113.257 97.2924 113.257H109.038V138.668H97.2924C77.7141 138.668 59.3979 122.557 59.3979 100C59.3979 77.4437 77.7141 61.332 97.2924 61.332Z" fill="#7A7873"/>
<path d="M109.038 86.7434H129.774V61.332H109.038M109.038 86.7434H97.2924C88.2698 86.7434 82.1065 91.622 82.1065 100C82.1065 108.378 88.2698 113.257 97.2924 113.257H109.038M109.038 86.7434V61.332M109.038 61.332H97.2924C77.7141 61.332 59.3979 77.4437 59.3979 100C59.3979 122.557 77.7141 138.668 97.2924 138.668H109.038M109.038 113.257H129.774V138.668H109.038M109.038 113.257V138.668" stroke="#7A7873" stroke-width="0.75188"/>
</svg>
