<svg width="64" height="65" viewBox="0 0 64 65" fill="none" xmlns="http://www.w3.org/2000/svg">
<path d="M0 64.0898C7.41951e-07 55.6029 3.37142 47.4636 9.37258 41.4624C15.3737 35.4613 23.5131 32.0898 32 32.0898C40.4869 32.0898 48.6262 35.4613 54.6274 41.4624C60.6286 47.4636 64 55.6029 64 64.0898L0 64.0898Z" fill="#E65CA1"/>
<path d="M64 0.0898438C64 8.57677 60.6286 16.7161 54.6274 22.7173C48.6263 28.7184 40.4869 32.0898 32 32.0898C23.5131 32.0898 15.3738 28.7184 9.37259 22.7173C3.37142 16.7161 2.56298e-06 8.57678 0 0.0898573L64 0.0898438Z" fill="#E65CA1"/>
</svg>
