<svg width="160" height="161" viewBox="0 0 160 161" fill="none" xmlns="http://www.w3.org/2000/svg">
<path d="M26.0552 26.9846C26.4115 26.6283 27.035 26.3611 27.6585 26.272C28.282 26.1829 28.8165 26.361 29.4401 26.4501C30.6871 26.8064 31.6669 27.2518 32.2905 28.2317C33.0921 29.3896 33.1812 30.7258 34.4283 31.6165C36.5661 33.0417 39.3274 30.2804 41.9106 31.9728C43.0686 32.7745 43.9594 34.0216 44.8501 35.0905C46.5425 37.3173 48.5913 39.3661 50.64 41.2367C52.2434 42.6619 53.8467 43.909 55.0938 45.6905C55.8955 46.8484 56.2518 48.0955 56.9644 49.3426C58.0333 51.3022 59.4585 53.0837 60.8837 54.8652C62.5761 56.914 64.2686 60.3879 67.119 61.1005C67.7425 61.1896 68.366 61.2786 68.9896 61.5459C70.3257 61.9912 71.2164 63.2383 72.3744 63.8619C73.5324 64.4854 74.8686 64.7526 76.0266 65.3762C78.2534 66.5341 77.6299 70.7206 75.1358 69.6517C74.5123 69.3845 74.1559 68.8501 73.7996 68.3156C72.2854 66.6232 69.8803 66.356 67.8316 65.5543C63.7341 63.951 60.5274 60.7442 56.6972 58.5173C56.3409 58.3392 55.7173 58.072 55.4501 58.5173C59.2803 61.8131 63.1997 65.0198 67.0299 68.3156C67.8316 68.9392 68.5442 69.6518 69.0786 70.3644C69.6131 71.2551 69.8803 72.2349 69.524 73.1257C69.1677 74.0164 68.0988 74.7291 67.2081 74.3728C66.1392 74.0165 65.6938 72.6803 64.9812 71.6114C64.1795 70.4535 62.7543 69.919 61.5073 69.2064C59.1913 67.9593 57.5879 65.9997 55.4501 64.5745C53.1341 62.9711 50.7291 61.4568 48.7694 59.319C47.5224 58.0719 46.3644 56.5576 45.0283 55.3997C43.6031 53.9745 41.9997 52.9056 40.3964 51.6585C36.5661 48.719 33.2703 45.0669 29.9745 41.593C28.8165 40.435 27.6586 38.5644 28.7275 37.3173C29.351 36.5157 30.6871 36.0703 30.598 35.0905C30.4199 34.556 29.9745 34.2888 29.5291 34.0216C27.8367 33.2199 25.6989 32.3291 25.2535 30.2804C24.8081 29.3006 25.1644 27.8753 26.0552 26.9846Z" fill="#E65CA1"/>
<path d="M133.946 134.054C133.59 134.41 132.966 134.677 132.343 134.766C131.719 134.856 131.185 134.677 130.561 134.588C129.314 134.232 128.335 133.787 127.711 132.807C126.909 131.649 126.82 130.313 125.573 129.422C123.435 127.997 120.674 130.758 118.091 129.066C116.933 128.264 116.042 127.017 115.151 125.948C113.459 123.721 111.41 121.672 109.361 119.802C107.758 118.377 106.155 117.129 104.908 115.348C104.106 114.19 103.75 112.943 103.037 111.696C101.968 109.736 100.543 107.955 99.1178 106.173C97.4253 104.124 95.7329 100.651 92.8825 99.9379C92.2589 99.8488 91.6354 99.7598 91.0119 99.4926C89.6758 99.0472 88.785 97.8001 87.627 97.1766C86.469 96.553 85.1329 96.2858 83.9749 95.6623C81.748 94.5043 82.3716 90.3178 84.8657 91.3867C85.4892 91.6539 85.8455 92.1884 86.2018 92.7228C87.7161 94.4153 90.1211 94.6824 92.1699 95.4841C96.2673 97.0875 99.4741 100.294 103.304 102.521C103.661 102.699 104.284 102.966 104.551 102.521C100.721 99.2253 96.8018 96.0186 92.9716 92.7228C92.1699 92.0993 91.4573 91.3867 90.9228 90.6741C90.3884 89.7833 90.1212 88.8035 90.4775 87.9128C90.8338 87.022 91.9026 86.3094 92.7934 86.6657C93.8623 87.022 94.3077 88.3581 95.0203 89.427C95.822 90.585 97.2471 91.1194 98.4942 91.832C100.81 93.0791 102.414 95.0387 104.551 96.464C106.867 98.0673 109.272 99.5816 111.232 101.719C112.479 102.966 113.637 104.481 114.973 105.639C116.398 107.064 118.002 108.133 119.605 109.38C123.435 112.319 126.731 115.972 130.027 119.445C131.185 120.603 132.343 122.474 131.274 123.721C130.65 124.523 129.314 124.968 129.403 125.948C129.582 126.482 130.027 126.75 130.472 127.017C132.165 127.819 134.303 128.709 134.748 130.758C135.193 131.738 134.837 133.163 133.946 134.054Z" fill="#E65CA1"/>
<path d="M4 80.8097C4 80.3058 4.25194 79.6759 4.62986 79.1721C5.00777 78.6682 5.51167 78.4162 6.01556 78.0383C7.1493 77.4084 8.15708 77.0305 9.29083 77.2825C10.6765 77.5344 11.6843 78.4162 13.196 78.1643C15.7154 77.6604 15.7154 73.7552 18.7387 73.1254C20.1244 72.8734 21.6361 73.1254 23.0217 73.2514C25.7931 73.6293 28.6905 73.6293 31.4619 73.5033C33.6034 73.3774 35.6189 73.1254 37.7605 73.5033C39.1462 73.7553 40.2799 74.3851 41.6656 74.763C43.8071 75.3929 46.0746 75.6448 48.3421 75.8968C50.9875 76.1487 54.6407 77.4084 57.1601 75.8968C57.664 75.5189 58.1679 75.1409 58.7977 74.889C60.0575 74.2591 61.5691 74.5111 62.8288 74.1332C64.0886 73.7553 65.2223 72.9994 66.4821 72.6215C68.8755 71.8657 71.3949 75.2669 68.8755 76.2747C68.2456 76.5266 67.6158 76.4007 66.9859 76.2747C64.7184 76.1487 62.8289 77.6604 60.8133 78.5422C56.7822 80.3058 52.2472 80.3058 47.9642 81.4395C47.5863 81.5655 46.9564 81.8175 47.0824 82.3214C52.1212 81.9434 57.1601 81.4396 62.199 81.0616C63.2068 80.9357 64.2145 80.9357 65.0963 81.0616C66.1041 81.3136 66.9859 81.8174 67.3638 82.6992C67.7417 83.581 67.4898 84.8408 66.608 85.2187C65.6002 85.7226 64.3405 85.0927 63.0808 84.8408C61.6951 84.5888 60.3094 85.2187 58.9237 85.5966C56.4043 86.3524 53.8849 86.1005 51.3654 86.6044C48.5941 87.1083 45.8227 87.7381 42.9253 87.6121C41.1617 87.6121 39.2721 87.3602 37.5085 87.4862C35.493 87.4862 33.6034 87.8641 31.5879 88.116C26.8009 88.7459 21.888 88.494 17.1011 88.368C15.4635 88.368 13.3219 87.8641 13.196 86.2264C13.07 85.2187 13.6998 83.959 12.944 83.3291C12.4401 83.0772 11.9363 83.2031 11.4324 83.3291C9.66876 83.959 7.52724 84.8408 5.76364 83.707C4.75586 83.3291 4 82.0694 4 80.8097Z" fill="#E65CA1"/>
<path d="M156 80.2287C156 80.7325 155.748 81.3624 155.37 81.8663C154.992 82.3702 154.488 82.6221 153.984 83.0001C152.851 83.6299 151.843 84.0078 150.709 83.7559C149.323 83.5039 148.316 82.6221 146.804 82.8741C144.285 83.378 144.285 87.2831 141.261 87.9129C139.876 88.1649 138.364 87.9129 136.978 87.787C134.207 87.4091 131.31 87.409 128.538 87.535C126.397 87.661 124.381 87.9129 122.24 87.535C120.854 87.2831 119.72 86.6532 118.334 86.2753C116.193 85.6454 113.925 85.3935 111.658 85.1415C109.013 84.8896 105.359 83.6299 102.84 85.1415C102.336 85.5195 101.832 85.8974 101.202 86.1494C99.9426 86.7792 98.4309 86.5272 97.1712 86.9052C95.9114 87.2831 94.7777 88.0389 93.518 88.4168C91.1245 89.1727 88.6051 85.7714 91.1245 84.7636C91.7544 84.5117 92.3842 84.6377 93.0141 84.7636C95.2816 84.8896 97.1711 83.3779 99.1867 82.4961C103.218 80.7325 107.753 80.7325 112.036 79.5988C112.414 79.4728 113.044 79.2209 112.918 78.717C107.879 79.0949 102.84 79.5988 97.801 79.9767C96.7932 80.1027 95.7855 80.1027 94.9037 79.9767C93.8959 79.7248 93.0141 79.2209 92.6362 78.3391C92.2583 77.4573 92.5102 76.1976 93.392 75.8196C94.3998 75.3158 95.6595 75.9456 96.9192 76.1975C98.3049 76.4495 99.6906 75.8197 101.076 75.4417C103.596 74.6859 106.115 74.9378 108.635 74.434C111.406 73.9301 114.177 73.3002 117.075 73.4262C118.838 73.4262 120.728 73.6781 122.492 73.5522C124.507 73.5522 126.397 73.1743 128.412 72.9223C133.199 72.2925 138.112 72.5444 142.899 72.6703C144.537 72.6703 146.678 73.1743 146.804 74.8119C146.93 75.8197 146.3 77.0794 147.056 77.7092C147.56 77.9612 148.064 77.8352 148.568 77.7092C150.331 77.0794 152.473 76.1976 154.236 77.3313C155.244 77.7092 156 78.9689 156 80.2287Z" fill="#E65CA1"/>
<path d="M133.976 26.9533C133.62 26.597 132.996 26.3298 132.373 26.2407C131.749 26.1516 131.215 26.3297 130.591 26.4188C129.344 26.7751 128.364 27.2205 127.741 28.2003C126.939 29.3583 126.85 30.6945 125.603 31.5852C123.465 33.0104 120.704 30.2491 118.121 31.9415C116.963 32.7432 116.072 33.9902 115.181 35.0591C113.489 37.286 111.44 39.3348 109.391 41.2054C107.788 42.6306 106.184 43.8776 104.937 45.6592C104.136 46.8171 103.779 48.0642 103.067 49.3113C101.998 51.2709 100.573 53.0524 99.1475 54.8339C97.4551 56.8827 95.7626 60.3566 92.9122 61.0692C92.2887 61.1583 91.6652 61.2473 91.0416 61.5146C89.7055 61.9599 88.8148 63.207 87.6568 63.8306C86.4988 64.4541 85.1626 64.7213 84.0046 65.3448C81.7778 66.5028 82.4013 70.6893 84.8954 69.6204C85.519 69.3532 85.8753 68.8188 86.2316 68.2843C87.7458 66.5919 90.1509 66.3247 92.1996 65.523C96.2971 63.9197 99.5038 60.7129 103.334 58.486C103.69 58.3079 104.314 58.0406 104.581 58.486C100.751 61.7818 96.8315 64.9885 93.0013 68.2843C92.1996 68.9079 91.487 69.6204 90.9526 70.3331C90.4181 71.2238 90.1509 72.2036 90.5072 73.0944C90.8635 73.9851 91.9324 74.6978 92.8231 74.3415C93.892 73.9852 94.3374 72.649 95.05 71.5801C95.8517 70.4222 97.2769 69.8877 98.5239 69.1751C100.84 67.928 102.443 65.9684 104.581 64.5432C106.897 62.9398 109.302 61.4255 111.262 59.2877C112.509 58.0406 113.667 56.5263 115.003 55.3684C116.428 53.9431 118.031 52.8743 119.635 51.6272C123.465 48.6877 126.761 45.0356 130.057 41.5617C131.215 40.4037 132.373 38.5331 131.304 37.286C130.68 36.4844 129.344 36.039 129.433 35.0591C129.611 34.5247 130.057 34.2575 130.502 33.9903C132.195 33.1886 134.332 32.2978 134.778 30.2491C135.223 29.2692 134.867 27.844 133.976 26.9533Z" fill="#E65CA1"/>
<path d="M26.085 134.023C26.4413 134.379 27.0648 134.646 27.6883 134.735C28.3118 134.824 28.8463 134.646 29.4699 134.557C30.7169 134.201 31.6967 133.755 32.3203 132.776C33.1219 131.618 33.211 130.281 34.4581 129.391C36.5959 127.966 39.3572 130.727 41.9404 129.034C43.0984 128.233 43.9892 126.986 44.8799 125.917C46.5723 123.69 48.6211 121.641 50.6698 119.771C52.2732 118.345 53.8765 117.098 55.1236 115.317C55.9253 114.159 56.2816 112.912 56.9942 111.665C58.0631 109.705 59.4883 107.924 60.9135 106.142C62.6059 104.093 64.2984 100.619 67.1488 99.9067C67.7723 99.8176 68.3959 99.7286 69.0194 99.4614C70.3555 99.016 71.2462 97.7689 72.4042 97.1454C73.5622 96.5218 74.8984 96.2546 76.0564 95.6311C78.2832 94.4731 77.6597 90.2866 75.1656 91.3555C74.5421 91.6227 74.1858 92.1572 73.8295 92.6916C72.3152 94.3841 69.9101 94.6512 67.8614 95.4529C63.7639 97.0563 60.5572 100.263 56.727 102.49C56.3707 102.668 55.7471 102.935 55.4799 102.49C59.3101 99.1941 63.2295 95.9874 67.0597 92.6916C67.8614 92.0681 68.574 91.3555 69.1084 90.6429C69.6429 89.7521 69.9101 88.7723 69.5538 87.8816C69.1975 86.9908 68.1286 86.2782 67.2379 86.6345C66.169 86.9908 65.7236 88.3269 65.011 89.3958C64.2093 90.5538 62.7841 91.0882 61.5371 91.8008C59.2211 93.0479 57.6177 95.0075 55.4799 96.4328C53.164 98.0361 50.7589 99.5504 48.7993 101.688C47.5522 102.935 46.3942 104.45 45.0581 105.608C43.6329 107.033 42.0295 108.102 40.4262 109.349C36.5959 112.288 33.3001 115.94 30.0043 119.414C28.8463 120.572 27.6884 122.443 28.7573 123.69C29.3808 124.492 30.7169 124.937 30.6278 125.917C30.4497 126.451 30.0043 126.718 29.5589 126.986C27.8665 127.787 25.7287 128.678 25.2833 130.727C24.8379 131.707 25.1942 133.132 26.085 134.023Z" fill="#E65CA1"/>
<path d="M80.3217 4.48828C79.8178 4.48828 79.188 4.74022 78.6841 5.11814C78.1802 5.49606 77.9283 5.99995 77.5503 6.50384C76.9205 7.63758 76.5426 8.64537 76.7945 9.77911C77.0465 11.1648 77.9283 12.1726 77.6763 13.6842C77.1724 16.2037 73.2673 16.2037 72.6375 19.227C72.3855 20.6127 72.6375 22.1243 72.7634 23.51C73.1414 26.2814 73.1414 29.1788 73.0154 31.9502C72.8894 34.0917 72.6375 36.1072 73.0154 38.2487C73.2673 39.6344 73.8972 40.7682 74.2751 42.1539C74.905 44.2954 75.1569 46.5629 75.4088 48.8304C75.6608 51.4758 76.9205 55.129 75.4088 57.6484C75.0309 58.1523 74.653 58.6562 74.401 59.286C73.7712 60.5457 74.0232 62.0574 73.6452 63.3171C73.2673 64.5768 72.5115 65.7106 72.1336 66.9703C71.3777 69.3638 74.779 71.8832 75.7867 69.3638C76.0387 68.7339 75.9127 68.104 75.7867 67.4742C75.6608 65.2067 77.1725 63.3172 78.0543 61.3016C79.8179 57.2705 79.8178 52.7355 80.9516 48.4525C81.0776 48.0746 81.3295 47.4447 81.8334 47.5707C81.4555 52.6095 80.9516 57.6484 80.5737 62.6873C80.4477 63.695 80.4477 64.7028 80.5737 65.5846C80.8256 66.5924 81.3295 67.4742 82.2113 67.8521C83.0931 68.23 84.3528 67.9781 84.7308 67.0963C85.2346 66.0885 84.6048 64.8288 84.3529 63.5691C84.1009 62.1834 84.7307 60.7977 85.1087 59.412C85.8645 56.8926 85.6126 54.3732 86.1164 51.8537C86.6203 49.0823 87.2502 46.3109 87.1242 43.4136C87.1242 41.65 86.8723 39.7604 86.9982 37.9968C86.9982 35.9812 87.3761 34.0917 87.6281 32.0761C88.2579 27.2892 88.006 22.3763 87.88 17.5894C87.88 15.9517 87.3761 13.8102 85.7385 13.6842C84.7307 13.5583 83.471 14.1881 82.8412 13.4323C82.5892 12.9284 82.7152 12.4245 82.8412 11.9206C83.471 10.157 84.3528 8.01552 83.2191 6.25192C82.8412 5.24414 81.5814 4.48828 80.3217 4.48828Z" fill="#E65CA1"/>
<path d="M79.7407 156.488C80.2446 156.488 80.8745 156.236 81.3783 155.858C81.8822 155.48 82.1342 154.977 82.5121 154.473C83.142 153.339 83.5199 152.331 83.2679 151.197C83.016 149.812 82.1342 148.804 82.3861 147.292C82.89 144.773 86.7952 144.773 87.425 141.75C87.677 140.364 87.425 138.852 87.299 137.467C86.9211 134.695 86.9211 131.798 87.0471 129.026C87.173 126.885 87.425 124.869 87.0471 122.728C86.7951 121.342 86.1653 120.208 85.7874 118.823C85.1575 116.681 84.9056 114.414 84.6536 112.146C84.4017 109.501 83.142 105.848 84.6536 103.328C85.0315 102.824 85.4095 102.32 85.6614 101.691C86.2913 100.431 86.0393 98.9192 86.4172 97.6594C86.7951 96.3997 87.551 95.266 87.9289 94.0062C88.6847 91.6128 85.2835 89.0934 84.2757 91.6128C84.0238 92.2427 84.1497 92.8725 84.2757 93.5024C84.4017 95.7699 82.89 97.6594 82.0082 99.675C80.2446 103.706 80.2446 108.241 79.1109 112.524C78.9849 112.902 78.7329 113.532 78.229 113.406C78.607 108.367 79.1109 103.328 79.4888 98.2893C79.6147 97.2815 79.6147 96.2738 79.4888 95.392C79.2368 94.3842 78.733 93.5024 77.8512 93.1245C76.9693 92.7466 75.7096 92.9985 75.3317 93.8803C74.8278 94.8881 75.4577 96.1478 75.7096 97.4075C75.9616 98.7932 75.3317 100.179 74.9538 101.565C74.198 104.084 74.4499 106.603 73.946 109.123C73.4421 111.894 72.8123 114.666 72.9383 117.563C72.9383 119.327 73.1902 121.216 73.0642 122.98C73.0642 124.995 72.6863 126.885 72.4344 128.9C71.8045 133.687 72.0564 138.6 72.1824 143.387C72.1824 145.025 72.6863 147.166 74.324 147.292C75.3317 147.418 76.5914 146.788 77.2213 147.544C77.4732 148.048 77.3473 148.552 77.2213 149.056C76.5914 150.82 75.7096 152.961 76.8434 154.725C77.2213 155.732 78.481 156.488 79.7407 156.488Z" fill="#E65CA1"/>
</svg>
