<svg width="160" height="161" viewBox="0 0 160 161" fill="none" xmlns="http://www.w3.org/2000/svg">
<path d="M85.238 34.535L92.5921 30.2829L54.3579 8.2207L46.9341 12.4031L85.238 34.535Z" fill="#241921" stroke="#241921" stroke-width="0.348534" stroke-miterlimit="10" stroke-linejoin="round"/>
<path d="M85.238 34.5348L92.5921 30.2827V29.0977L85.238 33.3498V34.5348Z" fill="#241921" stroke="#241921" stroke-width="0.348534" stroke-miterlimit="10" stroke-linejoin="round"/>
<path d="M135.322 114.77L157.245 102.118L118.941 79.9863L97.0183 92.6381L135.322 114.77Z" fill="#241921" stroke="#241921" stroke-width="0.348534" stroke-miterlimit="10" stroke-linejoin="round"/>
<path d="M135.322 114.768L157.245 102.117V100.932L135.322 113.583V114.768Z" fill="#241921" stroke="#241921" stroke-width="0.348534" stroke-miterlimit="10" stroke-linejoin="round"/>
<path d="M91.0237 84.411L112.946 71.7592V70.5742L91.0237 83.226V84.411Z" fill="#241921" stroke="#241921" stroke-width="0.348534" stroke-miterlimit="10" stroke-linejoin="round"/>
<path d="M91.0236 83.2262L112.946 70.5745L111.448 69.7031L89.5249 82.3549L91.0236 83.2262Z" fill="#241921" stroke="#241921" stroke-width="0.348534" stroke-miterlimit="10" stroke-linejoin="round"/>
<path d="M89.5249 82.3544L111.448 69.7026V68.5176L89.5249 81.1345V82.3544Z" fill="#241921" stroke="#241921" stroke-width="0.348534" stroke-miterlimit="10" stroke-linejoin="round"/>
<path d="M89.5248 81.1348L111.448 68.5178L109.949 67.6465L88.0261 80.2983L89.5248 81.1348Z" fill="#241921" stroke="#241921" stroke-width="0.348534" stroke-miterlimit="10" stroke-linejoin="round"/>
<path d="M88.0261 80.2977L109.949 67.646V66.4609L88.0261 79.0779V80.2977Z" fill="#241921" stroke="#241921" stroke-width="0.348534" stroke-miterlimit="10" stroke-linejoin="round"/>
<path d="M88.0263 79.0781L109.949 66.4612L108.45 65.5898L86.5276 78.2416L88.0263 79.0781Z" fill="#241921" stroke="#241921" stroke-width="0.348534" stroke-miterlimit="10" stroke-linejoin="round"/>
<path d="M86.5276 78.2059L108.45 65.589V64.3691L86.5276 77.0209V78.2059Z" fill="#241921" stroke="#241921" stroke-width="0.348534" stroke-miterlimit="10" stroke-linejoin="round"/>
<path d="M86.5275 77.0215L108.45 64.3697L106.952 63.5332L85.0288 76.185L86.5275 77.0215Z" fill="#241921" stroke="#241921" stroke-width="0.348534" stroke-miterlimit="10" stroke-linejoin="round"/>
<path d="M85.0288 76.1513L106.952 63.5343V62.3145L85.0288 74.9662V76.1513Z" fill="#241921" stroke="#241921" stroke-width="0.348534" stroke-miterlimit="10" stroke-linejoin="round"/>
<path d="M85.029 74.9648L106.952 62.313L105.453 61.4766L83.5303 74.1284L85.029 74.9648Z" fill="#241921" stroke="#241921" stroke-width="0.348534" stroke-miterlimit="10" stroke-linejoin="round"/>
<path d="M83.5303 74.0946L105.453 61.4428V60.2578L83.5303 72.9096V74.0946Z" fill="#241921" stroke="#241921" stroke-width="0.348534" stroke-miterlimit="10" stroke-linejoin="round"/>
<path d="M83.5302 72.9098L105.453 60.2581L103.954 59.3867L82.0315 72.0385L83.5302 72.9098Z" fill="#241921" stroke="#241921" stroke-width="0.348534" stroke-miterlimit="10" stroke-linejoin="round"/>
<path d="M97.0183 92.6356L118.941 79.9838V78.7988L97.0183 91.4506V92.6356Z" fill="#241921"/>
<path d="M97.0185 91.4528L118.941 78.801L117.443 77.9297L95.5198 90.5815L97.0185 91.4528Z" fill="#241921" stroke="#241921" stroke-width="0.348534" stroke-miterlimit="10" stroke-linejoin="round"/>
<path d="M95.5198 90.5809L117.443 77.9292V76.7441L95.5198 89.3959V90.5809Z" fill="#241921" stroke="#241921" stroke-width="0.348534" stroke-miterlimit="10" stroke-linejoin="round"/>
<path d="M95.5197 89.3942L117.442 76.7424L115.944 75.8711L94.021 88.5229L95.5197 89.3942Z" fill="#241921" stroke="#241921" stroke-width="0.348534" stroke-miterlimit="10" stroke-linejoin="round"/>
<path d="M94.021 88.5243L115.944 75.8725V74.6875L94.021 87.3393V88.5243Z" fill="#241921" stroke="#241921" stroke-width="0.348534" stroke-miterlimit="10" stroke-linejoin="round"/>
<path d="M94.0209 87.3395L115.944 74.6877L114.445 73.8164L92.5222 86.4682L94.0209 87.3395Z" fill="#241921" stroke="#241921" stroke-width="0.348534" stroke-miterlimit="10" stroke-linejoin="round"/>
<path d="M92.5222 86.4657L114.445 73.8139V72.6289L92.5222 85.2807V86.4657Z" fill="#241921" stroke="#241921" stroke-width="0.348534" stroke-miterlimit="10" stroke-linejoin="round"/>
<path d="M92.5224 85.2829L114.445 72.6311L112.946 71.7598L91.0237 84.4116L92.5224 85.2829Z" fill="#241921" stroke="#241921" stroke-width="0.348534" stroke-miterlimit="10" stroke-linejoin="round"/>
<path d="M97.8547 91.9423L119.743 79.2905V78.1055L97.8547 90.7224V91.9423Z" fill="#E65CA1" stroke="#241921" stroke-width="0.348534" stroke-miterlimit="10" stroke-linecap="round" stroke-linejoin="round"/>
<path d="M97.8549 90.7207L119.743 78.1038L118.279 77.2324L96.3562 89.8842L97.8549 90.7207Z" fill="#E65CA1" stroke="#241921" stroke-width="0.348534" stroke-miterlimit="10" stroke-linecap="round" stroke-linejoin="round"/>
<path d="M96.3562 89.8837L118.279 77.2319V76.0469L96.3562 88.6638V89.8837Z" fill="#E65CA1" stroke="#241921" stroke-width="0.348534" stroke-miterlimit="10" stroke-linecap="round" stroke-linejoin="round"/>
<path d="M96.3561 88.666L118.279 76.0491L116.78 75.1777L94.8574 87.8295L96.3561 88.666Z" fill="#E65CA1" stroke="#241921" stroke-width="0.348534" stroke-miterlimit="10" stroke-linecap="round" stroke-linejoin="round"/>
<path d="M94.8574 87.7938L116.78 75.1769V73.957L94.8574 86.6088V87.7938Z" fill="#E65CA1" stroke="#241921" stroke-width="0.348534" stroke-miterlimit="10" stroke-linecap="round" stroke-linejoin="round"/>
<path d="M94.8576 86.6074L116.78 73.9556L115.282 73.1191L93.3589 85.7709L94.8576 86.6074Z" fill="#E65CA1" stroke="#241921" stroke-width="0.348534" stroke-miterlimit="10" stroke-linecap="round" stroke-linejoin="round"/>
<path d="M93.3589 85.7372L115.282 73.1203V71.9004L93.3589 84.5522V85.7372Z" fill="#E65CA1" stroke="#241921" stroke-width="0.348534" stroke-miterlimit="10" stroke-linecap="round" stroke-linejoin="round"/>
<path d="M93.3586 84.5508L115.281 71.899L113.783 71.0625L91.8599 83.7143L93.3586 84.5508Z" fill="#E65CA1" stroke="#241921" stroke-width="0.348534" stroke-miterlimit="10" stroke-linecap="round" stroke-linejoin="round"/>
<path d="M91.8599 83.6786L113.783 71.0617V69.8418L91.8599 82.4936V83.6786Z" fill="#E65CA1" stroke="#241921" stroke-width="0.348534" stroke-miterlimit="10" stroke-linecap="round" stroke-linejoin="round"/>
<path d="M91.86 82.4958L113.783 69.844L112.284 68.9727L90.3613 81.6244L91.86 82.4958Z" fill="#E65CA1" stroke="#241921" stroke-width="0.348534" stroke-miterlimit="10" stroke-linecap="round" stroke-linejoin="round"/>
<path d="M90.3613 81.6239L112.284 68.9721V67.7871L90.3613 80.4389V81.6239Z" fill="#E65CA1" stroke="#241921" stroke-width="0.348534" stroke-miterlimit="10" stroke-linecap="round" stroke-linejoin="round"/>
<path d="M90.3613 80.4372L112.284 67.7854L110.785 66.9141L88.8625 79.5658L90.3613 80.4372Z" fill="#E65CA1" stroke="#241921" stroke-width="0.348534" stroke-miterlimit="10" stroke-linecap="round" stroke-linejoin="round"/>
<path d="M88.8628 79.5673L110.786 66.9155V65.7305L88.8628 78.3823V79.5673Z" fill="#E65CA1" stroke="#241921" stroke-width="0.348534" stroke-miterlimit="10" stroke-linecap="round" stroke-linejoin="round"/>
<path d="M88.8627 78.3825L110.786 65.7307L109.287 64.8594L87.364 77.5112L88.8627 78.3825Z" fill="#E65CA1" stroke="#241921" stroke-width="0.348534" stroke-miterlimit="10" stroke-linecap="round" stroke-linejoin="round"/>
<path d="M87.364 77.5106L109.287 64.8588V63.6738L87.364 76.3256V77.5106Z" fill="#E65CA1" stroke="#241921" stroke-width="0.348534" stroke-miterlimit="10" stroke-linecap="round" stroke-linejoin="round"/>
<path d="M87.3639 76.3259L109.287 63.6741L107.788 62.8027L85.8652 75.4545L87.3639 76.3259Z" fill="#E65CA1" stroke="#241921" stroke-width="0.348534" stroke-miterlimit="10" stroke-linecap="round" stroke-linejoin="round"/>
<path d="M85.8652 75.454L107.788 62.8022V61.6172L85.8652 74.269V75.454Z" fill="#E65CA1" stroke="#241921" stroke-width="0.348534" stroke-miterlimit="10" stroke-linecap="round" stroke-linejoin="round"/>
<path d="M85.8654 74.2692L107.788 61.6174L106.289 60.7461L84.3667 73.3979L85.8654 74.2692Z" fill="#E65CA1" stroke="#241921" stroke-width="0.348534" stroke-miterlimit="10" stroke-linecap="round" stroke-linejoin="round"/>
<path d="M4.06445 73.8856L25.9873 61.2687V60.0488L4.06445 72.7006V73.8856Z" fill="#241921" stroke="#241921" stroke-width="0.348534" stroke-miterlimit="10" stroke-linejoin="round"/>
<path d="M41.5319 95.563L63.4547 82.9112L25.9873 61.2324L4.06445 73.8842L41.5319 95.563Z" fill="#241921" stroke="#241921" stroke-width="0.348534" stroke-miterlimit="10" stroke-linejoin="round"/>
<path d="M41.5317 95.5634L63.4545 82.9116V81.7266L41.5317 94.3783V95.5634Z" fill="#E65CA1" stroke="#241921" stroke-width="0.348534" stroke-miterlimit="10" stroke-linecap="round" stroke-linejoin="round"/>
<path d="M41.5319 94.3794L63.4547 81.7277L25.9873 60.0488L4.06445 72.7006L41.5319 94.3794Z" fill="#E65CA1" stroke="#241921" stroke-width="0.348534" stroke-miterlimit="10" stroke-linecap="round" stroke-linejoin="round"/>
<path d="M41.5319 95.563L63.4547 82.9112L25.9873 61.2324L4.06445 73.8842L41.5319 95.563Z" fill="#241921" stroke="#241921" stroke-width="0.348534" stroke-miterlimit="10" stroke-linejoin="round"/>
<path d="M41.5317 95.5634L63.4545 82.9116V81.7266L41.5317 94.3783V95.5634Z" fill="#E65CA1" stroke="#241921" stroke-width="0.348534" stroke-miterlimit="10" stroke-linecap="round" stroke-linejoin="round"/>
<path d="M41.5319 94.3794L63.4547 81.7277L25.9873 60.0488L4.06445 72.7006L41.5319 94.3794Z" fill="#E65CA1" stroke="#241921" stroke-width="0.348534" stroke-miterlimit="10" stroke-linecap="round" stroke-linejoin="round"/>
<path d="M84.6455 29.7255L62.7576 17.1085V15.8887L84.6455 28.5405V29.7255Z" fill="#241921" stroke="#241921" stroke-width="0.348534" stroke-miterlimit="10" stroke-linejoin="round"/>
<path d="M47.1777 51.4048L25.2549 38.753L62.7572 17.0742L84.6451 29.726L47.1777 51.4048Z" fill="#241921" stroke="#241921" stroke-width="0.348534" stroke-miterlimit="10" stroke-linejoin="round"/>
<path d="M47.1777 51.4071L25.2549 38.7553V37.5703L47.1777 50.2221V51.4071Z" fill="#E65CA1" stroke="#241921" stroke-width="0.348534" stroke-miterlimit="10" stroke-linecap="round" stroke-linejoin="round"/>
<path d="M47.1777 50.2193L25.2549 37.5675L62.7572 15.8887L84.6451 28.5405L47.1777 50.2193Z" fill="#E65CA1" stroke="#241921" stroke-width="0.348534" stroke-miterlimit="10" stroke-linecap="round" stroke-linejoin="round"/>
<path d="M47.1777 51.4048L25.2549 38.753L62.7572 17.0742L84.6451 29.726L47.1777 51.4048Z" fill="#241921" stroke="#241921" stroke-width="0.348534" stroke-miterlimit="10" stroke-linejoin="round"/>
<path d="M47.1777 51.4052L25.2549 38.7534V37.5684L47.1777 50.2201V51.4052Z" fill="#241921" stroke="#241921" stroke-width="0.348534" stroke-miterlimit="10" stroke-linecap="round" stroke-linejoin="round"/>
<path d="M47.178 51.4052L69.1008 38.7534V37.5684L47.178 50.2201V51.4052Z" fill="#241921" stroke="#241921" stroke-width="0.348534" stroke-miterlimit="10" stroke-linejoin="round"/>
<path d="M84.6802 73.0477L106.568 60.396V59.2109L84.6802 71.8627V73.0477Z" fill="#E65CA1"/>
<path d="M25.2549 64.0556L47.1777 51.4038V50.2188L25.2549 62.8357V64.0556Z" fill="#241921" stroke="#241921" stroke-width="0.348534" stroke-miterlimit="10" stroke-linejoin="round"/>
<path d="M62.7572 85.7001L84.6451 73.0483L47.1777 51.4043L25.2549 64.0561L62.7572 85.7001Z" fill="#241921" stroke="#241921" stroke-width="0.348534" stroke-miterlimit="10" stroke-linejoin="round"/>
<path d="M62.7576 85.702L84.6455 73.0502V71.8652L62.7576 84.517V85.702Z" fill="#E65CA1" stroke="#241921" stroke-width="0.348534" stroke-miterlimit="10" stroke-linecap="round" stroke-linejoin="round"/>
<path d="M62.7572 84.5142L84.6451 71.8624L47.1777 50.1836L25.2549 62.8354L62.7572 84.5142Z" fill="#E65CA1" stroke="#241921" stroke-width="0.348534" stroke-miterlimit="10" stroke-linecap="round" stroke-linejoin="round"/>
<path d="M62.7572 85.7001L84.6451 73.0483L47.1777 51.4043L25.2549 64.0561L62.7572 85.7001Z" fill="#241921" stroke="#241921" stroke-width="0.348534" stroke-miterlimit="10" stroke-linejoin="round"/>
<path d="M62.7576 85.702L84.6455 73.0502V71.8652L62.7576 84.517V85.702Z" fill="#241921" stroke="#241921" stroke-width="0.348534" stroke-miterlimit="10" stroke-linecap="round" stroke-linejoin="round"/>
<path d="M4.06445 73.8856L25.9873 61.2687V60.0488L4.06445 72.7006V73.8856Z" fill="#241921" stroke="#241921" stroke-width="0.348534" stroke-miterlimit="10" stroke-linejoin="round"/>
<path d="M41.5319 95.563L63.4547 82.9112L25.9873 61.2324L4.06445 73.8842L41.5319 95.563Z" fill="#241921" stroke="#241921" stroke-width="0.348534" stroke-miterlimit="10" stroke-linejoin="round"/>
<path d="M41.5317 95.5634L63.4545 82.9116V81.7266L41.5317 94.3783V95.5634Z" fill="#E65CA1" stroke="#241921" stroke-width="0.348534" stroke-miterlimit="10" stroke-linecap="round" stroke-linejoin="round"/>
<path d="M41.5319 94.3794L63.4547 81.7277L25.9873 60.0488L4.06445 72.7006L41.5319 94.3794Z" fill="#E65CA1" stroke="#241921" stroke-width="0.348534" stroke-miterlimit="10" stroke-linecap="round" stroke-linejoin="round"/>
<path d="M41.5319 95.563L63.4547 82.9112L25.9873 61.2324L4.06445 73.8842L41.5319 95.563Z" fill="#241921" stroke="#241921" stroke-width="0.348534" stroke-miterlimit="10" stroke-linejoin="round"/>
<path d="M41.5317 95.5634L63.4545 82.9116V81.7266L41.5317 94.3783V95.5634Z" fill="#241921" stroke="#241921" stroke-width="0.348534" stroke-miterlimit="10" stroke-linecap="round" stroke-linejoin="round"/>
<path d="M135.357 113.374L157.245 100.722L119.778 79.0781L97.8547 91.7299L135.357 113.374Z" fill="#E65CA1" stroke="#241921" stroke-width="0.348534" stroke-miterlimit="10" stroke-linecap="round" stroke-linejoin="round"/>
<path d="M99.8481 141.988L62.3806 120.344L62.3458 120.379L26.1331 99.4668L4.24512 112.119L41.7474 133.797L41.7823 133.763L77.9601 154.675L99.8481 141.988Z" fill="#E65CA1" stroke="#241921" stroke-width="0.461808" stroke-miterlimit="10" stroke-linecap="round" stroke-linejoin="round"/>
<path d="M85.273 33.3495L92.5922 29.0974L55.1596 7.48828L47.7358 11.7055L85.273 33.3495Z" fill="#E65CA1" stroke="#241921" stroke-width="0.348534" stroke-miterlimit="10" stroke-linecap="round" stroke-linejoin="round"/>
<path d="M106.568 59.2118L69.1005 37.5678H69.0656L84.6451 28.5756L62.7223 15.9238L25.2549 37.5678L47.1777 50.2196L25.2549 62.8714L62.7223 84.5154L84.6451 71.8636L106.568 59.2118Z" fill="#E65CA1" stroke="#241921" stroke-width="0.348534" stroke-miterlimit="10" stroke-linecap="round" stroke-linejoin="round"/>
<path d="M41.5319 94.3794L63.4547 81.7277L25.9873 60.0488L4.06445 72.7006L41.5319 94.3794Z" fill="#E65CA1" stroke="#241921" stroke-width="0.348534" stroke-miterlimit="10" stroke-linecap="round" stroke-linejoin="round"/>
<path d="M78.3458 36.6483C78.2064 36.6483 78.0321 36.718 77.8927 36.8226C77.7533 36.9271 77.6836 37.0666 77.579 37.206C77.4048 37.5197 77.3002 37.7985 77.3699 38.1122C77.4396 38.4955 77.6836 38.7744 77.6139 39.1926C77.4745 39.8897 76.394 39.8897 76.2198 40.7262C76.15 41.1096 76.2198 41.5278 76.2546 41.9112C76.3592 42.678 76.3592 43.4796 76.3243 44.2464C76.2895 44.8389 76.2197 45.3965 76.3243 45.989C76.394 46.3724 76.5683 46.6861 76.6728 47.0695C76.8471 47.662 76.9168 48.2894 76.9865 48.9167C77.0562 49.6486 77.4048 50.6594 76.9865 51.3565C76.882 51.4959 76.7774 51.6353 76.7077 51.8096C76.5334 52.1581 76.6031 52.5763 76.4986 52.9249C76.394 53.2734 76.1849 53.5871 76.0803 53.9356C75.8712 54.5978 76.8123 55.2949 77.0911 54.5978C77.1608 54.4236 77.1259 54.2493 77.0911 54.075C77.0562 53.4477 77.4745 52.9249 77.7184 52.3672C78.2064 51.2519 78.2064 49.9972 78.5201 48.8122C78.5549 48.7076 78.6246 48.5333 78.764 48.5682C78.6595 49.9623 78.5201 51.3565 78.4155 52.7506C78.3807 53.0294 78.3807 53.3083 78.4155 53.5522C78.4852 53.8311 78.6246 54.075 78.8686 54.1796C79.1126 54.2841 79.4611 54.2144 79.5657 53.9705C79.7051 53.6916 79.5308 53.3431 79.4611 52.9946C79.3914 52.6112 79.5657 52.2278 79.6702 51.8444C79.8794 51.1473 79.8097 50.4503 79.9491 49.7532C80.0885 48.9864 80.2628 48.2197 80.2279 47.418C80.2279 46.9301 80.1582 46.4073 80.193 45.9193C80.193 45.3617 80.2976 44.8389 80.3673 44.2812C80.5416 42.9568 80.4719 41.5975 80.437 40.2731C80.437 39.82 80.2976 39.2275 79.8445 39.1926C79.5657 39.1578 79.2172 39.332 79.0429 39.1229C78.9732 38.9835 79.008 38.8441 79.0429 38.7047C79.2172 38.2167 79.4611 37.6242 79.1474 37.1363C79.0429 36.8226 78.6943 36.6135 78.3458 36.6483Z" fill="#FFFAFD"/>
<path d="M40.5528 71.1818C40.701 71.1818 40.8863 71.2559 41.0345 71.367C41.1828 71.4782 41.2569 71.6264 41.368 71.7747C41.5533 72.1082 41.6645 72.4046 41.5904 72.7381C41.5163 73.1457 41.2569 73.4422 41.331 73.8869C41.4792 74.628 42.628 74.628 42.8132 75.5173C42.8873 75.925 42.8132 76.3696 42.7762 76.7773C42.665 77.5925 42.665 78.4448 42.7021 79.26C42.7391 79.89 42.8132 80.4829 42.7021 81.1128C42.628 81.5205 42.4427 81.854 42.3315 82.2616C42.1462 82.8915 42.0721 83.5586 41.998 84.2256C41.9239 85.0037 41.5533 86.0784 41.998 86.8195C42.1092 86.9677 42.2203 87.116 42.2945 87.3012C42.4797 87.6718 42.4056 88.1165 42.5168 88.487C42.628 88.8576 42.8503 89.1911 42.9615 89.5617C43.1838 90.2657 42.1833 91.0069 41.8868 90.2657C41.8127 90.0805 41.8498 89.8952 41.8868 89.7099C41.9239 89.0429 41.4792 88.487 41.2198 87.8941C40.701 86.7083 40.701 85.3743 40.3675 84.1144C40.3305 84.0032 40.2564 83.8179 40.1081 83.855C40.2193 85.3373 40.3675 86.8195 40.4787 88.3018C40.5158 88.5982 40.5158 88.8947 40.4787 89.1541C40.4046 89.4505 40.2564 89.7099 39.997 89.8211C39.7376 89.9322 39.367 89.8581 39.2558 89.5987C39.1076 89.3023 39.2929 88.9317 39.367 88.5611C39.4411 88.1535 39.2558 87.7459 39.1447 87.3383C38.9223 86.5972 38.9964 85.856 38.8482 85.1149C38.7 84.2997 38.5147 83.4844 38.5518 82.6321C38.5518 82.1134 38.6259 81.5575 38.5888 81.0387C38.5888 80.4458 38.4777 79.89 38.4035 79.2971C38.2183 77.8889 38.2924 76.4437 38.3294 75.0356C38.3294 74.5539 38.4777 73.9239 38.9594 73.8869C39.2558 73.8498 39.6264 74.0351 39.8117 73.8128C39.8858 73.6645 39.8487 73.5163 39.8117 73.3681C39.6264 72.8493 39.367 72.2193 39.7005 71.7005C39.8117 71.367 40.1822 71.1447 40.5528 71.1818Z" fill="#241921"/>
<path d="M48.9631 33.291C49.0329 33.3258 49.0677 33.3607 49.1374 33.4304C50.2179 34.4411 49.8693 35.9747 49.7648 37.2643C49.5557 39.5297 50.2179 41.7952 50.0436 44.0607C49.9739 44.8274 49.6951 45.6639 49.7648 46.4307C49.7648 46.5004 49.7996 46.605 49.8345 46.6398C49.8693 46.6747 49.939 46.6747 50.0087 46.7095C50.3573 46.7792 50.6013 47.2323 50.4618 47.546C50.3573 47.8248 49.8345 48.034 49.5557 47.9294C49.1374 47.79 49.0677 47.302 49.0328 46.9187C48.9631 46.4656 48.8934 46.0125 48.8586 45.5594C48.7889 45.1063 48.7192 44.6532 48.4752 44.2698C48.1964 43.8864 47.7084 43.6773 47.2902 43.8864C47.2902 44.4789 47.2553 45.0366 47.2205 45.5942C47.2205 45.7685 47.3599 47.302 47.3599 47.2672C47.0462 47.4763 46.5931 47.2672 46.384 46.9535C46.1749 46.6398 46.1052 46.2564 46.0703 45.8731C45.6869 42.5271 45.3035 39.216 45.0247 35.8701C44.9899 35.3125 44.9201 34.72 45.0247 34.1623C45.199 33.1516 45.896 33.047 46.4537 32.3848C46.9068 31.862 46.5583 30.8164 47.2902 30.4678C47.4644 30.3981 47.6736 30.3633 47.8827 30.3633C48.057 30.3633 48.2661 30.3633 48.4055 30.4678C48.5449 30.5724 48.6146 30.7815 48.6495 30.9558C48.7192 31.3043 48.7889 31.6877 48.7192 32.0711C48.6843 32.2802 48.4403 32.4196 48.4403 32.6636C48.4752 32.9424 48.754 33.1167 48.9631 33.291Z" fill="#FFFAFD"/>
<path d="M60.9524 21.9159C60.9176 21.9507 60.9176 21.9856 60.8827 22.0204C60.7084 22.2296 60.4645 22.369 60.4645 22.6478C60.4645 23.2403 61.5449 23.5888 61.6146 24.3905C61.6495 24.8436 61.6146 25.2967 61.5798 25.7149C61.5798 27.3879 62.486 28.9563 62.4163 30.6292C62.3814 30.9778 62.3466 31.3263 62.4511 31.64C62.5557 31.9885 62.8345 32.2674 63.0785 32.581C63.3225 32.8599 63.5316 33.2432 63.427 33.5918C63.3225 33.9403 62.7996 34.1843 62.5557 33.9055C62.2768 33.5569 62.3814 33.0341 62.0329 32.6159C61.6146 32.1279 61.301 30.5247 60.5342 30.5595C59.7326 30.6292 59.872 32.6159 59.8371 33.2432C59.8371 33.3827 59.8023 33.5221 59.6977 33.5918C59.4537 33.766 59.2097 33.3478 59.1749 33.0341C59.1052 32.0582 59.0006 31.1172 58.9309 30.1413C58.7915 28.4335 58.6521 26.7605 58.5127 25.0527C58.4778 24.5299 58.443 23.9722 58.6869 23.5191C58.8264 23.2403 59.0703 23.0312 59.1749 22.7524C59.384 22.2993 59.2795 21.7765 59.3492 21.2885C59.4886 20.3475 60.7433 20.0338 61.057 21.0445C61.0918 21.3931 61.057 21.6719 60.9524 21.9159Z" fill="#241921"/>
<path d="M22.632 109.84C23.228 108.835 22.7237 107.144 22.5862 106.185C22.4028 104.768 22.2653 103.352 22.1736 101.935C22.1277 100.702 21.8527 99.2396 22.2653 98.0058C21.3484 98.0515 20.8441 97.7317 20.1564 97.2747C19.8355 97.0463 19.4229 96.498 19.7438 96.1324C19.8813 95.9953 20.2022 95.9496 20.3398 96.0867C20.6607 96.4066 20.3398 96.5893 20.7524 96.7721C20.9358 96.8635 21.8527 96.9549 21.8985 96.6807C22.0361 95.9496 22.0819 95.1728 21.9902 94.4418C21.9444 93.9848 21.8068 93.5736 21.8985 93.1166C22.0819 92.3399 22.953 92.0657 23.228 91.3803C23.549 90.6035 22.8154 89.7353 23.3197 89.0042C23.6407 88.5473 24.4659 88.3645 24.9243 88.6844C25.3828 88.9586 25.4286 89.5069 25.3828 89.9638C25.3369 90.4207 25.2453 90.9234 25.4745 91.3803C25.7496 91.8372 26.1163 92.0657 26.0705 92.614C26.0246 93.071 25.7954 93.5279 25.7037 93.9848C25.5662 94.5331 25.6579 95.1272 25.7037 95.6755C25.7954 96.4523 25.8871 97.229 26.0246 98.0058C26.208 99.3309 26.3455 100.656 26.804 101.935C26.8957 102.164 26.9415 102.392 26.8957 102.575C26.804 102.849 26.4831 103.032 26.3455 103.306C26.1163 103.763 26.4831 104.312 26.6665 104.768C26.8498 105.317 26.804 105.865 26.804 106.459C26.7582 107.099 26.9874 107.739 26.9874 108.287C26.9415 109.155 26.208 108.333 26.1622 107.876C26.0705 106.459 25.1536 105.134 25.1994 103.717C25.1994 103.626 25.1994 103.535 25.1077 103.535C25.0619 103.535 25.016 103.535 25.016 103.58C24.6034 103.809 24.145 103.855 23.6407 103.9C23.4114 104.449 23.7323 105.134 23.824 105.728C23.9157 106.642 24.0074 107.556 23.9157 108.47C23.8699 108.927 23.8699 110.206 23.3197 110.48C23.228 110.526 23.1364 110.526 23.0447 110.526C22.7696 110.571 22.4487 110.617 22.1736 110.663C21.9902 110.709 21.8068 110.709 21.7151 110.571C21.6234 110.434 21.8527 110.297 22.0361 110.206C22.2653 110.252 22.4945 110.069 22.632 109.84Z" fill="#FFFAFD"/>
<path d="M111.53 78.6177C111.53 78.5495 111.488 78.4772 111.462 78.4133C111.377 78.1808 111.279 77.9533 111.168 77.7321C110.941 77.2626 110.622 76.843 110.232 76.4974C110.014 76.3504 109.814 76.179 109.636 75.9865C109.167 75.3904 109.593 74.4537 109.125 73.8577C109.019 73.7417 108.889 73.6514 108.743 73.5937C108.598 73.5359 108.441 73.5123 108.284 73.5247C108.128 73.537 107.977 73.5849 107.842 73.6648C107.707 73.7447 107.593 73.8543 107.507 73.9854C107.081 74.7092 107.72 75.0072 107.975 75.6459C108.145 76.2419 107.762 76.6677 107.379 77.0934C106.642 77.915 106.168 78.938 106.017 80.0312C105.974 80.2866 105.889 80.6272 105.633 80.7124C105.532 80.7055 105.431 80.72 105.335 80.755C105.189 80.8234 105.076 80.9468 105.02 81.0982C104.964 81.2497 104.971 81.417 105.037 81.5639C105.097 81.7215 105.201 81.8588 105.335 81.9599C105.399 82.01 105.469 82.0515 105.544 82.0833C105.629 82.1253 105.719 82.1567 105.812 82.177C105.984 82.2169 106.163 82.2129 106.333 82.1653C106.502 82.1176 106.657 82.028 106.783 81.9045C107.124 82.7561 106.826 83.7353 106.613 84.6294C106.517 85.0146 106.448 85.4058 106.404 85.8002C106.256 87.1646 106.37 88.5448 106.74 89.8662C107.081 90.9306 107.507 92.1653 106.826 93.0594C106.698 93.1872 106.57 93.4 106.698 93.5278C106.74 93.6129 106.826 93.6129 106.911 93.6129C107.592 93.6981 108.273 93.7407 108.954 93.8258C109.14 93.8559 109.329 93.8413 109.508 93.7832C109.806 93.6555 109.934 93.2723 110.019 92.9743C110.417 91.7773 110.646 90.5306 110.7 89.2702C110.7 88.1632 110.445 87.0988 110.657 86.0344C110.845 85.2962 111.116 84.5819 111.466 83.9056C111.619 83.5053 111.736 83.0921 111.815 82.6709C112.057 81.3951 111.983 80.0794 111.598 78.8391C111.577 78.7582 111.556 78.6858 111.53 78.6177Z" fill="#FFFAFD"/>
</svg>
