<svg width="104" height="104" viewBox="0 0 104 104" fill="none" xmlns="http://www.w3.org/2000/svg">
<rect x="0.25" y="0.25" width="103.5" height="103.5" fill="#FAF9F7"/>
<rect x="0.25" y="0.25" width="103.5" height="103.5" stroke="#CCC8C0" stroke-width="0.5"/>
<path fill-rule="evenodd" clip-rule="evenodd" d="M71.5 39.0599C71.5 42.3121 69.1334 45.0115 66.0283 45.53C69.1334 46.0485 71.5 48.7479 71.5 52C71.5 55.2521 69.1334 57.9515 66.0283 58.47C69.1334 58.9886 71.5 61.688 71.5 64.9401C71.5 68.563 68.563 71.5 64.9401 71.5C61.688 71.5 58.9886 69.1334 58.47 66.0283C57.9515 69.1334 55.2521 71.5 52 71.5C48.7479 71.5 46.0485 69.1334 45.53 66.0283C45.0115 69.1334 42.3121 71.5 39.0599 71.5C35.437 71.5 32.5 68.563 32.5 64.9401C32.5 61.688 34.8666 58.9886 37.9716 58.47C34.8666 57.9515 32.5 55.2521 32.5 52C32.5 48.7479 34.8666 46.0485 37.9716 45.53C34.8666 45.0115 32.5 42.3121 32.5 39.0599C32.5 35.437 35.437 32.5 39.0599 32.5C42.3121 32.5 45.0115 34.8666 45.53 37.9716C46.0485 34.8666 48.7479 32.5 52 32.5C55.2521 32.5 57.9515 34.8666 58.47 37.9716C58.9886 34.8666 61.688 32.5 64.9401 32.5C68.563 32.5 71.5 35.437 71.5 39.0599ZM45.53 40.1482C45.0706 42.8992 42.8992 45.0706 40.1482 45.53C42.8992 45.9893 45.0706 48.1607 45.53 50.9118C45.9893 48.1607 48.1607 45.9893 50.9118 45.53C48.1607 45.0706 45.9893 42.8992 45.53 40.1482ZM53.0882 45.53C55.8393 45.0706 58.0107 42.8992 58.47 40.1482C58.9294 42.8992 61.1008 45.0706 63.8519 45.53C61.1008 45.9893 58.9294 48.1607 58.47 50.9118C58.0107 48.1607 55.8393 45.9893 53.0882 45.53ZM58.47 63.8519C58.9294 61.1008 61.1008 58.9294 63.8519 58.47C61.1008 58.0107 58.9294 55.8393 58.47 53.0882C58.0107 55.8393 55.8393 58.0107 53.0882 58.47C55.8393 58.9294 58.0107 61.1008 58.47 63.8519ZM45.53 53.0882C45.9893 55.8393 48.1607 58.0107 50.9118 58.47C48.1607 58.9294 45.9893 61.1008 45.53 63.8519C45.0706 61.1008 42.8992 58.9294 40.1482 58.47C42.8992 58.0107 45.0706 55.8393 45.53 53.0882Z" fill="#7588FF"/>
</svg>
