<svg width="160" height="161" viewBox="0 0 160 161" fill="none" xmlns="http://www.w3.org/2000/svg">
<path d="M86.1025 62.0146C86.1926 61.9908 86.2902 62.0019 86.373 62.0498L157.465 103.118C157.575 103.182 157.643 103.3 157.643 103.428C157.642 103.555 157.574 103.673 157.464 103.736L74.3369 151.748C74.2264 151.812 74.09 151.812 73.9795 151.748L2.82129 110.681C2.71079 110.617 2.64258 110.499 2.64258 110.371C2.64259 110.243 2.71078 110.125 2.82129 110.062L86.0156 62.0498L86.1025 62.0146Z" fill="#E65CA1" stroke="#241921" stroke-width="0.714286" stroke-miterlimit="10" stroke-linecap="round" stroke-linejoin="round"/>
<path d="M70.9837 34.6501C70.9837 35.7744 70.9176 36.8986 70.9176 38.0229C70.9176 38.4858 70.9176 39.0148 71.1821 39.4116C71.3805 39.6762 71.7112 39.8746 71.9096 40.2052C72.2402 40.7343 71.9757 41.4617 71.9757 42.123C71.9757 42.8505 72.3063 43.5118 72.637 44.1731C75.0839 49.2653 77.5969 53.2993 82.4245 56.4737C87.5167 59.7803 93.7331 61.4997 99.6849 60.3754C101.206 60.0448 102.727 59.7803 104.314 59.4496C104.579 59.3835 104.843 59.3173 105.108 59.2512C105.505 59.0528 105.835 58.7221 106.232 58.4576C107.951 57.135 110.531 56.9366 111.721 55.0849C112.515 55.2833 113.308 55.4817 114.102 55.3494C114.895 55.2172 115.689 54.622 115.755 53.8284C115.887 52.5057 115.623 51.3154 116.35 50.0589C117.144 48.7362 118.731 47.5459 119.789 46.4216C120.12 46.091 120.45 45.7603 120.583 45.2974C120.913 44.2393 120.186 43.115 120.45 42.0569C120.781 40.5359 122.963 39.7423 122.831 38.1551C122.765 37.5599 122.368 37.0309 122.236 36.4357C121.905 34.9147 123.426 33.3936 122.897 31.9387C122.699 31.5419 122.368 31.1451 122.302 30.6822C122.17 30.087 122.5 29.4918 122.567 28.8305C122.897 26.2514 118.863 25.061 118.665 22.4819C118.599 21.8867 118.797 21.2254 118.599 20.6302C118.334 20.1011 117.805 19.7705 117.342 19.3737C116.747 18.7785 116.549 17.6542 116.02 16.9268C115.292 15.8687 114.961 14.6122 113.44 14.6122C112.647 14.6122 111.853 14.8106 111.126 14.4799C110.729 14.2815 110.464 14.017 110.134 13.6863C109.076 12.6282 107.29 10.9088 105.637 11.3056C105.174 11.4378 104.711 11.7024 104.248 11.7685C103.256 12.033 102.132 11.7024 101.14 11.4378C100.214 11.1733 99.2881 10.9088 98.3623 10.5781C97.4365 10.3136 96.5106 10.0491 95.6509 9.58615C94.8573 9.18935 93.7992 8.6603 93.0717 9.25549C92.4104 9.78454 92.3443 11.041 91.4846 11.2394C91.2862 11.3056 91.0217 11.2394 90.8233 11.1733C88.178 10.8427 85.9957 15.4719 83.5488 14.4138C83.3504 14.3476 83.152 14.1492 82.9536 14.1492C82.2261 14.0831 81.5648 15.6041 80.9696 16.0009C79.9115 16.7284 78.5227 16.5961 77.5969 17.522C76.2081 18.7785 77.663 20.8947 75.6129 21.1592C74.4226 21.3576 74.2242 23.0771 73.3645 23.8706C73.1661 24.0029 72.9677 24.1352 72.8354 24.3997C72.7031 24.6642 72.8354 24.9949 72.8354 25.3255C72.7693 26.9788 70.5208 27.9708 70.7192 30.0209C70.7853 30.4838 70.9176 30.9468 70.9837 31.4097C71.0498 31.8065 71.0498 32.2694 71.0498 32.7323C70.9837 33.3936 70.9837 34.055 70.9837 34.6501Z" fill="#E65CA1" stroke="#241921" stroke-width="0.714286" stroke-miterlimit="10" stroke-linecap="round" stroke-linejoin="round"/>
<path d="M45.6555 50.2596C45.4572 51.0532 45.1926 51.8467 45.1926 52.7065C45.2588 53.8968 46.1185 55.0211 45.9862 56.2115C45.9201 56.6082 45.7878 57.1373 45.9862 57.468C46.2507 57.8647 46.7798 57.7986 47.1766 57.997C47.8379 58.2615 48.1686 59.0551 48.3008 59.7164C48.4331 60.4439 48.4331 61.1713 48.6976 61.8327C49.0283 62.494 50.417 62.7585 50.9461 63.2876C51.6074 63.9489 51.3429 65.1393 52.5333 65.4038C53.2607 65.536 54.1204 65.4699 54.5834 66.0651C54.914 66.3958 55.0463 66.9909 55.4431 67.1893C55.906 67.4539 56.435 67.1893 56.898 67.3877C57.1625 67.52 57.2948 67.7184 57.4932 67.9168C58.0222 68.4459 58.8819 68.512 59.5432 68.1813C60.0062 68.7765 60.8659 68.8426 61.5933 68.9749C62.5853 69.1072 62.7079 69.1072 63.6999 68.9749C64.1141 68.7578 65.6948 68.2475 66.1577 68.1813C66.7529 68.0491 67.0823 68.2475 67.6113 67.9829C67.7555 67.9109 67.88 67.7995 68.0062 67.7024C68.1117 67.6213 68.2184 67.5501 68.3388 67.52C69.1324 67.2555 69.7937 68.1152 70.5211 67.9829C71.1825 67.9168 71.1825 67.4539 71.7115 67.1893C72.6374 66.6603 73.431 66.1974 74.2907 65.4699C75.944 64.0811 77.2666 62.3617 78.6554 60.7746C79.1183 60.2455 79.5812 59.7164 80.0441 59.1874C80.2425 58.9229 80.5071 58.6583 80.5732 58.3277C80.7055 57.7325 80.2425 57.1373 80.1103 56.5421C79.9119 55.2856 81.2345 54.0952 81.1023 52.8387C81.0361 52.0451 80.4409 51.3838 80.5071 50.6564C80.5071 50.0612 80.97 49.466 81.1684 48.8708C81.6313 47.2836 80.2425 45.8949 79.449 44.5061C78.7876 43.3819 78.3908 42.1254 78.3247 40.8689C78.3247 40.4059 78.3247 39.943 78.0602 39.6123C77.5311 38.8188 76.0101 39.0172 75.6133 38.1574C75.481 37.8929 75.481 37.6284 75.4149 37.3639C75.2165 36.3719 73.8939 35.446 73.0342 35.0492C71.9099 34.4541 70.6534 34.5863 69.463 34.1234C68.6033 33.7266 67.942 32.933 67.0162 32.7346C65.8919 32.4701 63.9741 32.5362 63.3128 33.6605C63.1144 33.9911 62.9821 34.5202 62.5853 34.6525C62.1885 34.7847 61.7917 34.5202 61.4611 34.3218C58.8158 32.933 58.0222 35.5783 55.8399 35.7767C54.914 35.8428 53.7898 35.3799 53.0623 35.9751C52.2026 36.6364 52.3349 38.2897 51.2768 38.5542C50.88 38.6865 50.4832 38.5542 50.0864 38.6865C49.5573 38.951 49.5573 39.6123 49.4912 40.2075C49.4251 42.3238 46.0523 42.6544 45.391 44.6384C44.862 46.0933 45.7217 47.6804 45.7878 49.2015C45.8539 49.3999 45.7878 49.8628 45.6555 50.2596Z" fill="#E65CA1"/>
<path d="M61.5933 68.9749C60.8659 68.8426 60.0062 68.7765 59.5432 68.1813C60.3368 69.504 60.2046 70.2975 60.7998 71.6202C61.3949 72.9428 62.4531 73.4719 62.5192 75.059C62.5853 76.5801 62.4531 78.1011 62.5192 79.6221C62.5853 81.54 62.8498 83.3917 62.916 85.2434C62.9821 86.6321 63.5773 89.4758 65.7596 88.2854C66.421 87.9548 66.421 87.4257 66.4871 86.6983C66.7516 84.3175 66.2226 81.9368 66.4871 79.556C66.6855 77.7043 67.8097 76.3155 67.6775 74.2655C67.5626 71.8534 67.3979 69.94 68.0062 67.7024C67.88 67.7995 67.7555 67.9109 67.6113 67.9829C67.0823 68.2475 66.7529 68.0491 66.1577 68.1813C65.845 69.6362 65.8989 71.1573 66.0242 71.8847C66.0242 72.7444 66.4871 75.5881 65.4951 75.9849C64.8338 76.3155 64.7015 74.0978 64.6354 73.6349C63.5048 71.0596 63.6999 70.006 63.6999 68.9749C62.7079 69.1072 62.5853 69.1072 61.5933 68.9749Z" fill="#241921"/>
<path d="M59.5432 68.1813C58.8819 68.512 58.0222 68.4458 57.4932 67.9168C57.2948 67.7184 57.1625 67.52 56.898 67.3877C56.435 67.1893 55.906 67.4539 55.4431 67.1893C55.0463 66.9909 54.914 66.3958 54.5834 66.0651C54.1204 65.4699 53.2607 65.536 52.5333 65.4038C51.3429 65.1393 51.6074 63.9489 50.9461 63.2876C50.417 62.7585 49.0283 62.494 48.6976 61.8327C48.4331 61.1713 48.4331 60.4439 48.3008 59.7164C48.1686 59.0551 47.8379 58.2615 47.1766 57.997C46.7798 57.7986 46.2507 57.8647 45.9862 57.468C45.7878 57.1373 45.9201 56.6082 45.9862 56.2115C46.1185 55.0211 45.2588 53.8968 45.1926 52.7065C45.1926 51.8467 45.4572 51.0532 45.6555 50.2596C45.7878 49.8628 45.8539 49.3999 45.7878 49.2015C45.7217 47.6804 44.862 46.0933 45.391 44.6384C46.0523 42.6544 49.4251 42.3238 49.4912 40.2075C49.5573 39.6123 49.5573 38.951 50.0864 38.6865C50.4832 38.5542 50.88 38.6865 51.2768 38.5542C52.3349 38.2897 52.2026 36.6364 53.0623 35.9751C53.7898 35.3799 54.914 35.8428 55.8399 35.7767C58.0222 35.5783 58.8158 32.933 61.4611 34.3218C61.7917 34.5202 62.1885 34.7847 62.5853 34.6525C62.9821 34.5202 63.1144 33.9911 63.3128 33.6605C63.9741 32.5362 65.8919 32.4701 67.0162 32.7346C67.942 32.933 68.6033 33.7266 69.463 34.1234C70.6534 34.5863 71.9099 34.4541 73.0342 35.0492C73.8939 35.446 75.2165 36.3719 75.4149 37.3639C75.481 37.6284 75.481 37.8929 75.6133 38.1574C76.0101 39.0172 77.5311 38.8188 78.0602 39.6123C78.3247 39.943 78.3247 40.4059 78.3247 40.8689C78.3908 42.1254 78.7876 43.3819 79.449 44.5061C80.2425 45.8949 81.6313 47.2836 81.1684 48.8708C80.97 49.466 80.5071 50.0612 80.5071 50.6564C80.4409 51.3838 81.0361 52.0451 81.1023 52.8387C81.2345 54.0952 79.9119 55.2856 80.1103 56.5421C80.2425 57.1373 80.7055 57.7325 80.5732 58.3277C80.5071 58.6583 80.2425 58.9229 80.0441 59.1874C79.5812 59.7164 79.1183 60.2455 78.6554 60.7746C77.2666 62.3617 75.944 64.0811 74.2907 65.4699C73.4309 66.1974 72.6374 66.6603 71.7115 67.1893C71.1825 67.4539 71.1825 67.9168 70.5211 67.9829C69.7937 68.1152 69.1324 67.2555 68.3388 67.52C68.2184 67.5501 68.1117 67.6213 68.0062 67.7024M59.5432 68.1813C60.0062 68.7765 60.8659 68.8426 61.5933 68.9749C62.5853 69.1072 62.7079 69.1072 63.6999 68.9749M59.5432 68.1813C60.3368 69.504 60.2046 70.2975 60.7998 71.6202C61.3949 72.9428 62.4531 73.4719 62.5192 75.059C62.5853 76.5801 62.4531 78.1011 62.5192 79.6221C62.5853 81.54 62.8498 83.3917 62.916 85.2434C62.9821 86.6321 63.5773 89.4758 65.7596 88.2854C66.421 87.9548 66.421 87.4257 66.4871 86.6983C66.7516 84.3175 66.2226 81.9368 66.4871 79.556C66.6855 77.7043 67.8097 76.3155 67.6775 74.2655C67.5626 71.8534 67.3979 69.94 68.0062 67.7024M63.6999 68.9749C64.1141 68.7578 65.6948 68.2475 66.1577 68.1813M63.6999 68.9749C63.6999 70.006 63.5048 71.0596 64.6354 73.6349C64.7015 74.0978 64.8338 76.3155 65.4951 75.9849C66.4871 75.5881 66.0242 72.7444 66.0242 71.8847C65.8989 71.1573 65.845 69.6362 66.1577 68.1813M66.1577 68.1813C66.7529 68.0491 67.0823 68.2475 67.6113 67.9829C67.7555 67.9109 67.88 67.7995 68.0062 67.7024M68.3388 66.6603C68.2083 67.017 68.0984 67.3634 68.0062 67.7024" stroke="#241921" stroke-width="0.714286" stroke-miterlimit="10" stroke-linecap="round" stroke-linejoin="round"/>
<path d="M88.0458 94.2324C87.9797 94.2324 87.9136 94.2986 87.8474 94.2986C87.2522 94.3647 86.7232 93.9679 86.3925 93.505C86.0619 93.042 85.9296 92.4469 85.7973 91.9178C85.7449 91.7432 85.5173 91.0335 85.2021 90.0885C84.5598 89.8476 83.59 89.7361 82.6955 89.6532C83.9127 93.9322 83.8012 98.6998 84.2763 103.094C84.5408 105.607 84.8715 108.054 84.8053 110.567C84.7392 112.551 83.2843 115.461 85.9296 116.254C86.9877 116.585 88.3103 116.122 88.7071 115.13C88.9055 114.601 88.9055 114.072 88.8394 113.543C88.641 110.567 88.5087 107.591 88.3103 104.681C88.2442 103.491 88.1781 102.234 88.3765 101.044C88.641 99.0601 89.8975 97.8036 90.625 96.0841C91.0879 95.026 91.154 93.9018 91.6831 92.8437C91.8319 92.5162 92.4633 91.4784 92.9014 90.4542C92.4445 90.5669 91.9646 90.6244 91.4847 90.6613C90.9521 90.7146 90.4088 90.7678 89.8633 90.8211C89.3286 92.3322 88.9717 93.9581 88.0458 94.2324Z" fill="#241921"/>
<path d="M61.7915 58.918C61.4608 60.1084 61.1963 61.3649 61.2624 62.6214C61.2624 62.952 61.3285 63.2827 61.4608 63.6134C61.7915 65.0021 62.3866 66.3248 62.3205 67.7135C62.2544 68.5733 61.9237 69.433 61.8576 70.3588C61.7253 73.5993 65.4948 75.451 66.6191 78.2946C67.6111 80.6754 69.2644 82.7255 70.8515 84.7756C71.2483 85.3046 71.7112 85.8337 72.1742 86.2305C72.7693 86.6934 73.4968 87.0241 74.2243 87.3547C76.4727 88.3467 78.589 89.0741 80.9697 89.4709C81.3857 89.5444 82.0191 89.5906 82.6955 89.6532C83.59 89.7361 84.5598 89.8476 85.2021 90.0885C85.3866 90.1577 85.5442 90.2377 85.6651 90.3307C85.8635 90.529 86.0619 90.7936 86.2603 90.9258C86.5909 91.1242 87.0538 91.1242 87.4506 91.0581C88.2407 90.9791 89.0543 90.9001 89.8633 90.8211C90.4088 90.7678 90.9521 90.7146 91.4847 90.6613C91.9646 90.6244 92.4445 90.5669 92.9014 90.4542C93.263 90.3651 93.6102 90.2414 93.9316 90.0661C94.3945 89.8016 94.8574 89.4709 95.4526 89.4048C96.18 89.4048 96.7752 89.9339 97.5027 89.8677C98.0317 89.8677 98.4947 89.5371 99.0237 89.4048C99.5528 89.2725 100.082 89.4048 100.611 89.2064C101.338 88.9419 101.603 88.0822 102 87.4208C102.595 86.2305 105.372 85.0401 106.695 84.9078C107.555 84.7756 108.481 84.8417 109.076 84.3126C109.737 83.6513 109.539 82.5932 109.539 81.6674C109.539 79.9479 110.332 78.2946 111.721 77.2365C112.25 76.8397 112.911 76.5091 113.308 75.9139C113.97 74.988 113.837 73.7315 114.499 72.8057C114.895 72.2105 115.623 71.8798 116.02 71.3508C116.813 70.2266 116.284 68.5732 116.681 67.2506C117.078 65.8618 118.466 64.5392 117.937 63.2827C117.607 62.5552 116.813 62.2246 116.35 61.5633C115.424 60.439 115.755 58.6535 114.895 57.4631C114.631 57.1324 114.3 56.8018 114.102 56.405C113.639 55.5453 113.97 54.5533 113.903 53.6274C113.837 51.1144 111.39 49.3289 109.274 47.9401C108.216 47.2788 107.158 46.4852 106.629 45.3609C106.43 44.898 106.298 44.3028 105.901 43.9722C105.439 43.5754 104.777 43.6415 104.248 43.377C103.521 42.9802 103.256 42.1866 102.793 41.4592C101.074 38.5494 97.3704 40.2688 94.659 39.4091C93.5348 39.0123 92.4767 38.4171 91.3524 38.1526C87.9797 37.2929 85.0699 40.0704 81.7633 39.6075C81.4988 39.5413 81.2342 39.4752 80.9036 39.5413C80.5729 39.5413 80.3084 39.6736 80.0439 39.7397C78.5228 40.2027 76.8695 40.864 76.2743 42.3189C76.1421 42.5834 76.0759 42.9141 75.8114 43.1786C75.5469 43.4431 75.1501 43.5093 74.8194 43.5754C73.6952 43.8399 72.571 44.3028 71.6451 45.0303C70.7854 45.7577 70.1241 46.882 70.1902 48.0724C70.1902 48.403 70.0579 48.9982 69.9918 49.3289C68.9337 49.4611 67.7433 50.0563 67.8095 51.0483C67.6111 51.0483 67.4863 51.0318 67.2804 51.0483C65.7305 51.1728 65.2964 53.1645 64.3045 53.6936C62.5189 54.5533 62.2544 57.1986 61.7915 58.918Z" fill="#E65CA1"/>
<path d="M89.8633 90.8211C90.4088 90.7678 90.9521 90.7146 91.4847 90.6613C91.9646 90.6244 92.4445 90.5669 92.9014 90.4542M89.8633 90.8211C89.3286 92.3322 88.9717 93.9581 88.0458 94.2324C87.9797 94.2324 87.9136 94.2986 87.8474 94.2986C87.2522 94.3647 86.7232 93.9679 86.3925 93.505C86.0619 93.0421 85.9296 92.4469 85.7973 91.9178C85.7449 91.7432 85.5173 91.0335 85.2021 90.0885M89.8633 90.8211C89.0543 90.9001 88.2407 90.9791 87.4506 91.0581C87.0538 91.1242 86.5909 91.1242 86.2603 90.9258C86.0619 90.7936 85.8635 90.529 85.6651 90.3307C85.5442 90.2377 85.3866 90.1577 85.2021 90.0885M92.9014 90.4542C92.4633 91.4784 91.8319 92.5162 91.6831 92.8437C91.154 93.9018 91.0879 95.026 90.625 96.0841C89.8975 97.8036 88.641 99.0601 88.3765 101.044C88.1781 102.234 88.2442 103.491 88.3103 104.681C88.5087 107.591 88.641 110.567 88.8394 113.543C88.9055 114.072 88.9055 114.601 88.7071 115.13C88.3103 116.122 86.9877 116.585 85.9296 116.254C83.2843 115.461 84.7392 112.551 84.8053 110.567C84.8715 108.054 84.5408 105.607 84.2763 103.094C83.8012 98.6998 83.9127 93.9322 82.6955 89.6532M92.9014 90.4542C93.263 90.3651 93.6102 90.2414 93.9316 90.0661C94.3945 89.8016 94.8574 89.4709 95.4526 89.4048C96.18 89.4048 96.7752 89.9339 97.5027 89.8677C98.0317 89.8677 98.4947 89.5371 99.0237 89.4048C99.5528 89.2725 100.082 89.4048 100.611 89.2064C101.338 88.9419 101.603 88.0822 102 87.4208C102.595 86.2305 105.372 85.0401 106.695 84.9078C107.555 84.7756 108.481 84.8417 109.076 84.3126C109.737 83.6513 109.539 82.5932 109.539 81.6674C109.539 79.9479 110.332 78.2946 111.721 77.2365C112.25 76.8397 112.911 76.5091 113.308 75.9139C113.97 74.988 113.837 73.7315 114.499 72.8057C114.895 72.2105 115.623 71.8798 116.02 71.3508C116.813 70.2265 116.284 68.5732 116.681 67.2506C117.078 65.8618 118.466 64.5392 117.937 63.2827C117.607 62.5552 116.813 62.2246 116.35 61.5633C115.424 60.439 115.755 58.6535 114.895 57.4631C114.631 57.1324 114.3 56.8018 114.102 56.405C113.639 55.5453 113.97 54.5533 113.903 53.6274C113.837 51.1144 111.39 49.3289 109.274 47.9401C108.216 47.2788 107.158 46.4852 106.629 45.3609C106.43 44.898 106.298 44.3028 105.901 43.9722C105.439 43.5754 104.777 43.6415 104.248 43.377C103.521 42.9802 103.256 42.1866 102.793 41.4592C101.074 38.5494 97.3704 40.2688 94.659 39.4091C93.5348 39.0123 92.4767 38.4171 91.3524 38.1526C87.9797 37.2929 85.0699 40.0704 81.7633 39.6075C81.4988 39.5413 81.2342 39.4752 80.9036 39.5413C80.5729 39.5413 80.3084 39.6736 80.0439 39.7397C78.5228 40.2027 76.8695 40.864 76.2743 42.3189C76.1421 42.5834 76.0759 42.9141 75.8114 43.1786C75.5469 43.4431 75.1501 43.5093 74.8194 43.5754C73.6952 43.8399 72.571 44.3028 71.6451 45.0303C70.7854 45.7577 70.1241 46.882 70.1902 48.0724C70.1902 48.403 70.0579 48.9982 69.9918 49.3289C68.9337 49.4611 67.7433 50.0563 67.8095 51.0483C67.6111 51.0483 67.4863 51.0318 67.2804 51.0483C65.7305 51.1728 65.2964 53.1645 64.3045 53.6936C62.5189 54.5533 62.2544 57.1986 61.7915 58.918C61.4608 60.1084 61.1963 61.3649 61.2624 62.6214C61.2624 62.952 61.3285 63.2827 61.4608 63.6134C61.7915 65.0021 62.3866 66.3248 62.3205 67.7135C62.2544 68.5733 61.9237 69.433 61.8576 70.3588C61.7253 73.5993 65.4948 75.451 66.6191 78.2946C67.6111 80.6754 69.2644 82.7255 70.8515 84.7756C71.2483 85.3046 71.7112 85.8337 72.1742 86.2305C72.7693 86.6934 73.4968 87.0241 74.2243 87.3547C76.4727 88.3467 78.589 89.0741 80.9697 89.4709C81.3857 89.5444 82.0191 89.5906 82.6955 89.6532M82.6955 89.6532C83.59 89.7361 84.5598 89.8476 85.2021 90.0885" stroke="#241921" stroke-width="0.714286" stroke-miterlimit="10" stroke-linecap="round" stroke-linejoin="round"/>
<path d="M20.4578 84.2328C20.2285 84.2328 19.9419 84.3474 19.7127 84.5194C19.4834 84.6913 19.3688 84.9206 19.1968 85.1498C18.9103 85.6657 18.7383 86.1242 18.8529 86.64C18.9676 87.2705 19.3688 87.729 19.2542 88.4168C19.0249 89.5631 17.2481 89.5631 16.9615 90.9387C16.8469 91.5692 16.9615 92.257 17.0189 92.8874C17.1908 94.1484 17.1908 95.4666 17.1335 96.7276C17.0762 97.7019 16.9615 98.619 17.1335 99.5934C17.2481 100.224 17.5347 100.74 17.7066 101.37C17.9932 102.344 18.1078 103.376 18.2225 104.408C18.3371 105.611 18.9103 107.274 18.2225 108.42C18.0505 108.649 17.8786 108.878 17.7639 109.165C17.4774 109.738 17.592 110.426 17.4201 110.999C17.2481 111.572 16.9042 112.088 16.7323 112.661C16.3884 113.75 17.9359 114.897 18.3944 113.75C18.5091 113.464 18.4517 113.177 18.3944 112.891C18.3371 111.859 19.0249 110.999 19.4261 110.082C20.2285 108.248 20.2285 106.185 20.7444 104.236C20.8017 104.064 20.9163 103.777 21.1456 103.835C20.9736 106.127 20.7444 108.42 20.5724 110.713C20.5151 111.171 20.5151 111.63 20.5724 112.031C20.687 112.489 20.9163 112.891 21.3175 113.063C21.7187 113.234 22.2919 113.12 22.4638 112.719C22.6931 112.26 22.4065 111.687 22.2919 111.114C22.1772 110.483 22.4638 109.853 22.6358 109.222C22.9797 108.076 22.865 106.93 23.0943 105.783C23.3236 104.522 23.6101 103.262 23.5528 101.943C23.5528 101.141 23.4382 100.281 23.4955 99.4787C23.4955 98.5617 23.6675 97.7019 23.7821 96.7849C24.0687 94.6069 23.954 92.3716 23.8967 90.1936C23.8967 89.4485 23.6675 88.4741 22.9223 88.4168C22.4638 88.3595 21.8907 88.6461 21.6041 88.3022C21.4895 88.0729 21.5468 87.8437 21.6041 87.6144C21.8907 86.812 22.2919 85.8376 21.776 85.0352C21.6041 84.5194 21.0309 84.1755 20.4578 84.2328Z" fill="#FFFAFD"/>
<path d="M98.8256 130.079C99.6853 128.624 98.9579 126.177 98.7595 124.788C98.495 122.738 98.2966 120.688 98.1643 118.638C98.0982 116.852 97.7014 114.736 98.2966 112.95C96.974 113.017 96.2465 112.554 95.2545 111.892C94.7916 111.562 94.1964 110.768 94.6593 110.239C94.8577 110.041 95.3206 109.974 95.519 110.173C95.982 110.636 95.5191 110.9 96.1142 111.165C96.3788 111.297 97.7014 111.429 97.7675 111.033C97.9659 109.974 98.0321 108.85 97.8998 107.792C97.8337 107.131 97.6353 106.536 97.7675 105.874C98.0321 104.75 99.2886 104.353 99.6854 103.361C100.148 102.237 99.0902 100.981 99.8176 99.9224C100.281 99.2611 101.471 98.9966 102.132 99.4595C102.794 99.8563 102.86 100.65 102.794 101.311C102.727 101.973 102.595 102.7 102.926 103.361C103.323 104.023 103.852 104.353 103.786 105.147C103.719 105.808 103.389 106.469 103.256 107.131C103.058 107.924 103.19 108.784 103.256 109.578C103.389 110.702 103.521 111.826 103.719 112.95C103.984 114.868 104.182 116.786 104.844 118.638C104.976 118.968 105.042 119.299 104.976 119.564C104.844 119.96 104.381 120.225 104.182 120.622C103.852 121.283 104.381 122.077 104.645 122.738C104.91 123.532 104.844 124.325 104.844 125.185C104.778 126.111 105.108 127.037 105.108 127.83C105.042 129.087 103.984 127.896 103.918 127.235C103.786 125.185 102.463 123.267 102.529 121.217C102.529 121.085 102.529 120.952 102.397 120.952C102.331 120.952 102.265 120.952 102.265 121.019C101.669 121.349 101.008 121.415 100.281 121.481C99.9499 122.275 100.413 123.267 100.545 124.127C100.677 125.449 100.81 126.772 100.677 128.095C100.611 128.756 100.611 130.608 99.8176 131.004C99.6854 131.071 99.5531 131.071 99.4208 131.071C99.024 131.137 98.5611 131.203 98.1643 131.269C97.8998 131.335 97.6353 131.335 97.503 131.137C97.3707 130.938 97.7014 130.74 97.9659 130.608C98.2966 130.674 98.6272 130.409 98.8256 130.079Z" fill="#FFFAFD"/>
</svg>
