<svg width="96" height="96" viewBox="0 0 96 96" fill="none" xmlns="http://www.w3.org/2000/svg">
<path d="M41.1055 62.91V62.1996C41.1055 59.8956 42.9679 58.0332 45.2719 58.0332H46.5007" stroke="#FC65B6" stroke-width="2" stroke-miterlimit="10" stroke-linecap="round"/>
<path d="M41.0781 35.7812V49.682" stroke="#FC65B6" stroke-width="2" stroke-miterlimit="10" stroke-linecap="round" stroke-linejoin="round"/>
<path d="M41.1045 62.91V62.1996C41.1045 59.8956 39.2421 58.0332 36.9381 58.0332H17.6133" stroke="#FC65B6" stroke-width="2" stroke-miterlimit="10" stroke-linecap="round"/>
<path d="M64.6365 42.9324V32.8908C64.6365 31.7676 63.7245 30.8652 62.6109 30.8652H45.2445C42.9405 30.8652 41.0781 32.7276 41.0781 35.0316V37.0092" stroke="#FC65B6" stroke-width="2" stroke-miterlimit="10" stroke-linecap="round" stroke-linejoin="round"/>
<path d="M41.0774 37.0091V35.0315C41.0774 32.7275 39.215 30.8651 36.911 30.8651L19.4006 30.8555C18.2774 30.8555 17.375 31.7579 17.375 32.8811V62.9099H46.4918" stroke="#FC65B6" stroke-width="2" stroke-miterlimit="10" stroke-linecap="round" stroke-linejoin="round"/>
<path d="M23.8633 39.8125H35.3161" stroke="#FC65B6" stroke-width="2" stroke-miterlimit="10" stroke-linecap="round"/>
<path d="M23.8633 45.4277H35.3161" stroke="#FC65B6" stroke-width="2" stroke-miterlimit="10" stroke-linecap="round"/>
<path d="M82.4614 51.7073L59.719 40.5137L36.9766 51.7073L59.719 62.8433L82.4614 51.7073Z" stroke="#FC65B6" stroke-width="2" stroke-miterlimit="10" stroke-linecap="round" stroke-linejoin="round"/>
<path d="M72.9498 56.3711L59.721 62.8415L46.4922 56.3711V62.8991V66.6335L59.721 72.8351L72.9498 66.6335V56.3711Z" stroke="#FC65B6" stroke-width="2" stroke-miterlimit="10" stroke-linecap="round" stroke-linejoin="round"/>
<path d="M82.4648 51.707V59.2814" stroke="#FC65B6" stroke-width="2" stroke-miterlimit="10" stroke-linecap="round" stroke-linejoin="round"/>
</svg>
