<svg width="96" height="96" viewBox="0 0 96 96" fill="none" xmlns="http://www.w3.org/2000/svg">
<path d="M27.6471 28.7715L27.6469 64.4997L23.891 64.502C21.4285 64.502 19.4921 66.5155 19.4844 68.9763M27.6471 28.7715H65.5669M27.6471 28.7715L27.647 22.1726L23.8911 22.1748C21.4286 22.1748 19.4922 24.1883 19.4845 26.6492L19.4844 68.9763M19.4844 68.9763C19.4844 71.4435 21.4238 73.4403 23.891 73.4403H69.3755C71.8427 73.4403 73.7821 71.4435 73.7821 68.9763M65.5669 28.7715L65.5644 64.4997L69.3755 64.502C71.8379 64.502 73.7744 66.5155 73.7821 68.9763M65.5669 28.7715L65.5643 22.1719L69.3754 22.1741C71.8378 22.1741 73.7743 24.1883 73.782 26.6492L73.7821 68.9763" stroke="#FC65B6" stroke-width="2" stroke-miterlimit="10" stroke-linecap="round" stroke-linejoin="round"/>
<path d="M43.207 45.2096C40.91 45.1841 40.3215 45.1841 40.3215 45.1841C39.5358 45.1672 38.7521 45.269 37.9969 45.4862L37.7466 45.5582L37.3042 45.6619C36.0713 45.9509 34.6522 45.9983 33.7004 46.8337C32.6542 47.752 32.3844 49.1975 32.883 50.354C33.3817 51.5104 34.7222 51.9355 34.3625 53.211C34.0029 54.4865 33.2754 55.7874 35.1146 56.6633C36.9538 57.5391 36.7739 58.2023 38.0246 58.3214C39.2752 58.4404 39.8392 57.9897 41.0245 58.9846C42.2097 59.9795 41.5476 60.8043 43.068 60.8043C44.5884 60.8043 44.523 60.4301 45.2015 60.2601C45.8799 60.0985 47.4248 59.5713 46.9998 60.4216C46.5666 61.2719 45.4303 61.3655 46.4276 61.9777C47.4248 62.5899 48.7654 62.9726 49.6319 63.7718C50.4983 64.5796 50.2204 64.4351 51.4956 63.7208C52.7707 63.0151 56.0159 60.9998 54.9696 60.6682C54.6072 60.5534 54.387 60.059 54.2539 59.4618C53.8787 57.7773 54.5399 56.0708 55.4486 54.6037L56.84 52.3576C57.4521 51.3695 57.8875 50.286 58.1152 49.1462C58.6932 46.2521 59.7568 40.6533 59.4735 39.9887C59.0893 39.0873 59.1793 39.6315 57.8632 39.2319C56.5472 38.8322 55.8606 38.8322 54.4791 37.9989C53.0895 37.1741 51.6836 37.2422 51.5937 38.3306C51.5037 39.419 50.0978 39.8696 49.8444 40.907C49.591 41.9444 49.4112 43.6535 48.3485 41.6638C47.2777 39.674 45.6674 38.9428 45.4876 39.3679C45.3077 39.7931 46.2641 39.9802 45.4876 41.7318C44.711 43.4834 44.4413 43.6025 44.1961 44.0446C44.0326 44.3423 45.2423 45.2181 43.91 45.1926C43.7138 45.2096 43.4849 45.2096 43.207 45.2096Z" stroke="#FC65B6" stroke-width="2" stroke-miterlimit="10" stroke-linecap="round"/>
</svg>
