<svg width="96" height="96" viewBox="0 0 96 96" fill="none" xmlns="http://www.w3.org/2000/svg">
<path d="M54.9405 49.1231C63.0365 49.1231 69.5997 42.5599 69.5997 34.4639C69.5997 26.3678 63.0365 19.8047 54.9405 19.8047C46.8444 19.8047 40.2812 26.3678 40.2812 34.4639C40.2812 42.5599 46.8444 49.1231 54.9405 49.1231Z" stroke="#FC65B6" stroke-width="2" stroke-miterlimit="10" stroke-linecap="round" stroke-linejoin="round"/>
<path d="M51.0497 41.739V39.4534H49.25V37.5764H51.0497V35.6601H49.25V33.5844H51.0497V26.75H55.7532C56.8683 26.75 57.8178 26.9377 58.5686 27.3021C59.3304 27.6664 59.8935 28.1853 60.28 28.8478C60.6554 29.5103 60.8541 30.3052 60.8541 31.2106C60.8541 32.1159 60.6664 32.8998 60.28 33.5733C59.9046 34.2358 59.3304 34.7547 58.5686 35.1191C57.8068 35.4834 56.8683 35.6711 55.7532 35.6711H53.4566V37.5875H58.0607V39.4645H53.4566V41.75H51.0497V41.739ZM53.4456 33.5844H55.5434C56.6144 33.5844 57.3651 33.3856 57.7957 32.9992C58.2263 32.6017 58.4472 32.0055 58.4472 31.2106C58.4472 30.4156 58.2263 29.8194 57.7957 29.4219C57.3651 29.0245 56.6144 28.8368 55.5434 28.8368H53.4456V33.5844Z" fill="#FC65B6"/>
<path d="M55.075 60.7387L54.8104 59.7744C54.7645 59.787 54.7195 59.8029 54.6758 59.8219L55.075 60.7387ZM39.2625 52.0796L39.2313 53.0791L39.2625 52.0796ZM31.1853 51.0806C30.6335 51.1039 30.205 51.57 30.2283 52.1218C30.2516 52.6736 30.7178 53.1021 31.2695 53.0788L31.2274 52.0797L31.1853 51.0806ZM46.7375 69.8787L46.863 68.8866L46.8625 68.8866L46.7375 69.8787ZM70.2588 61.5156L69.6186 60.7474L69.6186 60.7474L70.2588 61.5156ZM66.8911 56.7658L67.0348 57.7555L66.8911 56.7658ZM41.4301 60.9494C41.4054 61.9491 41.4054 61.9491 41.4055 61.9491C41.4057 61.9491 41.4058 61.9491 41.406 61.9492C41.4064 61.9492 41.407 61.9492 41.4078 61.9492C41.4094 61.9492 41.4117 61.9493 41.4147 61.9494C41.4209 61.9495 41.4299 61.9497 41.4418 61.95C41.4657 61.9506 41.501 61.9514 41.547 61.9525C41.639 61.9546 41.7739 61.9577 41.946 61.9614C42.29 61.9688 42.7825 61.9789 43.3772 61.9893C44.5661 62.0101 46.1651 62.0324 47.8024 62.0385C49.4376 62.0446 51.1204 62.0345 52.4738 61.9898C53.1491 61.9675 53.755 61.9363 54.2372 61.8926C54.4777 61.8707 54.6999 61.8448 54.8908 61.8128C55.0605 61.7844 55.281 61.7397 55.4743 61.6556L55.075 60.7387L54.6758 59.8219C54.7202 59.8026 54.7039 59.8162 54.5605 59.8403C54.4381 59.8608 54.2706 59.8813 54.0567 59.9007C53.6299 59.9394 53.0675 59.9691 52.4078 59.9909C51.0912 60.0344 49.4371 60.0445 47.8099 60.0385C46.1848 60.0325 44.5957 60.0103 43.4122 59.9896C42.8206 59.9792 42.3308 59.9693 41.9891 59.9619C41.8183 59.9582 41.6845 59.9552 41.5935 59.953C41.548 59.952 41.5132 59.9512 41.4898 59.9506C41.4781 59.9503 41.4693 59.9501 41.4634 59.95C41.4605 59.9499 41.4583 59.9498 41.4569 59.9498C41.4561 59.9498 41.4556 59.9498 41.4552 59.9498C41.4551 59.9498 41.4549 59.9498 41.4549 59.9497C41.4548 59.9497 41.4548 59.9497 41.4301 60.9494ZM55.075 60.7387L55.3396 61.7031C56.8681 61.2837 57.8267 60.2506 57.9245 58.9232C58.0159 57.684 57.3278 56.4903 56.2714 55.7069L55.6757 56.5102L55.0801 57.3134C55.7325 57.7972 55.9588 58.3845 55.9299 58.7762C55.9076 59.0796 55.7114 59.5272 54.8104 59.7744L55.075 60.7387ZM55.6757 56.5102L56.2714 55.7069C55.2771 54.9696 52.9098 53.8804 49.9287 52.9523C46.9115 52.0129 43.1439 51.2002 39.2936 51.0801L39.2625 52.0796L39.2313 53.0791C42.8561 53.1922 46.4407 53.9611 49.3342 54.8619C52.2638 55.774 54.3656 56.7835 55.0801 57.3134L55.6757 56.5102ZM39.2625 52.0796L39.2936 51.0801C36.9673 51.0075 34.9436 51.0076 33.5007 51.0257C32.7791 51.0348 32.2023 51.0485 31.8049 51.0599C31.6062 51.0656 31.4523 51.0707 31.3476 51.0744C31.2952 51.0763 31.2552 51.0778 31.2279 51.0789C31.2143 51.0794 31.2039 51.0798 31.1968 51.0801C31.1932 51.0803 31.1905 51.0804 31.1886 51.0805C31.1876 51.0805 31.1868 51.0805 31.1863 51.0806C31.186 51.0806 31.1858 51.0806 31.1856 51.0806C31.1855 51.0806 31.1855 51.0806 31.1854 51.0806C31.1853 51.0806 31.1853 51.0806 31.2274 52.0797C31.2695 53.0788 31.2695 53.0788 31.2695 53.0788C31.2695 53.0788 31.2695 53.0788 31.2695 53.0788C31.2695 53.0788 31.2696 53.0788 31.2698 53.0788C31.2701 53.0788 31.2706 53.0788 31.2713 53.0787C31.2727 53.0787 31.2749 53.0786 31.2779 53.0785C31.284 53.0782 31.2934 53.0779 31.3059 53.0774C31.331 53.0764 31.3689 53.075 31.419 53.0732C31.5192 53.0696 31.6684 53.0646 31.8622 53.059C32.2499 53.0479 32.816 53.0345 33.5259 53.0256C34.9462 53.0077 36.94 53.0077 39.2313 53.0791L39.2625 52.0796ZM30.7188 64.7996C30.3662 65.7354 30.3663 65.7354 30.3664 65.7355C30.3665 65.7355 30.3667 65.7356 30.3669 65.7356C30.3673 65.7358 30.3679 65.736 30.3687 65.7363C30.3702 65.7369 30.3725 65.7378 30.3756 65.7389C30.3816 65.7412 30.3906 65.7445 30.4024 65.749C30.4259 65.7578 30.4608 65.7709 30.5063 65.7879C30.5974 65.822 30.7312 65.872 30.9027 65.9356C31.2456 66.0629 31.7393 66.2452 32.3434 66.4653C33.5514 66.9054 35.2027 67.4975 36.9746 68.1051C40.468 69.3029 44.5822 70.6152 46.6126 70.8709L46.7375 69.8787L46.8625 68.8866C45.0816 68.6623 41.1864 67.4349 37.6233 66.2132C35.8669 65.611 34.2281 65.0233 33.0281 64.5861C32.4282 64.3676 31.9384 64.1867 31.5988 64.0607C31.429 63.9976 31.2968 63.9483 31.2072 63.9148C31.1624 63.898 31.1283 63.8852 31.1054 63.8766C31.094 63.8723 31.0854 63.8691 31.0797 63.8669C31.0768 63.8659 31.0747 63.8651 31.0733 63.8645C31.0726 63.8643 31.0721 63.8641 31.0717 63.864C31.0716 63.8639 31.0715 63.8639 31.0714 63.8638C31.0713 63.8638 31.0713 63.8638 30.7188 64.7996ZM46.7375 69.8787L46.6121 70.8708C51.0017 71.4259 54.8903 69.97 58.8998 68.3337L58.5219 67.4078L58.1441 66.4819C54.1087 68.1288 50.6717 69.3683 46.863 68.8866L46.7375 69.8787ZM58.5219 67.4078L58.8998 68.3337C60.9405 67.5008 63.5812 66.2808 65.8699 65.1372C67.0151 64.565 68.0803 64.0078 68.944 63.5239C69.7824 63.0542 70.501 62.6154 70.899 62.2838L70.2588 61.5156L69.6186 60.7474C69.3821 60.9445 68.8192 61.3013 67.9665 61.7791C67.139 62.2427 66.1035 62.7846 64.9759 63.3481C62.719 64.4758 60.1257 65.6732 58.1441 66.4819L58.5219 67.4078ZM70.2588 61.5156L70.899 62.2838C72.3536 61.0716 72.7912 59.2094 71.9372 57.6984C71.0853 56.191 69.1829 55.4227 66.7475 55.7762L66.8911 56.7658L67.0348 57.7555C68.9629 57.4756 69.8848 58.1318 70.1961 58.6824C70.5052 59.2295 70.4449 60.0588 69.6186 60.7474L70.2588 61.5156ZM66.8911 56.7658L66.7475 55.7762C64.8418 56.0528 61.9428 57.0297 59.5969 57.8987C58.407 58.3395 57.3307 58.7636 56.5522 59.0773C56.1627 59.2343 55.8472 59.3639 55.6286 59.4544C55.5193 59.4996 55.4342 59.5352 55.3762 59.5595C55.3472 59.5716 55.3249 59.581 55.3098 59.5873C55.3022 59.5905 55.2964 59.593 55.2925 59.5946C55.2905 59.5955 55.289 59.5961 55.2879 59.5966C55.2874 59.5968 55.287 59.597 55.2867 59.5971C55.2865 59.5971 55.2864 59.5972 55.2863 59.5972C55.2862 59.5973 55.2861 59.5973 55.6757 60.5183C56.0654 61.4392 56.0654 61.4393 56.0654 61.4393C56.0654 61.4392 56.0655 61.4392 56.0655 61.4392C56.0657 61.4391 56.066 61.439 56.0664 61.4388C56.0672 61.4385 56.0684 61.438 56.0701 61.4372C56.0736 61.4358 56.0788 61.4336 56.0858 61.4306C56.0998 61.4247 56.1209 61.4159 56.1488 61.4042C56.2045 61.3809 56.2871 61.3464 56.3938 61.3022C56.6072 61.2138 56.9168 61.0867 57.2997 60.9324C58.066 60.6236 59.1241 60.2067 60.2916 59.7742C62.6606 58.8966 65.3692 57.9972 67.0348 57.7555L66.8911 56.7658Z" fill="#FC65B6"/>
<path d="M29.9521 49.0645C30.5043 49.0647 30.9521 49.5123 30.9521 50.0645V66.8936C30.952 67.4456 30.5042 67.8934 29.9521 67.8936H21.6094C21.0572 67.8936 20.6095 67.4457 20.6094 66.8936V50.0645C20.6094 49.5122 21.0571 49.0645 21.6094 49.0645H29.9521Z" stroke="#FC65B6" stroke-width="2" stroke-miterlimit="10" stroke-linecap="round" stroke-linejoin="round"/>
<path d="M25.794 57.1016C27.0026 57.1016 27.9825 56.1218 27.9825 54.9131C27.9825 53.7044 27.0026 52.7246 25.794 52.7246C24.5853 52.7246 23.6055 53.7044 23.6055 54.9131C23.6055 56.1218 24.5853 57.1016 25.794 57.1016Z" fill="#FC65B6"/>
</svg>
