<svg width="96" height="96" viewBox="0 0 96 96" fill="none" xmlns="http://www.w3.org/2000/svg">
<path d="M53.9695 61.7463C38.4271 72.4983 23.2879 77.0391 19.5247 71.8647C17.3551 68.8791 19.4191 63.2919 24.4399 56.8887" stroke="#FC65B6" stroke-width="2" stroke-miterlimit="10" stroke-linecap="round"/>
<path d="M56.457 31.757C56.505 31.7378 56.5434 31.709 56.5914 31.6898C67.0362 26.6114 75.6858 25.2866 78.4026 29.021C80.5818 32.0162 78.489 37.6514 73.4106 44.0834" stroke="#FC65B6" stroke-width="2" stroke-miterlimit="10" stroke-linecap="round"/>
<path d="M50.2939 59.1367H28.2907C25.8427 59.1367 23.8555 57.1495 23.8555 54.7015V36.1735C23.8555 33.7255 25.8427 31.7383 28.2907 31.7383H56.4187H59.4523C61.9003 31.7383 63.8875 33.7255 63.8875 36.1735V47.7895" stroke="#FC65B6" stroke-width="2" stroke-miterlimit="10" stroke-linecap="round"/>
<path d="M34.375 31.6804V28.4356C34.375 27.0052 35.5366 25.834 36.9766 25.834H50.7622C52.1926 25.834 53.3638 26.9956 53.3638 28.4356V31.738" stroke="#FC65B6" stroke-width="2" stroke-miterlimit="10" stroke-linecap="round"/>
<path d="M41.014 42.195C35.0777 41.8579 29.4505 40.4815 24.2539 38.2344" stroke="#FC65B6" stroke-width="2" stroke-miterlimit="10" stroke-linecap="round"/>
<path d="M63.4386 38.2539C58.1578 40.5292 52.4181 41.9149 46.3789 42.2145" stroke="#FC65B6" stroke-width="2" stroke-miterlimit="10" stroke-linecap="round"/>
<path d="M69.2433 65.0108L69.0321 52.1468C69.0225 51.83 69.1569 51.5324 69.3777 51.3212L71.2881 49.5164C72.5937 48.278 73.4097 46.6172 73.5825 44.822C73.5825 44.822 73.6209 44.246 73.3617 43.9772C73.1025 43.7084 72.5553 43.7372 72.5553 43.7372C70.7601 43.8044 69.0417 44.5244 67.7361 45.7628L65.8257 47.5676C65.5953 47.7788 65.2881 47.894 64.9809 47.8652L52.1553 46.9148C51.1281 46.838 50.8113 48.278 51.7809 48.6332L60.1905 51.6956C60.7089 51.8876 60.8529 52.5404 60.4593 52.9244L55.4577 57.9164L50.8401 57.3116C49.8513 57.1868 49.3521 58.454 50.1489 59.0396L54.2481 62.0348L57.0033 66.3068C57.5409 67.142 58.8369 66.71 58.7697 65.7212L58.4337 61.0748L63.7041 56.3708C64.1169 56.006 64.7601 56.1884 64.9233 56.7164L67.5057 65.2796C67.8033 66.2684 69.2625 66.038 69.2433 65.0108Z" stroke="#FC65B6" stroke-width="2" stroke-miterlimit="10" stroke-linecap="round"/>
<path d="M44.9254 47.2702H42.4582C41.623 47.2702 40.9414 46.5886 40.9414 45.7534V45.235V43.2766C40.9414 42.4414 41.623 41.7598 42.4582 41.7598H44.9254C45.7606 41.7598 46.4422 42.4414 46.4422 43.2766V45.2542V45.7534C46.4422 46.5982 45.7606 47.2702 44.9254 47.2702Z" stroke="#FC65B6" stroke-width="2" stroke-miterlimit="10" stroke-linecap="round"/>
</svg>
