<svg width="96" height="96" viewBox="0 0 96 96" fill="none" xmlns="http://www.w3.org/2000/svg">
<path d="M77.1732 57.2262C77.1732 51.7158 72.7088 47.1466 67.1984 47.1466C61.688 47.1466 57.2052 51.7158 57.2052 57.2262C57.2052 59.3478 57.8676 61.3062 59.0004 62.919L67.1984 74.8806L75.6564 62.583L75.6276 62.5638C76.5972 61.0182 77.1732 59.1942 77.1732 57.2262Z" stroke="#FC65B6" stroke-width="2" stroke-miterlimit="10" stroke-linecap="round" stroke-linejoin="round"/>
<path d="M43.9953 31.7007C43.9953 26.1903 39.531 21.6211 34.0206 21.6211C28.5102 21.6211 24.0273 26.1903 24.0273 31.7007C24.0273 33.8223 24.6897 35.7807 25.8225 37.3935L34.0206 49.3551L42.4785 37.0575L42.4497 37.0383C43.4193 35.4927 43.9953 33.6687 43.9953 31.7007Z" stroke="#FC65B6" stroke-width="2" stroke-miterlimit="10" stroke-linecap="round" stroke-linejoin="round"/>
<path d="M34.0226 49.3535H45.197C48.4898 49.3535 51.1586 52.0223 51.1586 55.3151C51.1586 58.6079 48.4898 61.2767 45.197 61.2767H24.317C21.0242 61.2767 18.3555 63.9455 18.3555 67.2383V68.8127C18.3555 72.1055 21.0242 74.7743 24.317 74.7743L67.2001 74.8798" stroke="#FC65B6" stroke-width="2" stroke-miterlimit="10" stroke-linecap="round"/>
</svg>
