<svg width="96" height="96" viewBox="0 0 96 96" fill="none" xmlns="http://www.w3.org/2000/svg">
<path d="M77.0223 28.472H36.4527C36.1935 28.4624 35.9343 28.4336 35.6751 28.4336C25.4031 28.4336 17.0703 36.7664 17.0703 47.0384C17.0703 57.3104 25.4031 65.6432 35.6751 65.6432L76.1007 65.5952L65.3391 47.048L77.0223 28.472Z" stroke="#FC65B6" stroke-width="2" stroke-miterlimit="10" stroke-linecap="round" stroke-linejoin="round"/>
<path d="M41.9156 50.1204C40.7636 52.5396 38.306 54.21 35.4644 54.21C31.5188 54.21 28.3124 51.0036 28.3124 47.058C28.3124 43.1124 31.5188 39.906 35.4644 39.906C38.21 39.906 40.5908 41.4612 41.7908 43.7364H48.4148C46.9364 37.9572 41.6948 33.666 35.4644 33.666C28.082 33.6756 22.082 39.6852 22.082 47.0676C22.082 54.45 28.082 60.45 35.4644 60.45C41.7908 60.45 47.0996 56.034 48.482 50.1204H41.9156Z" stroke="#FC65B6" stroke-width="2" stroke-miterlimit="10" stroke-linecap="round"/>
</svg>
