<svg width="96" height="96" viewBox="0 0 96 96" fill="none" xmlns="http://www.w3.org/2000/svg">
<path d="M34.982 48.1653C38.9956 48.1653 42.2492 44.9116 42.2492 40.8981C42.2492 36.8845 38.9956 33.6309 34.982 33.6309C30.9685 33.6309 27.7148 36.8845 27.7148 40.8981C27.7148 44.9116 30.9685 48.1653 34.982 48.1653Z" stroke="#FC65B6" stroke-width="2" stroke-miterlimit="10" stroke-linecap="round" stroke-linejoin="round"/>
<path d="M45.5625 29.7414C48.7113 26.103 53.3673 23.8086 58.5609 23.8086C68.0553 23.8086 75.7545 31.5078 75.7545 41.0022C75.7545 44.9958 74.3913 48.6822 72.0969 51.6006" stroke="#FC65B6" stroke-width="2" stroke-miterlimit="10" stroke-linecap="round" stroke-linejoin="round"/>
<path d="M24.1953 72.203H61.0113L67.9603 53.7422H38.9603L32.0113 72.203" stroke="#FC65B6" stroke-width="2" stroke-miterlimit="10" stroke-linecap="round" stroke-linejoin="round"/>
<path d="M24.0977 72.0855V59.1159C24.0977 53.2023 28.8881 48.4023 34.8113 48.4023H35.1089C39.0641 48.4023 42.5105 50.5431 44.3729 53.7303" stroke="#FC65B6" stroke-width="2" stroke-miterlimit="10" stroke-linecap="round" stroke-linejoin="round"/>
<path d="M58.043 28.6758L58.043 41.2317L66.2705 41.2317" stroke="#FC65B6" stroke-width="2" stroke-miterlimit="10" stroke-linecap="round" stroke-linejoin="round"/>
</svg>
