<svg width="82" height="82" viewBox="0 0 82 82" fill="none" xmlns="http://www.w3.org/2000/svg">
<rect x="40.5" y="40.5" width="1" height="1" fill="#28251E"/>
<rect x="41.5" y="41.5" width="1" height="1" fill="#E0DCD3"/>
<rect x="42.5" y="42.5" width="1" height="1" fill="#E0DCD3"/>
<rect x="43.5" y="43.5" width="1" height="1" fill="#E0DCD3"/>
<rect x="44.5" y="44.5" width="1" height="1" fill="#E0DCD3"/>
<rect x="45.5" y="45.5" width="1" height="1" fill="#E0DCD3"/>
<rect x="46.5" y="46.5" width="1" height="1" fill="#E0DCD3"/>
<rect x="47.5" y="47.5" width="1" height="1" fill="#E0DCD3"/>
<rect x="48.5" y="48.5" width="1" height="1" fill="#E0DCD3"/>
<rect x="49.5" y="49.5" width="1" height="1" fill="#E0DCD3"/>
<rect x="50.5" y="50.5" width="1" height="1" fill="#E0DCD3"/>
<rect x="51.5" y="51.5" width="1" height="1" fill="#E0DCD3"/>
<rect x="52.5" y="52.5" width="1" height="1" fill="#E0DCD3"/>
<rect x="53.5" y="53.5" width="1" height="1" fill="#E0DCD3"/>
<rect x="54.5" y="54.5" width="1" height="1" fill="#E0DCD3"/>
<rect x="55.5" y="55.5" width="1" height="1" fill="#E0DCD3"/>
<rect x="56.5" y="56.5" width="1" height="1" fill="#E0DCD3"/>
<rect x="57.5" y="57.5" width="1" height="1" fill="#E0DCD3"/>
<rect x="58.5" y="58.5" width="1" height="1" fill="#E0DCD3"/>
<rect x="59.5" y="59.5" width="1" height="1" fill="#E0DCD3"/>
<rect x="60.5" y="60.5" width="1" height="1" fill="#E0DCD3"/>
<rect x="61.5" y="61.5" width="1" height="1" fill="#E0DCD3"/>
<rect x="62.5" y="62.5" width="1" height="1" fill="#E0DCD3"/>
<rect x="63.5" y="63.5" width="1" height="1" fill="#E0DCD3"/>
<rect x="64.5" y="64.5" width="1" height="1" fill="#E0DCD3"/>
<rect x="65.5" y="65.5" width="1" height="1" fill="#E0DCD3"/>
<rect x="66.5" y="66.5" width="1" height="1" fill="#E0DCD3"/>
<rect x="67.5" y="67.5" width="1" height="1" fill="#E0DCD3"/>
<rect x="68.5" y="68.5" width="1" height="1" fill="#E0DCD3"/>
<rect x="69.5" y="69.5" width="1" height="1" fill="#E0DCD3"/>
<rect x="70.5" y="70.5" width="1" height="1" fill="#E0DCD3"/>
<rect x="71.5" y="71.5" width="1" height="1" fill="#E0DCD3"/>
<rect x="72.5" y="72.5" width="1" height="1" fill="#E0DCD3"/>
<rect x="73.5" y="73.5" width="1" height="1" fill="#E0DCD3"/>
<rect x="74.5" y="74.5" width="1" height="1" fill="#E0DCD3"/>
<rect x="75.5" y="75.5" width="1" height="1" fill="#E0DCD3"/>
<rect x="76.5" y="76.5" width="1" height="1" fill="#E0DCD3"/>
<rect x="77.5" y="77.5" width="1" height="1" fill="#E0DCD3"/>
<rect x="78.5" y="78.5" width="1" height="1" fill="#E0DCD3"/>
<rect x="79.5" y="79.5" width="1" height="1" fill="#E0DCD3"/>
<rect x="80.5" y="80.5" width="1" height="1" fill="#E0DCD3"/>
<rect x="39.5" y="39.5" width="1" height="1" fill="#E0DCD3"/>
<rect x="38.5" y="38.5" width="1" height="1" fill="#E0DCD3"/>
<rect x="37.5" y="37.5" width="1" height="1" fill="#E0DCD3"/>
<rect x="36.5" y="36.5" width="1" height="1" fill="#E0DCD3"/>
<rect x="35.5" y="35.5" width="1" height="1" fill="#E0DCD3"/>
<rect x="34.5" y="34.5" width="1" height="1" fill="#E0DCD3"/>
<rect x="33.5" y="33.5" width="1" height="1" fill="#E0DCD3"/>
<rect x="32.5" y="32.5" width="1" height="1" fill="#E0DCD3"/>
<rect x="31.5" y="31.5" width="1" height="1" fill="#E0DCD3"/>
<rect x="30.5" y="30.5" width="1" height="1" fill="#E0DCD3"/>
<rect x="29.5" y="29.5" width="1" height="1" fill="#E0DCD3"/>
<rect x="28.5" y="28.5" width="1" height="1" fill="#E0DCD3"/>
<rect x="27.5" y="27.5" width="1" height="1" fill="#E0DCD3"/>
<rect x="26.5" y="26.5" width="1" height="1" fill="#E0DCD3"/>
<rect x="25.5" y="25.5" width="1" height="1" fill="#E0DCD3"/>
<rect x="24.5" y="24.5" width="1" height="1" fill="#E0DCD3"/>
<rect x="23.5" y="23.5" width="1" height="1" fill="#E0DCD3"/>
<rect x="22.5" y="22.5" width="1" height="1" fill="#E0DCD3"/>
<rect x="21.5" y="21.5" width="1" height="1" fill="#E0DCD3"/>
<rect x="20.5" y="20.5" width="1" height="1" fill="#E0DCD3"/>
<rect x="19.5" y="19.5" width="1" height="1" fill="#E0DCD3"/>
<rect x="18.5" y="18.5" width="1" height="1" fill="#E0DCD3"/>
<rect x="17.5" y="17.5" width="1" height="1" fill="#E0DCD3"/>
<rect x="16.5" y="16.5" width="1" height="1" fill="#E0DCD3"/>
<rect x="15.5" y="15.5" width="1" height="1" fill="#E0DCD3"/>
<rect x="14.5" y="14.5" width="1" height="1" fill="#E0DCD3"/>
<rect x="13.5" y="13.5" width="1" height="1" fill="#E0DCD3"/>
<rect x="12.5" y="12.5" width="1" height="1" fill="#E0DCD3"/>
<rect x="11.5" y="11.5" width="1" height="1" fill="#E0DCD3"/>
<rect x="10.5" y="10.5" width="1" height="1" fill="#E0DCD3"/>
<rect x="9.5" y="9.5" width="1" height="1" fill="#E0DCD3"/>
<rect x="8.5" y="8.5" width="1" height="1" fill="#E0DCD3"/>
<rect x="7.5" y="7.5" width="1" height="1" fill="#E0DCD3"/>
<rect x="6.5" y="6.5" width="1" height="1" fill="#E0DCD3"/>
<rect x="5.5" y="5.5" width="1" height="1" fill="#E0DCD3"/>
<rect x="4.5" y="4.5" width="1" height="1" fill="#E0DCD3"/>
<rect x="3.5" y="3.5" width="1" height="1" fill="#E0DCD3"/>
<rect x="2.5" y="2.5" width="1" height="1" fill="#E0DCD3"/>
<rect x="1.5" y="1.5" width="1" height="1" fill="#E0DCD3"/>
<rect x="0.5" y="0.5" width="1" height="1" fill="#E0DCD3"/>
<path d="M41 1V40.5" stroke="#EBE8E4"/>
<path d="M41 41.5V81" stroke="#EBE8E4"/>
<path d="M1 41H40.5" stroke="#EBE8E4"/>
<path d="M41.5 41H81" stroke="#EBE8E4"/>
</svg>
