<svg width="128" height="128" viewBox="0 0 128 128" fill="none" xmlns="http://www.w3.org/2000/svg">
<rect width="128" height="128" fill="#FFFEFA"/>
<path d="M25.7559 38.8011V38.0604L25.8771 37.9373C27.0095 38.0291 28.2922 38.0755 29.7249 38.0767C30.9732 38.0767 32.1623 38.0303 33.2924 37.9373L33.4335 38.0604C33.3864 38.9369 33.3629 41.4432 33.3629 45.5792C33.3629 47.2694 33.3454 49.7582 33.3105 53.0455L33.4335 53.185C34.4827 53.1741 35.5079 53.1137 36.5089 53.0039L36.7368 53.2302C36.0923 55.3243 35.5609 57.4515 35.1448 59.6027H34.3941C34.3941 59.0667 34.3675 58.2325 34.3145 57.1001C34.2614 55.9677 34.1806 55.2952 34.0721 55.0828C33.9173 54.8284 33.6786 54.6363 33.3973 54.5395C33.0608 54.3934 32.3673 54.3204 31.3169 54.3204H30.7398L26.1394 54.286C25.2547 54.286 24.1983 54.3059 22.9753 54.3476C21.7524 54.3892 21.0252 54.4435 20.8045 54.5123C20.5872 54.5799 20.3972 54.7151 20.2618 54.8981C20.0934 55.1718 19.9946 55.4827 19.9741 55.8035C19.9211 56.2236 19.8945 57.1749 19.8945 58.6575C19.8945 58.9255 19.8945 59.246 19.9126 59.619H19.1601C18.6475 56.8617 18.0879 54.656 17.4813 53.0021L17.7092 52.7576C18.5257 52.8868 19.2077 52.9683 19.7552 53.0021L25.5261 44.9219C27.5197 42.1452 28.584 40.6144 28.7191 40.3295C28.8273 40.1349 28.8956 39.9207 28.9199 39.6993C28.9199 39.3721 28.6455 39.191 28.0968 39.156L25.8933 38.9442L25.7559 38.8011ZM30.2152 40.009C26.4138 45.5418 23.4927 49.9356 21.4521 53.1904H30.5643L30.5299 46.6603C30.5191 43.4623 30.4956 41.2452 30.4594 40.009H30.2152Z" fill="#28251E"/>
<path d="M38.4174 46.1967C38.4174 43.3983 39.2279 41.25 40.8488 39.7518C42.4697 38.2536 44.6791 37.5045 47.4771 37.5045C49.133 37.5045 50.57 37.7845 51.7881 38.3447C52.983 38.8826 53.9799 39.7811 54.6391 40.9144C55.3181 42.0697 55.6576 43.5329 55.6576 45.3039C55.6767 46.9163 55.3766 48.5165 54.7748 50.0123C54.2095 51.4152 53.2341 52.6145 51.9762 53.4529C50.7002 54.3161 49.0359 54.7477 46.9833 54.7477C45.1079 54.7477 43.54 54.4037 42.2797 53.7155C41.0321 53.0399 40.0259 51.9917 39.4015 50.7167C38.7231 49.3084 38.3859 47.7599 38.4174 46.1967ZM41.6357 45.9776C41.6362 47.2835 41.8188 48.583 42.1784 49.8384C42.5475 51.1278 43.1716 52.1171 44.0508 52.8064C44.9653 53.5057 46.0916 53.8701 47.2419 53.8387C49.0257 53.8387 50.3378 53.1209 51.1784 51.6855C52.019 50.2501 52.4412 48.3245 52.4448 45.9088C52.4448 44.1921 52.2403 42.8037 51.8315 41.7437C51.4785 40.7618 50.8505 39.9024 50.0224 39.2683C49.2228 38.6731 48.246 38.3749 47.0918 38.3737C46.2224 38.3557 45.3625 38.5575 44.5917 38.9604C43.8611 39.3589 43.2441 39.9373 42.7989 40.6409C42.3325 41.3548 42.0144 42.1555 41.8636 42.9951C41.6997 43.9805 41.6234 44.9786 41.6357 45.9776ZM45.8327 35.3857L49.5051 28.4718L50.292 28.4355L51.0627 29.341L46.3229 35.6791L45.8327 35.3857Z" fill="#28251E"/>
<path d="M75.7235 37.9427C76.6738 38.0115 77.5078 38.0465 78.2254 38.0477C79.0986 38.0477 80.0073 38.0127 80.9516 37.9427L81.0927 38.064V38.7992L80.9516 38.9405C80.0785 39.0214 79.5454 39.0999 79.3524 39.1759C79.1462 39.265 78.9805 39.4276 78.8875 39.6323C78.7717 39.8586 78.7066 40.429 78.6777 41.3381C78.6487 42.2472 78.6433 43.3645 78.6433 44.6828V47.6581C78.6433 48.5213 78.6548 49.5281 78.6777 50.6787C78.7006 51.8292 78.7735 52.5149 78.8966 52.7358C78.9961 52.9358 79.1634 53.0937 79.3687 53.1813C79.5623 53.2592 80.0923 53.337 80.9516 53.4185L81.0927 53.5417V54.2769L80.9516 54.4163C79.7975 54.3222 78.5414 54.2757 77.1834 54.2769C75.7784 54.2769 74.5277 54.3234 73.4314 54.4163L73.2921 54.2769V53.5417L73.4314 53.4185C74.3052 53.337 74.8389 53.2592 75.0324 53.1813C75.2382 53.0932 75.4035 52.931 75.4956 52.7268C75.6113 52.4986 75.6765 51.9336 75.6964 51.0282C75.7163 50.1227 75.7235 49.0018 75.7235 47.6581V40.9886H75.5299L69.077 54.2769H68.5018L62.275 40.9886H62.0814L62.2388 50.0919C62.2521 50.7692 62.2581 51.1917 62.2569 51.3595C62.2569 52.0712 62.304 52.5366 62.398 52.7521C62.4434 52.8583 62.5114 52.9532 62.5974 53.0301C62.6833 53.1071 62.7851 53.1643 62.8955 53.1976C63.4384 53.325 63.9919 53.4014 64.549 53.4258L64.6883 53.5489V54.2841L64.549 54.4236C63.4997 54.3294 62.4674 54.2829 61.4519 54.2841C60.5679 54.2841 59.5831 54.3306 58.4977 54.4236L58.3566 54.2841V53.5489L58.4977 53.4258C59.4873 53.3551 60.1005 53.2737 60.3339 53.1813C60.4488 53.1353 60.5514 53.0631 60.6334 52.9703C60.7154 52.8776 60.7745 52.7669 60.806 52.6471C60.8869 52.3851 60.9273 51.5358 60.9273 50.0992L60.9978 42.2743C60.9978 40.9319 60.9628 40.1176 60.8929 39.8314C60.8699 39.7066 60.8195 39.5884 60.7454 39.4853C60.6712 39.3823 60.5752 39.297 60.4641 39.2357C60.2483 39.1246 59.5928 39.0286 58.4977 38.9477L58.3566 38.8065V38.0604L58.4977 37.9391C59.6868 38.0079 60.6252 38.0429 61.3126 38.0441C62.0362 38.0441 62.9341 38.0091 64.0063 37.9391L69.5691 50.0883H69.8314L75.7235 37.9427Z" fill="#28251E"/>
<path d="M87.6163 37.8902C87.8915 37.885 88.1647 37.9366 88.419 38.042C88.6734 38.1473 88.9032 38.304 89.0943 38.5023C89.2898 38.6969 89.4439 38.9291 89.5475 39.1849C89.651 39.4407 89.7018 39.7148 89.6967 39.9908C89.6949 40.4045 89.5706 40.8083 89.3395 41.1513C89.1085 41.4942 88.781 41.7609 88.3985 41.9175C88.016 42.0742 87.5957 42.1138 87.1908 42.0313C86.7858 41.9489 86.4144 41.7481 86.1234 41.4543C85.8325 41.1605 85.6351 40.787 85.5562 40.3809C85.4773 39.9748 85.5205 39.5545 85.6803 39.173C85.8401 38.7915 86.1094 38.466 86.454 38.2376C86.7985 38.0093 87.203 37.8884 87.6163 37.8902ZM87.6163 50.2676C87.8915 50.2624 88.1647 50.314 88.419 50.4194C88.6734 50.5247 88.9032 50.6814 89.0943 50.8797C89.2898 51.0743 89.4439 51.3065 89.5475 51.5623C89.651 51.8181 89.7018 52.0923 89.6967 52.3682C89.6949 52.7819 89.5706 53.1857 89.3395 53.5287C89.1085 53.8716 88.781 54.1383 88.3985 54.2949C88.016 54.4516 87.5957 54.4912 87.1908 54.4087C86.7858 54.3263 86.4144 54.1255 86.1234 53.8317C85.8325 53.5379 85.6351 53.1644 85.5562 52.7583C85.4773 52.3522 85.5205 51.9319 85.6803 51.5504C85.8401 51.1689 86.1094 50.8434 86.454 50.6151C86.7985 50.3867 87.203 50.2658 87.6163 50.2676Z" fill="#28251E"/>
<path d="M95.8004 42.4065L95.1184 42.2254L94.9791 42.0444C94.9899 41.8633 94.9953 41.617 94.9953 41.32L94.9791 39.8713C95.9918 39.1886 97.0627 38.5965 98.1793 38.1021C99.0846 37.7348 100.054 37.5502 101.03 37.5588C102.839 37.5588 104.267 38.0314 105.314 38.9767C106.361 39.922 106.886 41.2059 106.888 42.8285L106.801 46.347V51.5642C106.801 52.1944 106.854 52.6085 106.959 52.8064C107.047 52.9896 107.199 53.1335 107.387 53.2103C107.755 53.314 108.133 53.3748 108.514 53.3914L108.655 53.5489V54.2497L108.514 54.3892C107.606 54.3071 106.895 54.2666 106.382 54.2678C105.891 54.2678 105.133 54.3083 104.108 54.3892L103.845 54.1447L103.916 51.327L101.676 53.0908C100.896 53.7101 100.371 54.1187 100.102 54.3167C99.4366 54.5896 98.7231 54.7263 98.0038 54.7187C96.6168 54.7187 95.5242 54.3487 94.7258 53.6087C93.9274 52.8686 93.5276 51.8618 93.5264 50.5881C93.5264 49.2698 93.8707 48.1929 94.5594 47.3575C95.248 46.5221 96.2882 45.8683 97.68 45.3963C99.0754 44.9231 101.154 44.4945 103.916 44.1106C103.924 43.4886 103.874 42.8672 103.767 42.2544C103.654 41.7138 103.405 41.2109 103.044 40.793C102.663 40.3295 102.169 39.9711 101.611 39.7518C100.99 39.5098 100.327 39.3905 99.6609 39.4005C99.2855 39.3999 98.9109 39.432 98.5411 39.4964C98.1915 39.5573 97.8507 39.6607 97.5262 39.8043C97.3245 39.8839 97.1312 39.9834 96.9491 40.1013C96.8601 40.1888 96.7942 40.2971 96.7573 40.4164C96.7212 40.487 96.5946 40.7659 96.372 41.2566C96.2074 41.6048 96.0613 41.9614 95.9342 42.325L95.8004 42.4065ZM103.916 45.1229C101.221 45.5538 99.3298 46.0875 98.2408 46.7237C97.1517 47.3599 96.609 48.3861 96.6126 49.8022C96.6126 50.7125 96.8538 51.4066 97.3363 51.8847C97.8187 52.3628 98.482 52.6042 99.3262 52.6091C100.877 52.6091 102.411 51.7103 103.927 49.9127L103.916 45.1229Z" fill="#28251E"/>
<path d="M28.0152 72.6121V74.8213H27.3278V73.2567H21.2494V74.8213H20.5619V72.6193H20.9111C21.3688 72.5921 21.6872 72.23 21.8663 71.5328C22.0778 70.5526 22.1876 69.5531 22.1937 68.5502L22.2751 66.2885H26.9786V72.6266L28.0152 72.6121ZM22.608 71.2322C22.4777 71.9203 22.26 72.3803 21.9549 72.6121H26.2442V66.915H22.9137L22.854 68.6082C22.8376 69.4878 22.7554 70.3649 22.608 71.2322Z" fill="#28251E"/>
<path d="M30.6925 72.8457C30.1466 72.5522 29.6921 72.1135 29.3791 71.5781C29.0702 71.0246 28.908 70.4012 28.908 69.7672C28.908 69.1332 29.0702 68.5098 29.3791 67.9563C29.6921 67.4209 30.1466 66.9823 30.6925 66.6887C31.2696 66.386 31.9115 66.2279 32.563 66.2279C33.2146 66.2279 33.8565 66.386 34.4336 66.6887C34.9766 66.9844 35.4288 67.4227 35.7416 67.9563C36.0547 68.511 36.2192 69.1373 36.2192 69.7744C36.2192 70.4116 36.0547 71.0379 35.7416 71.5926C35.4293 72.1266 34.977 72.565 34.4336 72.8602C33.8565 73.1629 33.2146 73.321 32.563 73.321C31.9115 73.321 31.2696 73.1629 30.6925 72.8602V72.8457ZM34.0609 72.2789C34.4975 72.0363 34.8586 71.6779 35.1048 71.2431C35.3531 70.7896 35.4832 70.2807 35.4832 69.7636C35.4832 69.2464 35.3531 68.7376 35.1048 68.2841C34.8586 67.8493 34.4975 67.4908 34.0609 67.2483C33.6006 67.0033 33.0871 66.8752 32.5658 66.8752C32.0444 66.8752 31.531 67.0033 31.0706 67.2483C30.6308 67.4902 30.2659 67.8485 30.0159 68.2841C29.7644 68.7365 29.6323 69.2458 29.6323 69.7636C29.6323 70.2814 29.7644 70.7906 30.0159 71.2431C30.265 71.6794 30.6301 72.0379 31.0706 72.2789C31.531 72.5239 32.0444 72.6519 32.5658 72.6519C33.0871 72.6519 33.6006 72.5239 34.0609 72.2789Z" fill="#28251E"/>
<path d="M45.2176 66.2777V73.2496H44.5102V67.672L41.775 72.3641H41.4258L38.6905 67.7028V73.2496H37.985V66.2777H38.591L41.6158 71.4459L44.6115 66.2777H45.2176Z" fill="#28251E"/>
<path d="M57.405 66.2777V73.2496H56.6995V67.672L53.9624 72.3641H53.615L50.8779 67.7028V73.2496H50.1724V66.2777H50.773L53.7977 71.4459L56.7935 66.2777H57.405Z" fill="#28251E"/>
<path d="M60.9326 72.8457C60.3867 72.5522 59.9322 72.1135 59.6192 71.5781C59.3103 71.0246 59.1481 70.4012 59.1481 69.7672C59.1481 69.1332 59.3103 68.5098 59.6192 67.9563C59.9322 67.4209 60.3867 66.9823 60.9326 66.6887C61.5098 66.386 62.1516 66.2279 62.8032 66.2279C63.4547 66.2279 64.0966 66.386 64.6737 66.6887C65.2167 66.9844 65.6688 67.4227 65.9817 67.9563C66.2947 68.511 66.4593 69.1373 66.4593 69.7744C66.4593 70.4116 66.2947 71.0379 65.9817 71.5926C65.6694 72.1266 65.2171 72.565 64.6737 72.8602C64.0966 73.1629 63.4547 73.321 62.8032 73.321C62.1516 73.321 61.5098 73.1629 60.9326 72.8602V72.8457ZM64.2992 72.2789C64.7369 72.0372 65.0989 71.6786 65.3449 71.2431C65.5932 70.7896 65.7233 70.2807 65.7233 69.7636C65.7233 69.2464 65.5932 68.7376 65.3449 68.2841C65.0983 67.849 64.7364 67.4906 64.2992 67.2483C63.8392 67.0033 63.3261 66.8752 62.805 66.8752C62.2839 66.8752 61.7708 67.0033 61.3107 67.2483C60.8709 67.4902 60.506 67.8485 60.256 68.2841C60.0045 68.7365 59.8724 69.2458 59.8724 69.7636C59.8724 70.2814 60.0045 70.7906 60.256 71.2431C60.5051 71.6794 60.8702 72.0379 61.3107 72.2789C61.7708 72.5238 62.2839 72.6519 62.805 72.6519C63.3261 72.6519 63.8392 72.5238 64.2992 72.2789Z" fill="#28251E"/>
<path d="M73.484 66.2776V73.2495H72.7604V66.9114H69.3974L69.3178 69.242C69.3027 70.0221 69.2246 70.7997 69.0844 71.5672C69.0096 72.0456 68.8162 72.4976 68.5218 72.8819C68.3974 73.0251 68.2424 73.1385 68.0683 73.2137C67.8942 73.289 67.7055 73.3241 67.516 73.3165C67.3281 73.3154 67.141 73.2916 66.9588 73.2459L67.0185 72.5886C67.1263 72.6149 67.2368 72.6282 67.3477 72.6284C67.4853 72.6313 67.6216 72.6012 67.7453 72.5407C67.8689 72.4803 67.9764 72.3911 68.0587 72.2807C68.2784 71.9554 68.4196 71.5834 68.4711 71.1942C68.5759 70.5532 68.6364 69.9058 68.6521 69.2565L68.7516 66.2686L73.484 66.2776Z" fill="#28251E"/>
<path d="M77.0042 72.8457C76.4582 72.5522 76.0038 72.1135 75.6908 71.5781C75.3819 71.0246 75.2196 70.4012 75.2196 69.7672C75.2196 69.1332 75.3819 68.5098 75.6908 67.9563C76.0038 67.4209 76.4582 66.9823 77.0042 66.6887C77.5813 66.386 78.2232 66.2279 78.8747 66.2279C79.5263 66.2279 80.1682 66.386 80.7453 66.6887C81.2883 66.9844 81.7404 67.4227 82.0532 67.9563C82.3663 68.511 82.5309 69.1373 82.5309 69.7744C82.5309 70.4116 82.3663 71.0379 82.0532 71.5926C81.741 72.1266 81.2886 72.565 80.7453 72.8602C80.1682 73.1629 79.5263 73.321 78.8747 73.321C78.2232 73.321 77.5813 73.1629 77.0042 72.8602V72.8457ZM80.3726 72.2789C80.8091 72.0363 81.1703 71.6779 81.4165 71.2431C81.6647 70.7896 81.7949 70.2807 81.7949 69.7636C81.7949 69.2464 81.6647 68.7376 81.4165 68.2841C81.1703 67.8493 80.8091 67.4908 80.3726 67.2483C79.9122 67.0033 79.3988 66.8752 78.8775 66.8752C78.3561 66.8752 77.8427 67.0033 77.3823 67.2483C76.9424 67.4902 76.5776 67.8485 76.3276 68.2841C76.076 68.7365 75.944 69.2458 75.944 69.7636C75.944 70.2814 76.076 70.7906 76.3276 71.2431C76.5767 71.6794 76.9418 72.0379 77.3823 72.2789C77.8427 72.5239 78.3561 72.6519 78.8775 72.6519C79.3988 72.6519 79.9122 72.5239 80.3726 72.2789Z" fill="#28251E"/>
<path d="M90.498 72.6121V74.8213H89.8106V73.2567H83.7321L83.7213 74.8213H83.0357L83.0447 72.6193H83.3938C83.8515 72.5921 84.1699 72.23 84.349 71.5328C84.5606 70.5526 84.6703 69.5531 84.6765 68.5502L84.7561 66.2885H89.4596V72.6266L90.498 72.6121ZM85.0889 71.2322C84.9599 71.9203 84.7428 72.3803 84.4377 72.6121H88.7269V66.915H85.3929L85.3332 68.6082C85.3184 69.4878 85.2367 70.365 85.0889 71.2322Z" fill="#28251E"/>
<path d="M96.8007 69.3254C97.2349 69.6972 97.452 70.2405 97.452 70.9552C97.452 71.7049 97.2216 72.2741 96.7609 72.6628C96.3002 73.0516 95.6369 73.246 94.771 73.246H92.0049V66.274H92.7286V68.764H94.9139C95.7364 68.7664 96.3654 68.9535 96.8007 69.3254ZM96.2128 72.2337C96.5469 71.9475 96.7145 71.525 96.7157 70.966C96.7157 69.8976 96.059 69.3634 94.7456 69.3634H92.7268V72.661H94.7456C95.3897 72.6622 95.8787 72.5198 96.2128 72.2337ZM98.6568 66.2777H99.3804V73.2496H98.6568V66.2777Z" fill="#28251E"/>
<path d="M101.799 66.2777L103.789 69.0375L105.759 66.2777H106.624L104.247 69.6242L106.814 73.246H105.947L103.778 70.2526L101.618 73.2496H100.774L103.33 69.655L100.953 66.2777H101.799Z" fill="#28251E"/>
<path d="M26.8935 83.3325H23.0131L22.1773 85.1959H21.4121L24.596 78.224H25.3196L28.5035 85.1959H27.7275L26.8935 83.3325ZM26.6239 82.735L24.9542 78.99L23.2826 82.735H26.6239Z" fill="#28251E"/>
<path d="M34.5367 78.8669C34.7755 79.0915 34.9658 79.3626 35.0959 79.6637C35.226 79.9647 35.2932 80.2892 35.2932 80.6172C35.2932 80.9451 35.226 81.2697 35.0959 81.5707C34.9658 81.8717 34.7755 82.1428 34.5367 82.3674C34.0326 82.7899 33.3361 83.0006 32.4472 82.9994H30.5767V85.2014H29.8404V78.2295H32.4472C33.3349 78.2295 34.0314 78.442 34.5367 78.8669ZM34.0102 81.9002C34.1927 81.7427 34.3365 81.5453 34.4306 81.3233C34.5247 81.1013 34.5665 80.8606 34.553 80.6199C34.568 80.376 34.5269 80.132 34.4328 79.9065C34.3387 79.6811 34.1941 79.4803 34.0102 79.3197C33.6484 79.0166 33.1208 78.8657 32.4273 78.8669H30.5767V82.3529H32.4273C33.1172 82.3529 33.6448 82.202 34.0102 81.9002Z" fill="#28251E"/>
<path d="M36.726 78.2295L38.7051 80.9875L40.6752 78.2295H41.5471L39.1682 81.576L41.7353 85.1978H40.8705L38.7105 82.199L36.5523 85.1978H35.7057L38.2637 81.6014L35.8848 78.2259L36.726 78.2295Z" fill="#28251E"/>
<path d="M42.884 78.2295H43.6076V84.0062L48.0651 78.2295H48.7308V85.2014H48.0072V79.4337L43.5497 85.2014H42.8822L42.884 78.2295Z" fill="#28251E"/>
<path d="M55.6394 78.8669H53.1918V85.205H52.4681V78.8669H50.0205V78.2295H55.6412L55.6394 78.8669Z" fill="#28251E"/>
<path d="M61.8573 84.564V85.2014H56.933V78.2295H61.7089V78.8669H57.6693V81.3406H61.2657V81.969H57.6639V84.5586L61.8573 84.564Z" fill="#28251E"/>
<path d="M65.7973 82.0034H64.2053V85.2014H63.4817V78.2295H64.2053V81.3569H65.7973L68.149 78.2295H68.945L66.3581 81.6159L69.0933 85.2014H68.2485L65.7973 82.0034Z" fill="#28251E"/>
<path d="M74.7323 78.8669H72.2847V85.205H71.561V78.8669H69.1134V78.2295H74.7341L74.7323 78.8669Z" fill="#28251E"/>
<path d="M77.1056 84.7976C76.5596 84.504 76.1052 84.0654 75.7922 83.5299C75.4833 82.9765 75.3211 82.3531 75.3211 81.7191C75.3211 81.0851 75.4833 80.4616 75.7922 79.9082C76.1052 79.3727 76.5596 78.9341 77.1056 78.6406C77.6827 78.3379 78.3246 78.1797 78.9761 78.1797C79.6277 78.1797 80.2695 78.3379 80.8467 78.6406C81.39 78.9357 81.8423 79.3741 82.1546 79.9082C82.4677 80.4629 82.6323 81.0892 82.6323 81.7263C82.6323 82.3634 82.4677 82.9897 82.1546 83.5444C81.8423 84.0785 81.39 84.5169 80.8467 84.812C80.2695 85.1147 79.6277 85.2729 78.9761 85.2729C78.3246 85.2729 77.6827 85.1147 77.1056 84.812V84.7976ZM80.474 84.2289C80.911 83.9879 81.2724 83.6298 81.5178 83.1949C81.7661 82.7414 81.8963 82.2326 81.8963 81.7154C81.8963 81.1983 81.7661 80.6895 81.5178 80.2359C81.2717 79.8011 80.9105 79.4427 80.474 79.2001C80.0137 78.9552 79.5002 78.8271 78.9789 78.8271C78.4575 78.8271 77.9441 78.9552 77.4837 79.2001C77.0432 79.4411 76.6781 79.7997 76.429 80.2359C76.1774 80.6884 76.0454 81.1976 76.0454 81.7154C76.0454 82.2332 76.1774 82.7425 76.429 83.1949C76.6783 83.6305 77.0434 83.9885 77.4837 84.2289C77.9437 84.475 78.4573 84.6037 78.9789 84.6037C79.5004 84.6037 80.014 84.475 80.474 84.2289Z" fill="#28251E"/>
<path d="M89.0887 78.8669C89.3275 79.0915 89.5179 79.3626 89.648 79.6637C89.7781 79.9647 89.8452 80.2892 89.8452 80.6172C89.8452 80.9451 89.7781 81.2697 89.648 81.5707C89.5179 81.8717 89.3275 82.1428 89.0887 82.3674C88.5858 82.7899 87.8893 83.0006 86.9993 82.9994H85.1287V85.2014H84.3942V78.2295H86.9993C87.8893 78.2295 88.5858 78.442 89.0887 78.8669ZM88.5623 81.9002C88.7447 81.7427 88.8885 81.5453 88.9826 81.3233C89.0767 81.1013 89.1186 80.8606 89.105 80.6199C89.12 80.376 89.0789 80.132 88.9848 79.9065C88.8907 79.6811 88.7462 79.4803 88.5623 79.3197C88.2005 79.0173 87.6704 78.8669 86.9794 78.8669H85.1287V82.3529H86.9794C87.6776 82.3529 88.1968 82.2026 88.5623 81.9002Z" fill="#28251E"/>
<path d="M92.6362 84.7976C92.0903 84.504 91.6358 84.0654 91.3228 83.5299C91.0139 82.9765 90.8517 82.3531 90.8517 81.7191C90.8517 81.0851 91.0139 80.4616 91.3228 79.9082C91.6358 79.3727 92.0903 78.9341 92.6362 78.6406C93.2134 78.3379 93.8552 78.1797 94.5068 78.1797C95.1583 78.1797 95.8002 78.3379 96.3773 78.6406C96.9207 78.9357 97.373 79.3741 97.6853 79.9082C97.9984 80.4629 98.1629 81.0892 98.1629 81.7263C98.1629 82.3634 97.9984 82.9897 97.6853 83.5444C97.373 84.0785 96.9207 84.5169 96.3773 84.812C95.8002 85.1147 95.1583 85.2729 94.5068 85.2729C93.8552 85.2729 93.2134 85.1147 92.6362 84.812V84.7976ZM95.9992 84.238C96.4366 83.9974 96.7982 83.6393 97.0431 83.204C97.2913 82.7505 97.4215 82.2416 97.4215 81.7245C97.4215 81.2073 97.2913 80.6985 97.0431 80.245C96.7978 79.8095 96.4364 79.4509 95.9992 79.2092C95.5423 78.9578 95.0281 78.8292 94.5068 78.8361C93.9838 78.8297 93.4679 78.9582 93.0089 79.2092C92.569 79.451 92.2041 79.8094 91.9542 80.245C91.7026 80.6974 91.5706 81.2067 91.5706 81.7245C91.5706 82.2423 91.7026 82.7515 91.9542 83.204C92.2035 83.6396 92.5686 83.9975 93.0089 84.238C93.4674 84.4904 93.9835 84.6196 94.5068 84.6129C95.0284 84.62 95.5428 84.4908 95.9992 84.238Z" fill="#28251E"/>
<path d="M105.159 82.1881C105.443 82.5638 105.574 83.0337 105.525 83.5025C105.476 83.9714 105.251 84.4039 104.894 84.7125C104.465 85.0384 103.836 85.2014 103.008 85.2014H99.9323V78.2295H102.827C103.57 78.2295 104.15 78.3822 104.569 78.6877C104.775 78.8391 104.939 79.0394 105.049 79.2705C105.158 79.5015 105.208 79.7561 105.195 80.0114C105.206 80.3659 105.101 80.7143 104.896 81.0038C104.683 81.2824 104.392 81.4916 104.061 81.605C104.481 81.6735 104.866 81.8784 105.159 82.1881ZM100.65 81.3859H102.78C103.316 81.3859 103.729 81.2766 104.019 81.0581C104.155 80.9391 104.265 80.7922 104.34 80.6273C104.415 80.4623 104.454 80.2832 104.454 80.102C104.454 79.9207 104.415 79.7416 104.34 79.5767C104.265 79.4117 104.155 79.2648 104.019 79.1458C103.729 78.9261 103.316 78.8168 102.78 78.8181H100.65V81.3859ZM104.811 83.2692C104.811 82.3927 104.208 81.9545 103.002 81.9545H100.65V84.6129H103.002C104.207 84.6129 104.809 84.165 104.809 83.2692H104.811Z" fill="#28251E"/>
<path d="M42.0733 96.7549C41.5309 96.4603 41.0802 96.0217 40.7708 95.4872C40.46 94.9321 40.2968 94.3064 40.2968 93.67C40.2968 93.0337 40.46 92.4079 40.7708 91.8528C41.081 91.3171 41.5338 90.8783 42.0787 90.5852C42.5847 90.3222 43.1402 90.1687 43.7092 90.1344C44.2783 90.1 44.8482 90.1858 45.382 90.386C45.8064 90.5497 46.1876 90.8086 46.4964 91.1429L46.0279 91.6101C45.7599 91.3381 45.4388 91.1244 45.0846 90.9823C44.7303 90.8402 44.3506 90.7728 43.9692 90.7844C43.4438 90.7784 42.9259 90.9088 42.4658 91.1628C42.0253 91.4051 41.6594 91.7633 41.4075 92.1987C41.1561 92.6492 41.0241 93.1567 41.0241 93.6727C41.0241 94.1888 41.1561 94.6963 41.4075 95.1468C41.6599 95.5818 42.0257 95.9398 42.4658 96.1826C42.9259 96.4367 43.4438 96.567 43.9692 96.5611C44.3517 96.5736 44.7326 96.5056 45.0872 96.3614C45.4418 96.2173 45.7623 96.0003 46.0279 95.7245L46.4964 96.1917C46.1861 96.5279 45.8031 96.7887 45.3766 96.954C44.9156 97.1343 44.4243 97.224 43.9294 97.2184C43.2814 97.2243 42.6426 97.0647 42.0733 96.7549Z" fill="#28251E"/>
<path d="M52.2964 95.2844H48.4214L47.5856 97.1478H46.8204L50.0043 90.1759H50.7279L53.9119 97.1478H53.1249L52.2964 95.2844ZM52.0286 94.6868L50.3571 90.9419L48.6855 94.6868H52.0286Z" fill="#28251E"/>
<path d="M62.4757 90.1814V97.1533H61.7684V91.5757L59.0331 96.2659H58.6839L55.9486 91.6047V97.1533H55.2413V90.1814H55.8492L58.8739 95.3496L61.8679 90.1814H62.4757Z" fill="#28251E"/>
<path d="M69.2815 95.2844H65.3993L64.5653 97.1478H63.7982L66.9822 90.1759H67.7058L70.8879 97.1478H70.1136L69.2815 95.2844ZM69.0119 94.6868L67.3404 90.9419L65.6688 94.6868H69.0119Z" fill="#28251E"/>
<path d="M76.9211 90.8188C77.1599 91.0433 77.3502 91.3145 77.4803 91.6155C77.6104 91.9165 77.6776 92.241 77.6776 92.569C77.6776 92.897 77.6104 93.2215 77.4803 93.5225C77.3502 93.8235 77.1599 94.0947 76.9211 94.3192C76.4182 94.7418 75.7217 94.9524 74.8316 94.9512H72.9611V97.1533H72.2266V90.1814H74.8334C75.7223 90.1814 76.4182 90.3938 76.9211 90.8188ZM76.3946 93.8502C76.5772 93.6932 76.7212 93.4962 76.8153 93.2745C76.9095 93.0527 76.9512 92.8123 76.9374 92.5717C76.9524 92.3279 76.9113 92.0838 76.8172 91.8584C76.7231 91.633 76.5785 91.4322 76.3946 91.2715C76.0328 90.9691 75.5028 90.8188 74.8117 90.8188H72.9611V94.3048H74.8117C75.5028 94.3048 76.0292 94.1526 76.3946 93.8502Z" fill="#28251E"/>
<path d="M83.9908 93.2291C84.4249 93.6009 84.642 94.1442 84.642 94.8589C84.642 95.6086 84.4117 96.1778 83.951 96.5665C83.4903 96.9553 82.8269 97.1496 81.961 97.1496H79.195V90.1777H79.9186V92.6677H82.1075C82.9264 92.6701 83.5542 92.8572 83.9908 93.2291ZM83.4046 96.1374C83.7387 95.8512 83.9057 95.4287 83.9057 94.8697C83.9057 93.8013 83.249 93.2671 81.9357 93.2671H79.9168V96.5629H81.9357C82.5797 96.5647 83.0681 96.4217 83.4046 96.1374ZM85.8468 90.1814H86.5705V97.1533H85.8468V90.1814Z" fill="#28251E"/>
<path d="M15.3466 96.9142V97.8196H15.1892C13.5562 97.8776 12.3725 97.9066 11.638 97.9066C10.8312 97.9066 9.68844 97.9355 8.20984 97.9935L8 97.8124C8.09407 96.243 8.15437 94.6904 8.18091 93.1548C8.20442 91.6264 8.21528 57.4804 8.21528 51.03C8.21528 44.6472 8.19779 40.2703 8.16282 37.8992C8.15196 37.0481 8.0995 35.9616 8.00543 34.6396L8.21709 34.3771C9.70654 34.4374 10.8426 34.467 11.6253 34.4658C12.3357 34.4658 13.5254 34.4362 15.1946 34.3771L15.352 34.5002V35.5252L15.2633 35.6483L12.4485 35.8584C12.2035 35.8682 11.9641 35.9338 11.7484 36.0503C11.6489 36.1265 11.5658 36.222 11.5041 36.331C11.3835 36.5652 11.2931 37.1779 11.2328 38.1691C11.1725 39.1602 11.1345 41.652 11.1188 45.6444C11.0959 49.9507 11.0844 53.0292 11.0844 54.8799C11.0844 56.2689 11.1007 88.1242 11.1369 90.1433C11.161 92.687 11.193 94.1864 11.2328 94.6415C11.2726 95.0979 11.3178 95.518 11.363 95.9092C11.4331 96.0874 11.5404 96.2485 11.6778 96.3818C11.8879 96.5221 12.1275 96.612 12.3779 96.6444C12.5166 96.6673 13.4555 96.7023 15.1946 96.7494L15.3466 96.9142Z" fill="#28251E"/>
<path d="M112.679 97.8197V96.9142L112.836 96.7331C114.562 96.6885 115.483 96.6534 115.599 96.6281C115.881 96.6073 116.153 96.511 116.385 96.3492C116.506 96.2284 116.591 96.0768 116.632 95.911C116.77 95.4438 116.858 94.3995 116.894 92.7781C116.928 91.1483 116.946 58.7462 116.946 55.8524C116.946 52.8753 116.934 48.6674 116.91 43.2287C116.899 40.7683 116.859 39.0528 116.789 38.0822C116.719 37.1115 116.626 36.5163 116.509 36.2966C116.449 36.1906 116.366 36.1006 116.264 36.034C116.04 35.9143 115.794 35.8427 115.541 35.824L112.76 35.632L112.673 35.5089V34.5111L112.831 34.3879C114.497 34.4483 115.693 34.4779 116.416 34.4767C117.186 34.4767 118.31 34.4471 119.79 34.3879L120 34.6505C119.907 35.958 119.855 37.0318 119.843 37.8721C119.809 39.7168 119.791 43.784 119.79 50.0738C119.779 56.2309 119.79 90.2755 119.808 91.8836C119.831 94.0916 119.895 96.0703 120 97.8197L119.79 98.0007C118.321 97.9428 117.179 97.9138 116.364 97.9138C115.64 97.9138 114.462 97.9428 112.831 98.0007L112.679 97.8197Z" fill="#28251E"/>
</svg>
