<svg width="32" height="32" viewBox="0 0 32 32" fill="none" xmlns="http://www.w3.org/2000/svg">
<path d="M1 31C1 27.0218 2.58035 23.2064 5.3934 20.3934C8.20644 17.5804 12.0218 16 16 16C19.9782 16 23.7936 17.5804 26.6066 20.3934C29.4196 23.2064 31 27.0217 31 31L1 31Z" fill="#242322"/>
<path d="M1 16C1 12.0218 2.58035 8.20644 5.3934 5.3934C8.20644 2.58035 12.0218 1 16 1C19.9782 1 23.7936 2.58035 26.6066 5.3934C29.4196 8.20644 31 12.0217 31 16L16 16L1 16Z" fill="#242322"/>
<path d="M26 16C26 21.5228 21.5228 26 16 26C10.4772 26 6 21.5228 6 16C6 10.4772 10.4772 6 16 6C21.5228 6 26 10.4772 26 16Z" fill="#FFBF00"/>
</svg>
