<svg width="32" height="32" viewBox="0 0 32 32" fill="none" xmlns="http://www.w3.org/2000/svg">
<rect width="32" height="32" rx="4" fill="#FFC800"/>
<mask id="path-2-outside-1_6427_26024" maskUnits="userSpaceOnUse" x="0.599609" y="0.599609" width="31" height="31" fill="black">
<rect fill="white" x="0.599609" y="0.599609" width="31" height="31"/>
<path d="M5.77848 5.86207C5.84599 5.79456 5.96413 5.74393 6.08228 5.72705C6.20042 5.71017 6.30169 5.74392 6.41983 5.7608C6.65611 5.82831 6.84176 5.9127 6.95991 6.09836C7.1118 6.31776 7.12868 6.57092 7.36497 6.7397C7.77003 7.00974 8.29323 6.48653 8.78268 6.80721C9.00208 6.9591 9.17085 7.19539 9.33963 7.39792C9.6603 7.81985 10.0485 8.20804 10.4367 8.56247C10.7405 8.83251 11.0443 9.06879 11.2805 9.40634C11.4324 9.62575 11.4999 9.86203 11.635 10.0983C11.8375 10.4696 12.1075 10.8072 12.3776 11.1447C12.6982 11.5329 13.0189 12.1911 13.559 12.3261C13.6771 12.343 13.7953 12.3599 13.9134 12.4105C14.1666 12.4949 14.3354 12.7312 14.5548 12.8493C14.7742 12.9675 15.0273 13.0181 15.2467 13.1363C15.6687 13.3557 15.5505 14.1489 15.078 13.9464C14.9598 13.8957 14.8923 13.7945 14.8248 13.6932C14.5379 13.3725 14.0822 13.3219 13.694 13.17C12.9177 12.8662 12.3101 12.2586 11.5843 11.8367C11.5168 11.8029 11.3987 11.7523 11.348 11.8367C12.0738 12.4612 12.8164 13.0687 13.5421 13.6932C13.694 13.8114 13.829 13.9464 13.9303 14.0814C14.0316 14.2502 14.0822 14.4358 14.0147 14.6046C13.9472 14.7734 13.7446 14.9084 13.5759 14.8409C13.3733 14.7734 13.289 14.5202 13.1539 14.3177C13.002 14.0983 12.732 13.997 12.4957 13.862C12.0569 13.6257 11.7531 13.2544 11.3481 12.9844C10.9092 12.6806 10.4535 12.3936 10.0822 11.9886C9.84596 11.7523 9.62655 11.4654 9.37339 11.246C9.10335 10.9759 8.79956 10.7734 8.49576 10.5371C7.77003 9.98017 7.14556 9.2882 6.5211 8.62997C6.30169 8.41057 6.08228 8.05614 6.28481 7.81985C6.40295 7.66796 6.65611 7.58357 6.63923 7.39792C6.60548 7.29665 6.5211 7.24602 6.43671 7.19539C6.11604 7.04349 5.71098 6.87472 5.62659 6.48653C5.5422 6.30088 5.60971 6.03084 5.77848 5.86207Z"/>
<path d="M26.221 26.1489C26.1535 26.2164 26.0354 26.267 25.9172 26.2839C25.7991 26.3008 25.6978 26.267 25.5797 26.2501C25.3434 26.1826 25.1577 26.0982 25.0396 25.9126C24.8877 25.6932 24.8708 25.44 24.6345 25.2712C24.2295 25.0012 23.7063 25.5244 23.2168 25.2037C22.9974 25.0518 22.8286 24.8156 22.6599 24.613C22.3392 24.1911 21.951 23.8029 21.5628 23.4485C21.259 23.1784 20.9552 22.9422 20.719 22.6046C20.5671 22.3852 20.4995 22.1489 20.3645 21.9126C20.162 21.5413 19.892 21.2038 19.6219 20.8662C19.3013 20.478 18.9806 19.8198 18.4405 19.6848C18.3224 19.6679 18.2042 19.6511 18.0861 19.6004C17.8329 19.516 17.6641 19.2797 17.4447 19.1616C17.2253 19.0435 16.9722 18.9928 16.7527 18.8747C16.3308 18.6553 16.449 17.862 16.9215 18.0646C17.0397 18.1152 17.1072 18.2165 17.1747 18.3177C17.4616 18.6384 17.9173 18.689 18.3055 18.8409C19.0818 19.1447 19.6894 19.7523 20.4152 20.1742C20.4827 20.208 20.6008 20.2586 20.6514 20.1742C19.9257 19.5498 19.1831 18.9422 18.4574 18.3177C18.3055 18.1996 18.1705 18.0646 18.0692 17.9295C17.9679 17.7608 17.9173 17.5751 17.9848 17.4064C18.0523 17.2376 18.2548 17.1026 18.4236 17.1701C18.6262 17.2376 18.7105 17.4907 18.8456 17.6933C18.9975 17.9127 19.2675 18.0139 19.5038 18.149C19.9426 18.3852 20.2464 18.7565 20.6514 19.0266C21.0903 19.3304 21.5459 19.6173 21.9173 20.0224C22.1535 20.2586 22.3729 20.5456 22.6261 20.765C22.8961 21.035 23.1999 21.2375 23.5037 21.4738C24.2295 22.0308 24.8539 22.7227 25.4784 23.381C25.6978 23.6004 25.9172 23.9548 25.7147 24.1911C25.5965 24.343 25.3434 24.4274 25.3603 24.613C25.394 24.7143 25.4784 24.7649 25.5628 24.8156C25.8835 24.9674 26.2885 25.1362 26.3729 25.5244C26.4573 25.7101 26.3898 25.9801 26.221 26.1489Z"/>
<path d="M1.59961 16.0605C1.59961 15.965 1.64735 15.8457 1.71895 15.7502C1.79056 15.6547 1.88603 15.607 1.9815 15.5354C2.19632 15.4161 2.38727 15.3445 2.60208 15.3922C2.86463 15.4399 3.05558 15.607 3.342 15.5593C3.81937 15.4638 3.81937 14.7239 4.39221 14.6045C4.65476 14.5568 4.94118 14.6045 5.20373 14.6284C5.72883 14.7 6.27781 14.7 6.80291 14.6761C7.20867 14.6523 7.59057 14.6045 7.99633 14.6761C8.25888 14.7239 8.4737 14.8432 8.73625 14.9148C9.14201 15.0342 9.57164 15.0819 10.0013 15.1296C10.5025 15.1774 11.1947 15.4161 11.6721 15.1296C11.7675 15.058 11.863 14.9864 11.9823 14.9387C12.221 14.8193 12.5074 14.8671 12.7461 14.7955C12.9848 14.7239 13.1996 14.5807 13.4383 14.5091C13.8918 14.3659 14.3692 15.0103 13.8918 15.2012C13.7725 15.249 13.6531 15.2251 13.5338 15.2012C13.1041 15.1774 12.7461 15.4638 12.3642 15.6309C11.6005 15.965 10.7412 15.965 9.92967 16.1798C9.85806 16.2037 9.73872 16.2515 9.76258 16.3469C10.7173 16.2753 11.6721 16.1798 12.6268 16.1082C12.8177 16.0844 13.0087 16.0844 13.1758 16.1082C13.3667 16.156 13.5338 16.2515 13.6054 16.4185C13.677 16.5856 13.6293 16.8243 13.4622 16.8959C13.2712 16.9914 13.0325 16.872 12.7939 16.8243C12.5313 16.7766 12.2688 16.8959 12.0062 16.9675C11.5288 17.1107 11.0515 17.063 10.5741 17.1584C10.049 17.2539 9.5239 17.3733 8.97493 17.3494C8.64078 17.3494 8.28275 17.3017 7.94859 17.3255C7.5667 17.3255 7.20867 17.3971 6.82678 17.4449C5.91978 17.5642 4.98892 17.5165 4.08192 17.4926C3.77163 17.4926 3.36587 17.3971 3.342 17.0868C3.31813 16.8959 3.43747 16.6572 3.29426 16.5379C3.19879 16.4901 3.10332 16.514 3.00785 16.5379C2.67369 16.6572 2.26793 16.8243 1.93377 16.6095C1.74283 16.5379 1.59961 16.2992 1.59961 16.0605Z"/>
<path d="M30.3996 15.9504C30.3996 16.0459 30.3519 16.1652 30.2803 16.2607C30.2087 16.3562 30.1132 16.4039 30.0177 16.4755C29.8029 16.5949 29.612 16.6665 29.3971 16.6187C29.1346 16.571 28.9436 16.4039 28.6572 16.4517C28.1798 16.5471 28.1799 17.287 27.607 17.4064C27.3445 17.4541 27.058 17.4064 26.7955 17.3825C26.2704 17.3109 25.7214 17.3109 25.1963 17.3348C24.7905 17.3586 24.4087 17.4064 24.0029 17.3348C23.7403 17.287 23.5255 17.1677 23.263 17.0961C22.8572 16.9768 22.4276 16.929 21.998 16.8813C21.4967 16.8335 20.8045 16.5949 20.3272 16.8813C20.2317 16.9529 20.1362 17.0245 20.0169 17.0722C19.7782 17.1916 19.4918 17.1438 19.2531 17.2154C19.0144 17.287 18.7996 17.4303 18.5609 17.5019C18.1074 17.6451 17.63 17.0006 18.1074 16.8097C18.2268 16.7619 18.3461 16.7858 18.4654 16.8097C18.8951 16.8335 19.2531 16.5471 19.635 16.38C20.3988 16.0459 21.258 16.0459 22.0696 15.8311C22.1412 15.8072 22.2605 15.7595 22.2366 15.664C21.2819 15.7356 20.3272 15.8311 19.3724 15.9027C19.1815 15.9265 18.9905 15.9265 18.8235 15.9027C18.6325 15.8549 18.4654 15.7595 18.3938 15.5924C18.3222 15.4253 18.37 15.1866 18.537 15.115C18.728 15.0196 18.9667 15.1389 19.2054 15.1866C19.4679 15.2344 19.7305 15.115 19.993 15.0434C20.4704 14.9002 20.9477 14.9479 21.4251 14.8525C21.9502 14.757 22.4753 14.6377 23.0243 14.6615C23.3584 14.6615 23.7165 14.7093 24.0506 14.6854C24.4325 14.6854 24.7905 14.6138 25.1724 14.5661C26.0794 14.4467 27.0103 14.4944 27.9173 14.5183C28.2276 14.5183 28.6333 14.6138 28.6572 14.9241C28.6811 15.115 28.5617 15.3537 28.705 15.4731C28.8004 15.5208 28.8959 15.4969 28.9914 15.4731C29.3255 15.3537 29.7313 15.1866 30.0654 15.4014C30.2564 15.4731 30.3996 15.7117 30.3996 15.9504Z"/>
<path d="M26.2266 5.85613C26.1591 5.78862 26.041 5.73799 25.9229 5.72112C25.8047 5.70424 25.7034 5.73799 25.5853 5.75487C25.349 5.82238 25.1634 5.90677 25.0452 6.09242C24.8933 6.31183 24.8764 6.56499 24.6402 6.73376C24.2351 7.0038 23.7119 6.4806 23.2225 6.80127C23.003 6.95317 22.8343 7.18945 22.6655 7.39198C22.3448 7.81392 21.9566 8.20211 21.5685 8.55653C21.2647 8.82657 20.9609 9.06286 20.7246 9.40041C20.5727 9.61981 20.5052 9.8561 20.3702 10.0924C20.1676 10.4637 19.8976 10.8012 19.6276 11.1388C19.3069 11.527 18.9862 12.1852 18.4461 12.3202C18.328 12.3371 18.2098 12.354 18.0917 12.4046C17.8385 12.489 17.6698 12.7253 17.4504 12.8434C17.231 12.9616 16.9778 13.0122 16.7584 13.1303C16.3364 13.3497 16.4546 14.143 16.9272 13.9404C17.0453 13.8898 17.1128 13.7885 17.1803 13.6873C17.4672 13.3666 17.9229 13.316 18.3111 13.1641C19.0875 12.8603 19.6951 12.2527 20.4208 11.8308C20.4883 11.797 20.6065 11.7464 20.6571 11.8308C19.9314 12.4552 19.1887 13.0628 18.463 13.6873C18.3111 13.8054 18.1761 13.9404 18.0748 14.0755C17.9736 14.2442 17.9229 14.4299 17.9904 14.5987C18.058 14.7674 18.2605 14.9025 18.4293 14.8349C18.6318 14.7674 18.7162 14.5143 18.8512 14.3117C19.0031 14.0923 19.2731 13.9911 19.5094 13.8561C19.9482 13.6198 20.252 13.2485 20.6571 12.9784C21.0959 12.6746 21.5516 12.3877 21.9229 11.9827C22.1592 11.7464 22.3786 11.4595 22.6317 11.24C22.9018 10.97 23.2056 10.7675 23.5094 10.5312C24.2351 9.97424 24.8596 9.28226 25.484 8.62404C25.7034 8.40464 25.9228 8.05021 25.7203 7.81392C25.6022 7.66202 25.349 7.57764 25.3659 7.39198C25.3997 7.29072 25.484 7.24009 25.5684 7.18946C25.8891 7.03756 26.2942 6.86878 26.3785 6.4806C26.4629 6.29495 26.3954 6.02491 26.2266 5.85613Z"/>
<path d="M5.78413 26.143C5.85164 26.2105 5.96978 26.2611 6.08792 26.278C6.20606 26.2949 6.30733 26.2611 6.42548 26.2442C6.66176 26.1767 6.84741 26.0923 6.96555 25.9067C7.11745 25.6873 7.13433 25.4341 7.37062 25.2653C7.77568 24.9953 8.29888 25.5185 8.78832 25.1978C9.00773 25.0459 9.1765 24.8096 9.34528 24.6071C9.66595 24.1852 10.0541 23.797 10.4423 23.4426C10.7461 23.1725 11.0499 22.9362 11.2862 22.5987C11.4381 22.3793 11.5056 22.143 11.6406 21.9067C11.8431 21.5354 12.1132 21.1979 12.3832 20.8603C12.7039 20.4721 13.0246 19.8139 13.5646 19.6789C13.6828 19.662 13.8009 19.6451 13.9191 19.5945C14.1722 19.5101 14.341 19.2738 14.5604 19.1557C14.7798 19.0375 15.033 18.9869 15.2524 18.8688C15.6743 18.6494 15.5562 17.8561 15.0836 18.0587C14.9655 18.1093 14.898 18.2106 14.8305 18.3118C14.5435 18.6325 14.0878 18.6831 13.6997 18.835C12.9233 19.1388 12.3157 19.7464 11.59 20.1683C11.5225 20.2021 11.4043 20.2527 11.3537 20.1683C12.0794 19.5439 12.822 18.9363 13.5478 18.3118C13.6997 18.1937 13.8347 18.0587 13.9359 17.9236C14.0372 17.7549 14.0878 17.5692 14.0203 17.4004C13.9528 17.2317 13.7503 17.0966 13.5815 17.1642C13.379 17.2317 13.2946 17.4848 13.1596 17.6873C13.0077 17.9068 12.7377 18.008 12.5014 18.143C12.0626 18.3793 11.7588 18.7506 11.3537 19.0207C10.9149 19.3245 10.4592 19.6114 10.0879 20.0164C9.8516 20.2527 9.63219 20.5396 9.37903 20.7591C9.10899 21.0291 8.8052 21.2316 8.50141 21.4679C7.77568 22.0249 7.15121 22.7168 6.52674 23.3751C6.30734 23.5945 6.08793 23.9489 6.29046 24.1852C6.4086 24.3371 6.66176 24.4215 6.64488 24.6071C6.61113 24.7084 6.52674 24.759 6.44236 24.8096C6.12168 24.9615 5.71663 25.1303 5.63224 25.5185C5.54785 25.7042 5.61536 25.9742 5.78413 26.143Z"/>
<path d="M16.0606 1.59961C15.9651 1.59961 15.8458 1.64735 15.7503 1.71895C15.6548 1.79056 15.6071 1.88603 15.5355 1.9815C15.4161 2.19632 15.3445 2.38727 15.3923 2.60208C15.44 2.86463 15.6071 3.05558 15.5593 3.342C15.4639 3.81937 14.7239 3.81937 14.6046 4.39221C14.5569 4.65476 14.6046 4.94118 14.6285 5.20373C14.7001 5.72883 14.7001 6.27781 14.6762 6.80291C14.6523 7.20867 14.6046 7.59057 14.6762 7.99633C14.7239 8.25888 14.8433 8.4737 14.9149 8.73625C15.0342 9.14201 15.082 9.57164 15.1297 10.0013C15.1774 10.5025 15.4161 11.1947 15.1297 11.6721C15.0581 11.7675 14.9865 11.863 14.9388 11.9823C14.8194 12.221 14.8672 12.5074 14.7956 12.7461C14.7239 12.9848 14.5807 13.1996 14.5091 13.4383C14.3659 13.8918 15.0104 14.3692 15.2013 13.8918C15.249 13.7725 15.2252 13.6531 15.2013 13.5338C15.1774 13.1041 15.4639 12.7461 15.6309 12.3642C15.9651 11.6005 15.9651 10.7412 16.1799 9.92967C16.2038 9.85806 16.2515 9.73872 16.347 9.76258C16.2754 10.7173 16.1799 11.6721 16.1083 12.6268C16.0844 12.8177 16.0844 13.0087 16.1083 13.1758C16.156 13.3667 16.2515 13.5338 16.4186 13.6054C16.5857 13.677 16.8244 13.6293 16.896 13.4622C16.9914 13.2712 16.8721 13.0325 16.8244 12.7939C16.7766 12.5313 16.896 12.2688 16.9676 12.0062C17.1108 11.5288 17.063 11.0515 17.1585 10.5741C17.254 10.049 17.3733 9.5239 17.3495 8.97493C17.3495 8.64078 17.3017 8.28275 17.3256 7.94859C17.3256 7.5667 17.3972 7.20867 17.4449 6.82678C17.5643 5.91978 17.5165 4.98892 17.4927 4.08192C17.4927 3.77163 17.3972 3.36587 17.0869 3.342C16.896 3.31813 16.6573 3.43747 16.5379 3.29426C16.4902 3.19879 16.5141 3.10332 16.5379 3.00785C16.6573 2.67369 16.8244 2.26793 16.6095 1.93377C16.5379 1.74283 16.2993 1.59961 16.0606 1.59961Z"/>
<path d="M15.9505 30.3996C16.046 30.3996 16.1653 30.3519 16.2608 30.2803C16.3562 30.2087 16.404 30.1132 16.4756 30.0177C16.5949 29.8029 16.6665 29.612 16.6188 29.3971C16.5711 29.1346 16.404 28.9436 16.4517 28.6572C16.5472 28.1798 17.2871 28.1799 17.4065 27.607C17.4542 27.3445 17.4065 27.058 17.3826 26.7955C17.311 26.2704 17.311 25.7214 17.3348 25.1963C17.3587 24.7905 17.4064 24.4087 17.3348 24.0029C17.2871 23.7403 17.1678 23.5255 17.0962 23.263C16.9768 22.8572 16.9291 22.4276 16.8813 21.998C16.8336 21.4967 16.5949 20.8045 16.8813 20.3272C16.953 20.2317 17.0246 20.1362 17.0723 20.0169C17.1916 19.7782 17.1439 19.4918 17.2155 19.2531C17.2871 19.0144 17.4303 18.7996 17.5019 18.5609C17.6451 18.1074 17.0007 17.63 16.8097 18.1074C16.762 18.2268 16.7859 18.3461 16.8097 18.4654C16.8336 18.8951 16.5472 19.2531 16.3801 19.635C16.046 20.3988 16.046 21.258 15.8311 22.0696C15.8073 22.1412 15.7595 22.2605 15.6641 22.2366C15.7357 21.2819 15.8311 20.3272 15.9027 19.3724C15.9266 19.1815 15.9266 18.9905 15.9027 18.8235C15.855 18.6325 15.7595 18.4654 15.5925 18.3938C15.4254 18.3222 15.1867 18.37 15.1151 18.537C15.0196 18.728 15.139 18.9667 15.1867 19.2054C15.2344 19.4679 15.1151 19.7305 15.0435 19.993C14.9003 20.4704 14.948 20.9477 14.8525 21.4251C14.7571 21.9502 14.6377 22.4753 14.6616 23.0243C14.6616 23.3584 14.7093 23.7165 14.6855 24.0506C14.6855 24.4325 14.6139 24.7905 14.5661 25.1724C14.4468 26.0794 14.4945 27.0103 14.5184 27.9173C14.5184 28.2276 14.6139 28.6333 14.9241 28.6572C15.1151 28.6811 15.3538 28.5617 15.4731 28.705C15.5209 28.8004 15.497 28.8959 15.4731 28.9914C15.3538 29.3255 15.1867 29.7313 15.4015 30.0654C15.4731 30.2564 15.7118 30.3996 15.9505 30.3996Z"/>
</mask>
<path d="M5.77848 5.86207C5.84599 5.79456 5.96413 5.74393 6.08228 5.72705C6.20042 5.71017 6.30169 5.74392 6.41983 5.7608C6.65611 5.82831 6.84176 5.9127 6.95991 6.09836C7.1118 6.31776 7.12868 6.57092 7.36497 6.7397C7.77003 7.00974 8.29323 6.48653 8.78268 6.80721C9.00208 6.9591 9.17085 7.19539 9.33963 7.39792C9.6603 7.81985 10.0485 8.20804 10.4367 8.56247C10.7405 8.83251 11.0443 9.06879 11.2805 9.40634C11.4324 9.62575 11.4999 9.86203 11.635 10.0983C11.8375 10.4696 12.1075 10.8072 12.3776 11.1447C12.6982 11.5329 13.0189 12.1911 13.559 12.3261C13.6771 12.343 13.7953 12.3599 13.9134 12.4105C14.1666 12.4949 14.3354 12.7312 14.5548 12.8493C14.7742 12.9675 15.0273 13.0181 15.2467 13.1363C15.6687 13.3557 15.5505 14.1489 15.078 13.9464C14.9598 13.8957 14.8923 13.7945 14.8248 13.6932C14.5379 13.3725 14.0822 13.3219 13.694 13.17C12.9177 12.8662 12.3101 12.2586 11.5843 11.8367C11.5168 11.8029 11.3987 11.7523 11.348 11.8367C12.0738 12.4612 12.8164 13.0687 13.5421 13.6932C13.694 13.8114 13.829 13.9464 13.9303 14.0814C14.0316 14.2502 14.0822 14.4358 14.0147 14.6046C13.9472 14.7734 13.7446 14.9084 13.5759 14.8409C13.3733 14.7734 13.289 14.5202 13.1539 14.3177C13.002 14.0983 12.732 13.997 12.4957 13.862C12.0569 13.6257 11.7531 13.2544 11.3481 12.9844C10.9092 12.6806 10.4535 12.3936 10.0822 11.9886C9.84596 11.7523 9.62655 11.4654 9.37339 11.246C9.10335 10.9759 8.79956 10.7734 8.49576 10.5371C7.77003 9.98017 7.14556 9.2882 6.5211 8.62997C6.30169 8.41057 6.08228 8.05614 6.28481 7.81985C6.40295 7.66796 6.65611 7.58357 6.63923 7.39792C6.60548 7.29665 6.5211 7.24602 6.43671 7.19539C6.11604 7.04349 5.71098 6.87472 5.62659 6.48653C5.5422 6.30088 5.60971 6.03084 5.77848 5.86207Z" fill="#29261F"/>
<path d="M26.221 26.1489C26.1535 26.2164 26.0354 26.267 25.9172 26.2839C25.7991 26.3008 25.6978 26.267 25.5797 26.2501C25.3434 26.1826 25.1577 26.0982 25.0396 25.9126C24.8877 25.6932 24.8708 25.44 24.6345 25.2712C24.2295 25.0012 23.7063 25.5244 23.2168 25.2037C22.9974 25.0518 22.8286 24.8156 22.6599 24.613C22.3392 24.1911 21.951 23.8029 21.5628 23.4485C21.259 23.1784 20.9552 22.9422 20.719 22.6046C20.5671 22.3852 20.4995 22.1489 20.3645 21.9126C20.162 21.5413 19.892 21.2038 19.6219 20.8662C19.3013 20.478 18.9806 19.8198 18.4405 19.6848C18.3224 19.6679 18.2042 19.6511 18.0861 19.6004C17.8329 19.516 17.6641 19.2797 17.4447 19.1616C17.2253 19.0435 16.9722 18.9928 16.7527 18.8747C16.3308 18.6553 16.449 17.862 16.9215 18.0646C17.0397 18.1152 17.1072 18.2165 17.1747 18.3177C17.4616 18.6384 17.9173 18.689 18.3055 18.8409C19.0818 19.1447 19.6894 19.7523 20.4152 20.1742C20.4827 20.208 20.6008 20.2586 20.6514 20.1742C19.9257 19.5498 19.1831 18.9422 18.4574 18.3177C18.3055 18.1996 18.1705 18.0646 18.0692 17.9295C17.9679 17.7608 17.9173 17.5751 17.9848 17.4064C18.0523 17.2376 18.2548 17.1026 18.4236 17.1701C18.6262 17.2376 18.7105 17.4907 18.8456 17.6933C18.9975 17.9127 19.2675 18.0139 19.5038 18.149C19.9426 18.3852 20.2464 18.7565 20.6514 19.0266C21.0903 19.3304 21.5459 19.6173 21.9173 20.0224C22.1535 20.2586 22.3729 20.5456 22.6261 20.765C22.8961 21.035 23.1999 21.2375 23.5037 21.4738C24.2295 22.0308 24.8539 22.7227 25.4784 23.381C25.6978 23.6004 25.9172 23.9548 25.7147 24.1911C25.5965 24.343 25.3434 24.4274 25.3603 24.613C25.394 24.7143 25.4784 24.7649 25.5628 24.8156C25.8835 24.9674 26.2885 25.1362 26.3729 25.5244C26.4573 25.7101 26.3898 25.9801 26.221 26.1489Z" fill="#29261F"/>
<path d="M1.59961 16.0605C1.59961 15.965 1.64735 15.8457 1.71895 15.7502C1.79056 15.6547 1.88603 15.607 1.9815 15.5354C2.19632 15.4161 2.38727 15.3445 2.60208 15.3922C2.86463 15.4399 3.05558 15.607 3.342 15.5593C3.81937 15.4638 3.81937 14.7239 4.39221 14.6045C4.65476 14.5568 4.94118 14.6045 5.20373 14.6284C5.72883 14.7 6.27781 14.7 6.80291 14.6761C7.20867 14.6523 7.59057 14.6045 7.99633 14.6761C8.25888 14.7239 8.4737 14.8432 8.73625 14.9148C9.14201 15.0342 9.57164 15.0819 10.0013 15.1296C10.5025 15.1774 11.1947 15.4161 11.6721 15.1296C11.7675 15.058 11.863 14.9864 11.9823 14.9387C12.221 14.8193 12.5074 14.8671 12.7461 14.7955C12.9848 14.7239 13.1996 14.5807 13.4383 14.5091C13.8918 14.3659 14.3692 15.0103 13.8918 15.2012C13.7725 15.249 13.6531 15.2251 13.5338 15.2012C13.1041 15.1774 12.7461 15.4638 12.3642 15.6309C11.6005 15.965 10.7412 15.965 9.92967 16.1798C9.85806 16.2037 9.73872 16.2515 9.76258 16.3469C10.7173 16.2753 11.6721 16.1798 12.6268 16.1082C12.8177 16.0844 13.0087 16.0844 13.1758 16.1082C13.3667 16.156 13.5338 16.2515 13.6054 16.4185C13.677 16.5856 13.6293 16.8243 13.4622 16.8959C13.2712 16.9914 13.0325 16.872 12.7939 16.8243C12.5313 16.7766 12.2688 16.8959 12.0062 16.9675C11.5288 17.1107 11.0515 17.063 10.5741 17.1584C10.049 17.2539 9.5239 17.3733 8.97493 17.3494C8.64078 17.3494 8.28275 17.3017 7.94859 17.3255C7.5667 17.3255 7.20867 17.3971 6.82678 17.4449C5.91978 17.5642 4.98892 17.5165 4.08192 17.4926C3.77163 17.4926 3.36587 17.3971 3.342 17.0868C3.31813 16.8959 3.43747 16.6572 3.29426 16.5379C3.19879 16.4901 3.10332 16.514 3.00785 16.5379C2.67369 16.6572 2.26793 16.8243 1.93377 16.6095C1.74283 16.5379 1.59961 16.2992 1.59961 16.0605Z" fill="#29261F"/>
<path d="M30.3996 15.9504C30.3996 16.0459 30.3519 16.1652 30.2803 16.2607C30.2087 16.3562 30.1132 16.4039 30.0177 16.4755C29.8029 16.5949 29.612 16.6665 29.3971 16.6187C29.1346 16.571 28.9436 16.4039 28.6572 16.4517C28.1798 16.5471 28.1799 17.287 27.607 17.4064C27.3445 17.4541 27.058 17.4064 26.7955 17.3825C26.2704 17.3109 25.7214 17.3109 25.1963 17.3348C24.7905 17.3586 24.4087 17.4064 24.0029 17.3348C23.7403 17.287 23.5255 17.1677 23.263 17.0961C22.8572 16.9768 22.4276 16.929 21.998 16.8813C21.4967 16.8335 20.8045 16.5949 20.3272 16.8813C20.2317 16.9529 20.1362 17.0245 20.0169 17.0722C19.7782 17.1916 19.4918 17.1438 19.2531 17.2154C19.0144 17.287 18.7996 17.4303 18.5609 17.5019C18.1074 17.6451 17.63 17.0006 18.1074 16.8097C18.2268 16.7619 18.3461 16.7858 18.4654 16.8097C18.8951 16.8335 19.2531 16.5471 19.635 16.38C20.3988 16.0459 21.258 16.0459 22.0696 15.8311C22.1412 15.8072 22.2605 15.7595 22.2366 15.664C21.2819 15.7356 20.3272 15.8311 19.3724 15.9027C19.1815 15.9265 18.9905 15.9265 18.8235 15.9027C18.6325 15.8549 18.4654 15.7595 18.3938 15.5924C18.3222 15.4253 18.37 15.1866 18.537 15.115C18.728 15.0196 18.9667 15.1389 19.2054 15.1866C19.4679 15.2344 19.7305 15.115 19.993 15.0434C20.4704 14.9002 20.9477 14.9479 21.4251 14.8525C21.9502 14.757 22.4753 14.6377 23.0243 14.6615C23.3584 14.6615 23.7165 14.7093 24.0506 14.6854C24.4325 14.6854 24.7905 14.6138 25.1724 14.5661C26.0794 14.4467 27.0103 14.4944 27.9173 14.5183C28.2276 14.5183 28.6333 14.6138 28.6572 14.9241C28.6811 15.115 28.5617 15.3537 28.705 15.4731C28.8004 15.5208 28.8959 15.4969 28.9914 15.4731C29.3255 15.3537 29.7313 15.1866 30.0654 15.4014C30.2564 15.4731 30.3996 15.7117 30.3996 15.9504Z" fill="#29261F"/>
<path d="M26.2266 5.85613C26.1591 5.78862 26.041 5.73799 25.9229 5.72112C25.8047 5.70424 25.7034 5.73799 25.5853 5.75487C25.349 5.82238 25.1634 5.90677 25.0452 6.09242C24.8933 6.31183 24.8764 6.56499 24.6402 6.73376C24.2351 7.0038 23.7119 6.4806 23.2225 6.80127C23.003 6.95317 22.8343 7.18945 22.6655 7.39198C22.3448 7.81392 21.9566 8.20211 21.5685 8.55653C21.2647 8.82657 20.9609 9.06286 20.7246 9.40041C20.5727 9.61981 20.5052 9.8561 20.3702 10.0924C20.1676 10.4637 19.8976 10.8012 19.6276 11.1388C19.3069 11.527 18.9862 12.1852 18.4461 12.3202C18.328 12.3371 18.2098 12.354 18.0917 12.4046C17.8385 12.489 17.6698 12.7253 17.4504 12.8434C17.231 12.9616 16.9778 13.0122 16.7584 13.1303C16.3364 13.3497 16.4546 14.143 16.9272 13.9404C17.0453 13.8898 17.1128 13.7885 17.1803 13.6873C17.4672 13.3666 17.9229 13.316 18.3111 13.1641C19.0875 12.8603 19.6951 12.2527 20.4208 11.8308C20.4883 11.797 20.6065 11.7464 20.6571 11.8308C19.9314 12.4552 19.1887 13.0628 18.463 13.6873C18.3111 13.8054 18.1761 13.9404 18.0748 14.0755C17.9736 14.2442 17.9229 14.4299 17.9904 14.5987C18.058 14.7674 18.2605 14.9025 18.4293 14.8349C18.6318 14.7674 18.7162 14.5143 18.8512 14.3117C19.0031 14.0923 19.2731 13.9911 19.5094 13.8561C19.9482 13.6198 20.252 13.2485 20.6571 12.9784C21.0959 12.6746 21.5516 12.3877 21.9229 11.9827C22.1592 11.7464 22.3786 11.4595 22.6317 11.24C22.9018 10.97 23.2056 10.7675 23.5094 10.5312C24.2351 9.97424 24.8596 9.28226 25.484 8.62404C25.7034 8.40464 25.9228 8.05021 25.7203 7.81392C25.6022 7.66202 25.349 7.57764 25.3659 7.39198C25.3997 7.29072 25.484 7.24009 25.5684 7.18946C25.8891 7.03756 26.2942 6.86878 26.3785 6.4806C26.4629 6.29495 26.3954 6.02491 26.2266 5.85613Z" fill="#29261F"/>
<path d="M5.78413 26.143C5.85164 26.2105 5.96978 26.2611 6.08792 26.278C6.20606 26.2949 6.30733 26.2611 6.42548 26.2442C6.66176 26.1767 6.84741 26.0923 6.96555 25.9067C7.11745 25.6873 7.13433 25.4341 7.37062 25.2653C7.77568 24.9953 8.29888 25.5185 8.78832 25.1978C9.00773 25.0459 9.1765 24.8096 9.34528 24.6071C9.66595 24.1852 10.0541 23.797 10.4423 23.4426C10.7461 23.1725 11.0499 22.9362 11.2862 22.5987C11.4381 22.3793 11.5056 22.143 11.6406 21.9067C11.8431 21.5354 12.1132 21.1979 12.3832 20.8603C12.7039 20.4721 13.0246 19.8139 13.5646 19.6789C13.6828 19.662 13.8009 19.6451 13.9191 19.5945C14.1722 19.5101 14.341 19.2738 14.5604 19.1557C14.7798 19.0375 15.033 18.9869 15.2524 18.8688C15.6743 18.6494 15.5562 17.8561 15.0836 18.0587C14.9655 18.1093 14.898 18.2106 14.8305 18.3118C14.5435 18.6325 14.0878 18.6831 13.6997 18.835C12.9233 19.1388 12.3157 19.7464 11.59 20.1683C11.5225 20.2021 11.4043 20.2527 11.3537 20.1683C12.0794 19.5439 12.822 18.9363 13.5478 18.3118C13.6997 18.1937 13.8347 18.0587 13.9359 17.9236C14.0372 17.7549 14.0878 17.5692 14.0203 17.4004C13.9528 17.2317 13.7503 17.0966 13.5815 17.1642C13.379 17.2317 13.2946 17.4848 13.1596 17.6873C13.0077 17.9068 12.7377 18.008 12.5014 18.143C12.0626 18.3793 11.7588 18.7506 11.3537 19.0207C10.9149 19.3245 10.4592 19.6114 10.0879 20.0164C9.8516 20.2527 9.63219 20.5396 9.37903 20.7591C9.10899 21.0291 8.8052 21.2316 8.50141 21.4679C7.77568 22.0249 7.15121 22.7168 6.52674 23.3751C6.30734 23.5945 6.08793 23.9489 6.29046 24.1852C6.4086 24.3371 6.66176 24.4215 6.64488 24.6071C6.61113 24.7084 6.52674 24.759 6.44236 24.8096C6.12168 24.9615 5.71663 25.1303 5.63224 25.5185C5.54785 25.7042 5.61536 25.9742 5.78413 26.143Z" fill="#29261F"/>
<path d="M16.0606 1.59961C15.9651 1.59961 15.8458 1.64735 15.7503 1.71895C15.6548 1.79056 15.6071 1.88603 15.5355 1.9815C15.4161 2.19632 15.3445 2.38727 15.3923 2.60208C15.44 2.86463 15.6071 3.05558 15.5593 3.342C15.4639 3.81937 14.7239 3.81937 14.6046 4.39221C14.5569 4.65476 14.6046 4.94118 14.6285 5.20373C14.7001 5.72883 14.7001 6.27781 14.6762 6.80291C14.6523 7.20867 14.6046 7.59057 14.6762 7.99633C14.7239 8.25888 14.8433 8.4737 14.9149 8.73625C15.0342 9.14201 15.082 9.57164 15.1297 10.0013C15.1774 10.5025 15.4161 11.1947 15.1297 11.6721C15.0581 11.7675 14.9865 11.863 14.9388 11.9823C14.8194 12.221 14.8672 12.5074 14.7956 12.7461C14.7239 12.9848 14.5807 13.1996 14.5091 13.4383C14.3659 13.8918 15.0104 14.3692 15.2013 13.8918C15.249 13.7725 15.2252 13.6531 15.2013 13.5338C15.1774 13.1041 15.4639 12.7461 15.6309 12.3642C15.9651 11.6005 15.9651 10.7412 16.1799 9.92967C16.2038 9.85806 16.2515 9.73872 16.347 9.76258C16.2754 10.7173 16.1799 11.6721 16.1083 12.6268C16.0844 12.8177 16.0844 13.0087 16.1083 13.1758C16.156 13.3667 16.2515 13.5338 16.4186 13.6054C16.5857 13.677 16.8244 13.6293 16.896 13.4622C16.9914 13.2712 16.8721 13.0325 16.8244 12.7939C16.7766 12.5313 16.896 12.2688 16.9676 12.0062C17.1108 11.5288 17.063 11.0515 17.1585 10.5741C17.254 10.049 17.3733 9.5239 17.3495 8.97493C17.3495 8.64078 17.3017 8.28275 17.3256 7.94859C17.3256 7.5667 17.3972 7.20867 17.4449 6.82678C17.5643 5.91978 17.5165 4.98892 17.4927 4.08192C17.4927 3.77163 17.3972 3.36587 17.0869 3.342C16.896 3.31813 16.6573 3.43747 16.5379 3.29426C16.4902 3.19879 16.5141 3.10332 16.5379 3.00785C16.6573 2.67369 16.8244 2.26793 16.6095 1.93377C16.5379 1.74283 16.2993 1.59961 16.0606 1.59961Z" fill="#29261F"/>
<path d="M15.9505 30.3996C16.046 30.3996 16.1653 30.3519 16.2608 30.2803C16.3562 30.2087 16.404 30.1132 16.4756 30.0177C16.5949 29.8029 16.6665 29.612 16.6188 29.3971C16.5711 29.1346 16.404 28.9436 16.4517 28.6572C16.5472 28.1798 17.2871 28.1799 17.4065 27.607C17.4542 27.3445 17.4065 27.058 17.3826 26.7955C17.311 26.2704 17.311 25.7214 17.3348 25.1963C17.3587 24.7905 17.4064 24.4087 17.3348 24.0029C17.2871 23.7403 17.1678 23.5255 17.0962 23.263C16.9768 22.8572 16.9291 22.4276 16.8813 21.998C16.8336 21.4967 16.5949 20.8045 16.8813 20.3272C16.953 20.2317 17.0246 20.1362 17.0723 20.0169C17.1916 19.7782 17.1439 19.4918 17.2155 19.2531C17.2871 19.0144 17.4303 18.7996 17.5019 18.5609C17.6451 18.1074 17.0007 17.63 16.8097 18.1074C16.762 18.2268 16.7859 18.3461 16.8097 18.4654C16.8336 18.8951 16.5472 19.2531 16.3801 19.635C16.046 20.3988 16.046 21.258 15.8311 22.0696C15.8073 22.1412 15.7595 22.2605 15.6641 22.2366C15.7357 21.2819 15.8311 20.3272 15.9027 19.3724C15.9266 19.1815 15.9266 18.9905 15.9027 18.8235C15.855 18.6325 15.7595 18.4654 15.5925 18.3938C15.4254 18.3222 15.1867 18.37 15.1151 18.537C15.0196 18.728 15.139 18.9667 15.1867 19.2054C15.2344 19.4679 15.1151 19.7305 15.0435 19.993C14.9003 20.4704 14.948 20.9477 14.8525 21.4251C14.7571 21.9502 14.6377 22.4753 14.6616 23.0243C14.6616 23.3584 14.7093 23.7165 14.6855 24.0506C14.6855 24.4325 14.6139 24.7905 14.5661 25.1724C14.4468 26.0794 14.4945 27.0103 14.5184 27.9173C14.5184 28.2276 14.6139 28.6333 14.9241 28.6572C15.1151 28.6811 15.3538 28.5617 15.4731 28.705C15.5209 28.8004 15.497 28.8959 15.4731 28.9914C15.3538 29.3255 15.1867 29.7313 15.4015 30.0654C15.4731 30.2564 15.7118 30.3996 15.9505 30.3996Z" fill="#29261F"/>
<path d="M5.77848 5.86207C5.84599 5.79456 5.96413 5.74393 6.08228 5.72705C6.20042 5.71017 6.30169 5.74392 6.41983 5.7608C6.65611 5.82831 6.84176 5.9127 6.95991 6.09836C7.1118 6.31776 7.12868 6.57092 7.36497 6.7397C7.77003 7.00974 8.29323 6.48653 8.78268 6.80721C9.00208 6.9591 9.17085 7.19539 9.33963 7.39792C9.6603 7.81985 10.0485 8.20804 10.4367 8.56247C10.7405 8.83251 11.0443 9.06879 11.2805 9.40634C11.4324 9.62575 11.4999 9.86203 11.635 10.0983C11.8375 10.4696 12.1075 10.8072 12.3776 11.1447C12.6982 11.5329 13.0189 12.1911 13.559 12.3261C13.6771 12.343 13.7953 12.3599 13.9134 12.4105C14.1666 12.4949 14.3354 12.7312 14.5548 12.8493C14.7742 12.9675 15.0273 13.0181 15.2467 13.1363C15.6687 13.3557 15.5505 14.1489 15.078 13.9464C14.9598 13.8957 14.8923 13.7945 14.8248 13.6932C14.5379 13.3725 14.0822 13.3219 13.694 13.17C12.9177 12.8662 12.3101 12.2586 11.5843 11.8367C11.5168 11.8029 11.3987 11.7523 11.348 11.8367C12.0738 12.4612 12.8164 13.0687 13.5421 13.6932C13.694 13.8114 13.829 13.9464 13.9303 14.0814C14.0316 14.2502 14.0822 14.4358 14.0147 14.6046C13.9472 14.7734 13.7446 14.9084 13.5759 14.8409C13.3733 14.7734 13.289 14.5202 13.1539 14.3177C13.002 14.0983 12.732 13.997 12.4957 13.862C12.0569 13.6257 11.7531 13.2544 11.3481 12.9844C10.9092 12.6806 10.4535 12.3936 10.0822 11.9886C9.84596 11.7523 9.62655 11.4654 9.37339 11.246C9.10335 10.9759 8.79956 10.7734 8.49576 10.5371C7.77003 9.98017 7.14556 9.2882 6.5211 8.62997C6.30169 8.41057 6.08228 8.05614 6.28481 7.81985C6.40295 7.66796 6.65611 7.58357 6.63923 7.39792C6.60548 7.29665 6.5211 7.24602 6.43671 7.19539C6.11604 7.04349 5.71098 6.87472 5.62659 6.48653C5.5422 6.30088 5.60971 6.03084 5.77848 5.86207Z" stroke="#29261F" stroke-width="0.5" mask="url(#path-2-outside-1_6427_26024)"/>
<path d="M26.221 26.1489C26.1535 26.2164 26.0354 26.267 25.9172 26.2839C25.7991 26.3008 25.6978 26.267 25.5797 26.2501C25.3434 26.1826 25.1577 26.0982 25.0396 25.9126C24.8877 25.6932 24.8708 25.44 24.6345 25.2712C24.2295 25.0012 23.7063 25.5244 23.2168 25.2037C22.9974 25.0518 22.8286 24.8156 22.6599 24.613C22.3392 24.1911 21.951 23.8029 21.5628 23.4485C21.259 23.1784 20.9552 22.9422 20.719 22.6046C20.5671 22.3852 20.4995 22.1489 20.3645 21.9126C20.162 21.5413 19.892 21.2038 19.6219 20.8662C19.3013 20.478 18.9806 19.8198 18.4405 19.6848C18.3224 19.6679 18.2042 19.6511 18.0861 19.6004C17.8329 19.516 17.6641 19.2797 17.4447 19.1616C17.2253 19.0435 16.9722 18.9928 16.7527 18.8747C16.3308 18.6553 16.449 17.862 16.9215 18.0646C17.0397 18.1152 17.1072 18.2165 17.1747 18.3177C17.4616 18.6384 17.9173 18.689 18.3055 18.8409C19.0818 19.1447 19.6894 19.7523 20.4152 20.1742C20.4827 20.208 20.6008 20.2586 20.6514 20.1742C19.9257 19.5498 19.1831 18.9422 18.4574 18.3177C18.3055 18.1996 18.1705 18.0646 18.0692 17.9295C17.9679 17.7608 17.9173 17.5751 17.9848 17.4064C18.0523 17.2376 18.2548 17.1026 18.4236 17.1701C18.6262 17.2376 18.7105 17.4907 18.8456 17.6933C18.9975 17.9127 19.2675 18.0139 19.5038 18.149C19.9426 18.3852 20.2464 18.7565 20.6514 19.0266C21.0903 19.3304 21.5459 19.6173 21.9173 20.0224C22.1535 20.2586 22.3729 20.5456 22.6261 20.765C22.8961 21.035 23.1999 21.2375 23.5037 21.4738C24.2295 22.0308 24.8539 22.7227 25.4784 23.381C25.6978 23.6004 25.9172 23.9548 25.7147 24.1911C25.5965 24.343 25.3434 24.4274 25.3603 24.613C25.394 24.7143 25.4784 24.7649 25.5628 24.8156C25.8835 24.9674 26.2885 25.1362 26.3729 25.5244C26.4573 25.7101 26.3898 25.9801 26.221 26.1489Z" stroke="#29261F" stroke-width="0.5" mask="url(#path-2-outside-1_6427_26024)"/>
<path d="M1.59961 16.0605C1.59961 15.965 1.64735 15.8457 1.71895 15.7502C1.79056 15.6547 1.88603 15.607 1.9815 15.5354C2.19632 15.4161 2.38727 15.3445 2.60208 15.3922C2.86463 15.4399 3.05558 15.607 3.342 15.5593C3.81937 15.4638 3.81937 14.7239 4.39221 14.6045C4.65476 14.5568 4.94118 14.6045 5.20373 14.6284C5.72883 14.7 6.27781 14.7 6.80291 14.6761C7.20867 14.6523 7.59057 14.6045 7.99633 14.6761C8.25888 14.7239 8.4737 14.8432 8.73625 14.9148C9.14201 15.0342 9.57164 15.0819 10.0013 15.1296C10.5025 15.1774 11.1947 15.4161 11.6721 15.1296C11.7675 15.058 11.863 14.9864 11.9823 14.9387C12.221 14.8193 12.5074 14.8671 12.7461 14.7955C12.9848 14.7239 13.1996 14.5807 13.4383 14.5091C13.8918 14.3659 14.3692 15.0103 13.8918 15.2012C13.7725 15.249 13.6531 15.2251 13.5338 15.2012C13.1041 15.1774 12.7461 15.4638 12.3642 15.6309C11.6005 15.965 10.7412 15.965 9.92967 16.1798C9.85806 16.2037 9.73872 16.2515 9.76258 16.3469C10.7173 16.2753 11.6721 16.1798 12.6268 16.1082C12.8177 16.0844 13.0087 16.0844 13.1758 16.1082C13.3667 16.156 13.5338 16.2515 13.6054 16.4185C13.677 16.5856 13.6293 16.8243 13.4622 16.8959C13.2712 16.9914 13.0325 16.872 12.7939 16.8243C12.5313 16.7766 12.2688 16.8959 12.0062 16.9675C11.5288 17.1107 11.0515 17.063 10.5741 17.1584C10.049 17.2539 9.5239 17.3733 8.97493 17.3494C8.64078 17.3494 8.28275 17.3017 7.94859 17.3255C7.5667 17.3255 7.20867 17.3971 6.82678 17.4449C5.91978 17.5642 4.98892 17.5165 4.08192 17.4926C3.77163 17.4926 3.36587 17.3971 3.342 17.0868C3.31813 16.8959 3.43747 16.6572 3.29426 16.5379C3.19879 16.4901 3.10332 16.514 3.00785 16.5379C2.67369 16.6572 2.26793 16.8243 1.93377 16.6095C1.74283 16.5379 1.59961 16.2992 1.59961 16.0605Z" stroke="#29261F" stroke-width="0.5" mask="url(#path-2-outside-1_6427_26024)"/>
<path d="M30.3996 15.9504C30.3996 16.0459 30.3519 16.1652 30.2803 16.2607C30.2087 16.3562 30.1132 16.4039 30.0177 16.4755C29.8029 16.5949 29.612 16.6665 29.3971 16.6187C29.1346 16.571 28.9436 16.4039 28.6572 16.4517C28.1798 16.5471 28.1799 17.287 27.607 17.4064C27.3445 17.4541 27.058 17.4064 26.7955 17.3825C26.2704 17.3109 25.7214 17.3109 25.1963 17.3348C24.7905 17.3586 24.4087 17.4064 24.0029 17.3348C23.7403 17.287 23.5255 17.1677 23.263 17.0961C22.8572 16.9768 22.4276 16.929 21.998 16.8813C21.4967 16.8335 20.8045 16.5949 20.3272 16.8813C20.2317 16.9529 20.1362 17.0245 20.0169 17.0722C19.7782 17.1916 19.4918 17.1438 19.2531 17.2154C19.0144 17.287 18.7996 17.4303 18.5609 17.5019C18.1074 17.6451 17.63 17.0006 18.1074 16.8097C18.2268 16.7619 18.3461 16.7858 18.4654 16.8097C18.8951 16.8335 19.2531 16.5471 19.635 16.38C20.3988 16.0459 21.258 16.0459 22.0696 15.8311C22.1412 15.8072 22.2605 15.7595 22.2366 15.664C21.2819 15.7356 20.3272 15.8311 19.3724 15.9027C19.1815 15.9265 18.9905 15.9265 18.8235 15.9027C18.6325 15.8549 18.4654 15.7595 18.3938 15.5924C18.3222 15.4253 18.37 15.1866 18.537 15.115C18.728 15.0196 18.9667 15.1389 19.2054 15.1866C19.4679 15.2344 19.7305 15.115 19.993 15.0434C20.4704 14.9002 20.9477 14.9479 21.4251 14.8525C21.9502 14.757 22.4753 14.6377 23.0243 14.6615C23.3584 14.6615 23.7165 14.7093 24.0506 14.6854C24.4325 14.6854 24.7905 14.6138 25.1724 14.5661C26.0794 14.4467 27.0103 14.4944 27.9173 14.5183C28.2276 14.5183 28.6333 14.6138 28.6572 14.9241C28.6811 15.115 28.5617 15.3537 28.705 15.4731C28.8004 15.5208 28.8959 15.4969 28.9914 15.4731C29.3255 15.3537 29.7313 15.1866 30.0654 15.4014C30.2564 15.4731 30.3996 15.7117 30.3996 15.9504Z" stroke="#29261F" stroke-width="0.5" mask="url(#path-2-outside-1_6427_26024)"/>
<path d="M26.2266 5.85613C26.1591 5.78862 26.041 5.73799 25.9229 5.72112C25.8047 5.70424 25.7034 5.73799 25.5853 5.75487C25.349 5.82238 25.1634 5.90677 25.0452 6.09242C24.8933 6.31183 24.8764 6.56499 24.6402 6.73376C24.2351 7.0038 23.7119 6.4806 23.2225 6.80127C23.003 6.95317 22.8343 7.18945 22.6655 7.39198C22.3448 7.81392 21.9566 8.20211 21.5685 8.55653C21.2647 8.82657 20.9609 9.06286 20.7246 9.40041C20.5727 9.61981 20.5052 9.8561 20.3702 10.0924C20.1676 10.4637 19.8976 10.8012 19.6276 11.1388C19.3069 11.527 18.9862 12.1852 18.4461 12.3202C18.328 12.3371 18.2098 12.354 18.0917 12.4046C17.8385 12.489 17.6698 12.7253 17.4504 12.8434C17.231 12.9616 16.9778 13.0122 16.7584 13.1303C16.3364 13.3497 16.4546 14.143 16.9272 13.9404C17.0453 13.8898 17.1128 13.7885 17.1803 13.6873C17.4672 13.3666 17.9229 13.316 18.3111 13.1641C19.0875 12.8603 19.6951 12.2527 20.4208 11.8308C20.4883 11.797 20.6065 11.7464 20.6571 11.8308C19.9314 12.4552 19.1887 13.0628 18.463 13.6873C18.3111 13.8054 18.1761 13.9404 18.0748 14.0755C17.9736 14.2442 17.9229 14.4299 17.9904 14.5987C18.058 14.7674 18.2605 14.9025 18.4293 14.8349C18.6318 14.7674 18.7162 14.5143 18.8512 14.3117C19.0031 14.0923 19.2731 13.9911 19.5094 13.8561C19.9482 13.6198 20.252 13.2485 20.6571 12.9784C21.0959 12.6746 21.5516 12.3877 21.9229 11.9827C22.1592 11.7464 22.3786 11.4595 22.6317 11.24C22.9018 10.97 23.2056 10.7675 23.5094 10.5312C24.2351 9.97424 24.8596 9.28226 25.484 8.62404C25.7034 8.40464 25.9228 8.05021 25.7203 7.81392C25.6022 7.66202 25.349 7.57764 25.3659 7.39198C25.3997 7.29072 25.484 7.24009 25.5684 7.18946C25.8891 7.03756 26.2942 6.86878 26.3785 6.4806C26.4629 6.29495 26.3954 6.02491 26.2266 5.85613Z" stroke="#29261F" stroke-width="0.5" mask="url(#path-2-outside-1_6427_26024)"/>
<path d="M5.78413 26.143C5.85164 26.2105 5.96978 26.2611 6.08792 26.278C6.20606 26.2949 6.30733 26.2611 6.42548 26.2442C6.66176 26.1767 6.84741 26.0923 6.96555 25.9067C7.11745 25.6873 7.13433 25.4341 7.37062 25.2653C7.77568 24.9953 8.29888 25.5185 8.78832 25.1978C9.00773 25.0459 9.1765 24.8096 9.34528 24.6071C9.66595 24.1852 10.0541 23.797 10.4423 23.4426C10.7461 23.1725 11.0499 22.9362 11.2862 22.5987C11.4381 22.3793 11.5056 22.143 11.6406 21.9067C11.8431 21.5354 12.1132 21.1979 12.3832 20.8603C12.7039 20.4721 13.0246 19.8139 13.5646 19.6789C13.6828 19.662 13.8009 19.6451 13.9191 19.5945C14.1722 19.5101 14.341 19.2738 14.5604 19.1557C14.7798 19.0375 15.033 18.9869 15.2524 18.8688C15.6743 18.6494 15.5562 17.8561 15.0836 18.0587C14.9655 18.1093 14.898 18.2106 14.8305 18.3118C14.5435 18.6325 14.0878 18.6831 13.6997 18.835C12.9233 19.1388 12.3157 19.7464 11.59 20.1683C11.5225 20.2021 11.4043 20.2527 11.3537 20.1683C12.0794 19.5439 12.822 18.9363 13.5478 18.3118C13.6997 18.1937 13.8347 18.0587 13.9359 17.9236C14.0372 17.7549 14.0878 17.5692 14.0203 17.4004C13.9528 17.2317 13.7503 17.0966 13.5815 17.1642C13.379 17.2317 13.2946 17.4848 13.1596 17.6873C13.0077 17.9068 12.7377 18.008 12.5014 18.143C12.0626 18.3793 11.7588 18.7506 11.3537 19.0207C10.9149 19.3245 10.4592 19.6114 10.0879 20.0164C9.8516 20.2527 9.63219 20.5396 9.37903 20.7591C9.10899 21.0291 8.8052 21.2316 8.50141 21.4679C7.77568 22.0249 7.15121 22.7168 6.52674 23.3751C6.30734 23.5945 6.08793 23.9489 6.29046 24.1852C6.4086 24.3371 6.66176 24.4215 6.64488 24.6071C6.61113 24.7084 6.52674 24.759 6.44236 24.8096C6.12168 24.9615 5.71663 25.1303 5.63224 25.5185C5.54785 25.7042 5.61536 25.9742 5.78413 26.143Z" stroke="#29261F" stroke-width="0.5" mask="url(#path-2-outside-1_6427_26024)"/>
<path d="M16.0606 1.59961C15.9651 1.59961 15.8458 1.64735 15.7503 1.71895C15.6548 1.79056 15.6071 1.88603 15.5355 1.9815C15.4161 2.19632 15.3445 2.38727 15.3923 2.60208C15.44 2.86463 15.6071 3.05558 15.5593 3.342C15.4639 3.81937 14.7239 3.81937 14.6046 4.39221C14.5569 4.65476 14.6046 4.94118 14.6285 5.20373C14.7001 5.72883 14.7001 6.27781 14.6762 6.80291C14.6523 7.20867 14.6046 7.59057 14.6762 7.99633C14.7239 8.25888 14.8433 8.4737 14.9149 8.73625C15.0342 9.14201 15.082 9.57164 15.1297 10.0013C15.1774 10.5025 15.4161 11.1947 15.1297 11.6721C15.0581 11.7675 14.9865 11.863 14.9388 11.9823C14.8194 12.221 14.8672 12.5074 14.7956 12.7461C14.7239 12.9848 14.5807 13.1996 14.5091 13.4383C14.3659 13.8918 15.0104 14.3692 15.2013 13.8918C15.249 13.7725 15.2252 13.6531 15.2013 13.5338C15.1774 13.1041 15.4639 12.7461 15.6309 12.3642C15.9651 11.6005 15.9651 10.7412 16.1799 9.92967C16.2038 9.85806 16.2515 9.73872 16.347 9.76258C16.2754 10.7173 16.1799 11.6721 16.1083 12.6268C16.0844 12.8177 16.0844 13.0087 16.1083 13.1758C16.156 13.3667 16.2515 13.5338 16.4186 13.6054C16.5857 13.677 16.8244 13.6293 16.896 13.4622C16.9914 13.2712 16.8721 13.0325 16.8244 12.7939C16.7766 12.5313 16.896 12.2688 16.9676 12.0062C17.1108 11.5288 17.063 11.0515 17.1585 10.5741C17.254 10.049 17.3733 9.5239 17.3495 8.97493C17.3495 8.64078 17.3017 8.28275 17.3256 7.94859C17.3256 7.5667 17.3972 7.20867 17.4449 6.82678C17.5643 5.91978 17.5165 4.98892 17.4927 4.08192C17.4927 3.77163 17.3972 3.36587 17.0869 3.342C16.896 3.31813 16.6573 3.43747 16.5379 3.29426C16.4902 3.19879 16.5141 3.10332 16.5379 3.00785C16.6573 2.67369 16.8244 2.26793 16.6095 1.93377C16.5379 1.74283 16.2993 1.59961 16.0606 1.59961Z" stroke="#29261F" stroke-width="0.5" mask="url(#path-2-outside-1_6427_26024)"/>
<path d="M15.9505 30.3996C16.046 30.3996 16.1653 30.3519 16.2608 30.2803C16.3562 30.2087 16.404 30.1132 16.4756 30.0177C16.5949 29.8029 16.6665 29.612 16.6188 29.3971C16.5711 29.1346 16.404 28.9436 16.4517 28.6572C16.5472 28.1798 17.2871 28.1799 17.4065 27.607C17.4542 27.3445 17.4065 27.058 17.3826 26.7955C17.311 26.2704 17.311 25.7214 17.3348 25.1963C17.3587 24.7905 17.4064 24.4087 17.3348 24.0029C17.2871 23.7403 17.1678 23.5255 17.0962 23.263C16.9768 22.8572 16.9291 22.4276 16.8813 21.998C16.8336 21.4967 16.5949 20.8045 16.8813 20.3272C16.953 20.2317 17.0246 20.1362 17.0723 20.0169C17.1916 19.7782 17.1439 19.4918 17.2155 19.2531C17.2871 19.0144 17.4303 18.7996 17.5019 18.5609C17.6451 18.1074 17.0007 17.63 16.8097 18.1074C16.762 18.2268 16.7859 18.3461 16.8097 18.4654C16.8336 18.8951 16.5472 19.2531 16.3801 19.635C16.046 20.3988 16.046 21.258 15.8311 22.0696C15.8073 22.1412 15.7595 22.2605 15.6641 22.2366C15.7357 21.2819 15.8311 20.3272 15.9027 19.3724C15.9266 19.1815 15.9266 18.9905 15.9027 18.8235C15.855 18.6325 15.7595 18.4654 15.5925 18.3938C15.4254 18.3222 15.1867 18.37 15.1151 18.537C15.0196 18.728 15.139 18.9667 15.1867 19.2054C15.2344 19.4679 15.1151 19.7305 15.0435 19.993C14.9003 20.4704 14.948 20.9477 14.8525 21.4251C14.7571 21.9502 14.6377 22.4753 14.6616 23.0243C14.6616 23.3584 14.7093 23.7165 14.6855 24.0506C14.6855 24.4325 14.6139 24.7905 14.5661 25.1724C14.4468 26.0794 14.4945 27.0103 14.5184 27.9173C14.5184 28.2276 14.6139 28.6333 14.9241 28.6572C15.1151 28.6811 15.3538 28.5617 15.4731 28.705C15.5209 28.8004 15.497 28.8959 15.4731 28.9914C15.3538 29.3255 15.1867 29.7313 15.4015 30.0654C15.4731 30.2564 15.7118 30.3996 15.9505 30.3996Z" stroke="#29261F" stroke-width="0.5" mask="url(#path-2-outside-1_6427_26024)"/>
</svg>
