<svg width="432" height="432" viewBox="0 0 432 432" fill="none" xmlns="http://www.w3.org/2000/svg">
<path d="M387.571 43.4286H346.429V84.5714H387.571V43.4286Z" fill="#D6D3CB"/>
<path d="M319 16V112H415V16H319ZM400.6 97.6H333.4V30.4H400.6V97.6Z" fill="#D6D3CB"/>
<path d="M84.5714 346.429H43.4286V387.571H84.5714V346.429Z" fill="#D6D3CB"/>
<path d="M16 319V415H112V319H16ZM97.6 400.6H30.4V333.4H97.6V400.6Z" fill="#D6D3CB"/>
<path d="M84.5714 43.4286H43.4286V84.5714H84.5714V43.4286Z" fill="#D6D3CB"/>
<path d="M16 16V112H112V16H16ZM97.6 97.6H30.4V30.4H97.6V97.6Z" fill="#D6D3CB"/>
<path d="M153.931 16H140.138V29.7931H153.931V16Z" fill="#D6D3CB"/>
<path d="M167.724 16H153.931V29.7931H167.724V16Z" fill="#D6D3CB"/>
<path d="M209.103 16H195.31V29.7931H209.103V16Z" fill="#D6D3CB"/>
<path d="M222.896 16H209.103V29.7931H222.896V16Z" fill="#D6D3CB"/>
<path d="M250.483 16H236.69V29.7931H250.483V16Z" fill="#D6D3CB"/>
<path d="M264.276 16H250.483V29.7931H264.276V16Z" fill="#D6D3CB"/>
<path d="M278.069 16H264.276V29.7931H278.069V16Z" fill="#D6D3CB"/>
<path d="M291.862 16H278.069V29.7931H291.862V16Z" fill="#D6D3CB"/>
<path d="M140.138 29.7931H126.345V43.5862H140.138V29.7931Z" fill="#D6D3CB"/>
<path d="M153.931 29.7931H140.138V43.5862H153.931V29.7931Z" fill="#D6D3CB"/>
<path d="M195.31 29.7931H181.517V43.5862H195.31V29.7931Z" fill="#D6D3CB"/>
<path d="M236.69 29.7931H222.896V43.5862H236.69V29.7931Z" fill="#D6D3CB"/>
<path d="M305.655 29.7931H291.862V43.5862H305.655V29.7931Z" fill="#D6D3CB"/>
<path d="M153.931 43.5862H140.138V57.3793H153.931V43.5862Z" fill="#D6D3CB"/>
<path d="M167.724 43.5862H153.931V57.3793H167.724V43.5862Z" fill="#D6D3CB"/>
<path d="M195.31 43.5862H181.517V57.3793H195.31V43.5862Z" fill="#D6D3CB"/>
<path d="M209.103 43.5862H195.31V57.3793H209.103V43.5862Z" fill="#D6D3CB"/>
<path d="M222.896 43.5862H209.103V57.3793H222.896V43.5862Z" fill="#D6D3CB"/>
<path d="M250.483 43.5862H236.69V57.3793H250.483V43.5862Z" fill="#D6D3CB"/>
<path d="M264.276 43.5862H250.483V57.3793H264.276V43.5862Z" fill="#D6D3CB"/>
<path d="M278.069 43.5862H264.276V57.3793H278.069V43.5862Z" fill="#D6D3CB"/>
<path d="M291.862 43.5862H278.069V57.3793H291.862V43.5862Z" fill="#D6D3CB"/>
<path d="M305.655 43.5862H291.862V57.3793H305.655V43.5862Z" fill="#D6D3CB"/>
<path d="M153.931 57.3793H140.138V71.1724H153.931V57.3793Z" fill="#D6D3CB"/>
<path d="M181.517 57.3793H167.724V71.1724H181.517V57.3793Z" fill="#D6D3CB"/>
<path d="M222.896 57.3793H209.103V71.1724H222.896V57.3793Z" fill="#D6D3CB"/>
<path d="M236.69 57.3793H222.896V71.1724H236.69V57.3793Z" fill="#D6D3CB"/>
<path d="M278.069 57.3793H264.276V71.1724H278.069V57.3793Z" fill="#D6D3CB"/>
<path d="M291.862 57.3793H278.069V71.1724H291.862V57.3793Z" fill="#D6D3CB"/>
<path d="M153.931 71.1724H140.138V84.9655H153.931V71.1724Z" fill="#D6D3CB"/>
<path d="M181.517 71.1724H167.724V84.9655H181.517V71.1724Z" fill="#D6D3CB"/>
<path d="M236.69 71.1724H222.896V84.9655H236.69V71.1724Z" fill="#D6D3CB"/>
<path d="M278.069 71.1724H264.276V84.9655H278.069V71.1724Z" fill="#D6D3CB"/>
<path d="M140.138 84.9655H126.345V98.7586H140.138V84.9655Z" fill="#D6D3CB"/>
<path d="M209.103 84.9655H195.31V98.7586H209.103V84.9655Z" fill="#D6D3CB"/>
<path d="M222.896 84.9655H209.103V98.7586H222.896V84.9655Z" fill="#D6D3CB"/>
<path d="M236.69 84.9655H222.896V98.7586H236.69V84.9655Z" fill="#D6D3CB"/>
<path d="M250.483 84.9655H236.69V98.7586H250.483V84.9655Z" fill="#D6D3CB"/>
<path d="M278.069 84.9655H264.276V98.7586H278.069V84.9655Z" fill="#D6D3CB"/>
<path d="M291.862 84.9655H278.069V98.7586H291.862V84.9655Z" fill="#D6D3CB"/>
<path d="M305.655 84.9655H291.862V98.7586H305.655V84.9655Z" fill="#D6D3CB"/>
<path d="M140.138 98.7586H126.345V112.552H140.138V98.7586Z" fill="#D6D3CB"/>
<path d="M167.724 98.7586H153.931V112.552H167.724V98.7586Z" fill="#D6D3CB"/>
<path d="M195.31 98.7586H181.517V112.552H195.31V98.7586Z" fill="#D6D3CB"/>
<path d="M222.896 98.7586H209.103V112.552H222.896V98.7586Z" fill="#D6D3CB"/>
<path d="M250.483 98.7586H236.69V112.552H250.483V98.7586Z" fill="#D6D3CB"/>
<path d="M278.069 98.7586H264.276V112.552H278.069V98.7586Z" fill="#D6D3CB"/>
<path d="M305.655 98.7586H291.862V112.552H305.655V98.7586Z" fill="#D6D3CB"/>
<path d="M140.138 112.552H126.345V126.345H140.138V112.552Z" fill="#D6D3CB"/>
<path d="M195.31 112.552H181.517V126.345H195.31V112.552Z" fill="#D6D3CB"/>
<path d="M209.103 112.552H195.31V126.345H209.103V112.552Z" fill="#D6D3CB"/>
<path d="M222.896 112.552H209.103V126.345H222.896V112.552Z" fill="#D6D3CB"/>
<path d="M236.69 112.552H222.896V126.345H236.69V112.552Z" fill="#D6D3CB"/>
<path d="M264.276 112.552H250.483V126.345H264.276V112.552Z" fill="#D6D3CB"/>
<path d="M278.069 112.552H264.276V126.345H278.069V112.552Z" fill="#D6D3CB"/>
<path d="M291.862 112.552H278.069V126.345H291.862V112.552Z" fill="#D6D3CB"/>
<path d="M305.655 112.552H291.862V126.345H305.655V112.552Z" fill="#D6D3CB"/>
<path d="M84.9655 126.345H71.1724V140.138H84.9655V126.345Z" fill="#D6D3CB"/>
<path d="M98.7586 126.345H84.9655V140.138H98.7586V126.345Z" fill="#D6D3CB"/>
<path d="M112.552 126.345H98.7586V140.138H112.552V126.345Z" fill="#D6D3CB"/>
<path d="M126.345 126.345H112.552V140.138H126.345V126.345Z" fill="#D6D3CB"/>
<path d="M153.931 126.345H140.138V140.138H153.931V126.345Z" fill="#D6D3CB"/>
<path d="M181.517 126.345H167.724V140.138H181.517V126.345Z" fill="#D6D3CB"/>
<path d="M209.103 126.345H195.31V140.138H209.103V126.345Z" fill="#D6D3CB"/>
<path d="M278.069 126.345H264.276V140.138H278.069V126.345Z" fill="#D6D3CB"/>
<path d="M333.241 126.345H319.448V140.138H333.241V126.345Z" fill="#D6D3CB"/>
<path d="M347.034 126.345H333.241V140.138H347.034V126.345Z" fill="#D6D3CB"/>
<path d="M402.207 126.345H388.414V140.138H402.207V126.345Z" fill="#D6D3CB"/>
<path d="M29.7931 140.138H16V153.931H29.7931V140.138Z" fill="#D6D3CB"/>
<path d="M43.5862 140.138H29.7931V153.931H43.5862V140.138Z" fill="#D6D3CB"/>
<path d="M57.3793 140.138H43.5862V153.931H57.3793V140.138Z" fill="#D6D3CB"/>
<path d="M71.1724 140.138H57.3793V153.931H71.1724V140.138Z" fill="#D6D3CB"/>
<path d="M126.345 140.138H112.552V153.931H126.345V140.138Z" fill="#D6D3CB"/>
<path d="M181.517 140.138H167.724V153.931H181.517V140.138Z" fill="#D6D3CB"/>
<path d="M222.896 140.138H209.103V153.931H222.896V140.138Z" fill="#D6D3CB"/>
<path d="M291.862 140.138H278.069V153.931H291.862V140.138Z" fill="#D6D3CB"/>
<path d="M305.655 140.138H291.862V153.931H305.655V140.138Z" fill="#D6D3CB"/>
<path d="M319.448 140.138H305.655V153.931H319.448V140.138Z" fill="#D6D3CB"/>
<path d="M333.241 140.138H319.448V153.931H333.241V140.138Z" fill="#D6D3CB"/>
<path d="M360.827 140.138H347.034V153.931H360.827V140.138Z" fill="#D6D3CB"/>
<path d="M374.621 140.138H360.827V153.931H374.621V140.138Z" fill="#D6D3CB"/>
<path d="M402.207 140.138H388.414V153.931H402.207V140.138Z" fill="#D6D3CB"/>
<path d="M416 140.138H402.207V153.931H416V140.138Z" fill="#D6D3CB"/>
<path d="M29.7931 153.931H16V167.724H29.7931V153.931Z" fill="#D6D3CB"/>
<path d="M57.3793 153.931H43.5862V167.724H57.3793V153.931Z" fill="#D6D3CB"/>
<path d="M71.1724 153.931H57.3793V167.724H71.1724V153.931Z" fill="#D6D3CB"/>
<path d="M98.7586 153.931H84.9655V167.724H98.7586V153.931Z" fill="#D6D3CB"/>
<path d="M112.552 153.931H98.7586V167.724H112.552V153.931Z" fill="#D6D3CB"/>
<path d="M126.345 153.931H112.552V167.724H126.345V153.931Z" fill="#D6D3CB"/>
<path d="M140.138 153.931H126.345V167.724H140.138V153.931Z" fill="#D6D3CB"/>
<path d="M153.931 153.931H140.138V167.724H153.931V153.931Z" fill="#D6D3CB"/>
<path d="M305.655 153.931H291.862V167.724H305.655V153.931Z" fill="#D6D3CB"/>
<path d="M319.448 153.931H305.655V167.724H319.448V153.931Z" fill="#D6D3CB"/>
<path d="M360.827 153.931H347.034V167.724H360.827V153.931Z" fill="#D6D3CB"/>
<path d="M374.621 153.931H360.827V167.724H374.621V153.931Z" fill="#D6D3CB"/>
<path d="M416 153.931H402.207V167.724H416V153.931Z" fill="#D6D3CB"/>
<path d="M29.7931 167.724H16V181.517H29.7931V167.724Z" fill="#D6D3CB"/>
<path d="M43.5862 167.724H29.7931V181.517H43.5862V167.724Z" fill="#D6D3CB"/>
<path d="M71.1724 167.724H57.3793V181.517H71.1724V167.724Z" fill="#D6D3CB"/>
<path d="M84.9655 167.724H71.1724V181.517H84.9655V167.724Z" fill="#D6D3CB"/>
<path d="M319.448 167.724H305.655V181.517H319.448V167.724Z" fill="#D6D3CB"/>
<path d="M347.034 167.724H333.241V181.517H347.034V167.724Z" fill="#D6D3CB"/>
<path d="M374.621 167.724H360.827V181.517H374.621V167.724Z" fill="#D6D3CB"/>
<path d="M402.207 167.724H388.414V181.517H402.207V167.724Z" fill="#D6D3CB"/>
<path d="M416 167.724H402.207V181.517H416V167.724Z" fill="#D6D3CB"/>
<path d="M57.3793 181.517H43.5862V195.31H57.3793V181.517Z" fill="#D6D3CB"/>
<path d="M98.7586 181.517H84.9655V195.31H98.7586V181.517Z" fill="#D6D3CB"/>
<path d="M112.552 181.517H98.7586V195.31H112.552V181.517Z" fill="#D6D3CB"/>
<path d="M140.138 181.517H126.345V195.31H140.138V181.517Z" fill="#D6D3CB"/>
<path d="M291.862 181.517H278.069V195.31H291.862V181.517Z" fill="#D6D3CB"/>
<path d="M305.655 181.517H291.862V195.31H305.655V181.517Z" fill="#D6D3CB"/>
<path d="M347.034 181.517H333.241V195.31H347.034V181.517Z" fill="#D6D3CB"/>
<path d="M416 181.517H402.207V195.31H416V181.517Z" fill="#D6D3CB"/>
<path d="M29.7931 195.31H16V209.103H29.7931V195.31Z" fill="#D6D3CB"/>
<path d="M71.1724 195.31H57.3793V209.103H71.1724V195.31Z" fill="#D6D3CB"/>
<path d="M84.9655 195.31H71.1724V209.103H84.9655V195.31Z" fill="#D6D3CB"/>
<path d="M140.138 195.31H126.345V209.103H140.138V195.31Z" fill="#D6D3CB"/>
<path d="M305.655 195.31H291.862V209.103H305.655V195.31Z" fill="#D6D3CB"/>
<path d="M333.241 195.31H319.448V209.103H333.241V195.31Z" fill="#D6D3CB"/>
<path d="M360.827 195.31H347.034V209.103H360.827V195.31Z" fill="#D6D3CB"/>
<path d="M388.414 195.31H374.621V209.103H388.414V195.31Z" fill="#D6D3CB"/>
<path d="M416 195.31H402.207V209.103H416V195.31Z" fill="#D6D3CB"/>
<path d="M29.7931 209.103H16V222.896H29.7931V209.103Z" fill="#D6D3CB"/>
<path d="M43.5862 209.103H29.7931V222.896H43.5862V209.103Z" fill="#D6D3CB"/>
<path d="M57.3793 209.103H43.5862V222.896H57.3793V209.103Z" fill="#D6D3CB"/>
<path d="M112.552 209.103H98.7586V222.896H112.552V209.103Z" fill="#D6D3CB"/>
<path d="M333.241 209.103H319.448V222.896H333.241V209.103Z" fill="#D6D3CB"/>
<path d="M360.827 209.103H347.034V222.896H360.827V209.103Z" fill="#D6D3CB"/>
<path d="M416 209.103H402.207V222.896H416V209.103Z" fill="#D6D3CB"/>
<path d="M29.7931 222.896H16V236.69H29.7931V222.896Z" fill="#D6D3CB"/>
<path d="M140.138 222.896H126.345V236.69H140.138V222.896Z" fill="#D6D3CB"/>
<path d="M153.931 222.896H140.138V236.69H153.931V222.896Z" fill="#D6D3CB"/>
<path d="M305.655 222.896H291.862V236.69H305.655V222.896Z" fill="#D6D3CB"/>
<path d="M319.448 222.896H305.655V236.69H319.448V222.896Z" fill="#D6D3CB"/>
<path d="M347.034 222.896H333.241V236.69H347.034V222.896Z" fill="#D6D3CB"/>
<path d="M374.621 222.896H360.827V236.69H374.621V222.896Z" fill="#D6D3CB"/>
<path d="M29.7931 236.69H16V250.483H29.7931V236.69Z" fill="#D6D3CB"/>
<path d="M43.5862 236.69H29.7931V250.483H43.5862V236.69Z" fill="#D6D3CB"/>
<path d="M98.7586 236.69H84.9655V250.483H98.7586V236.69Z" fill="#D6D3CB"/>
<path d="M112.552 236.69H98.7586V250.483H112.552V236.69Z" fill="#D6D3CB"/>
<path d="M153.931 236.69H140.138V250.483H153.931V236.69Z" fill="#D6D3CB"/>
<path d="M291.862 236.69H278.069V250.483H291.862V236.69Z" fill="#D6D3CB"/>
<path d="M305.655 236.69H291.862V250.483H305.655V236.69Z" fill="#D6D3CB"/>
<path d="M347.034 236.69H333.241V250.483H347.034V236.69Z" fill="#D6D3CB"/>
<path d="M402.207 236.69H388.414V250.483H402.207V236.69Z" fill="#D6D3CB"/>
<path d="M416 236.69H402.207V250.483H416V236.69Z" fill="#D6D3CB"/>
<path d="M29.7931 250.483H16V264.276H29.7931V250.483Z" fill="#D6D3CB"/>
<path d="M43.5862 250.483H29.7931V264.276H43.5862V250.483Z" fill="#D6D3CB"/>
<path d="M57.3793 250.483H43.5862V264.276H57.3793V250.483Z" fill="#D6D3CB"/>
<path d="M84.9655 250.483H71.1724V264.276H84.9655V250.483Z" fill="#D6D3CB"/>
<path d="M98.7586 250.483H84.9655V264.276H98.7586V250.483Z" fill="#D6D3CB"/>
<path d="M126.345 250.483H112.552V264.276H126.345V250.483Z" fill="#D6D3CB"/>
<path d="M153.931 250.483H140.138V264.276H153.931V250.483Z" fill="#D6D3CB"/>
<path d="M291.862 250.483H278.069V264.276H291.862V250.483Z" fill="#D6D3CB"/>
<path d="M319.448 250.483H305.655V264.276H319.448V250.483Z" fill="#D6D3CB"/>
<path d="M333.241 250.483H319.448V264.276H333.241V250.483Z" fill="#D6D3CB"/>
<path d="M347.034 250.483H333.241V264.276H347.034V250.483Z" fill="#D6D3CB"/>
<path d="M360.827 250.483H347.034V264.276H360.827V250.483Z" fill="#D6D3CB"/>
<path d="M374.621 250.483H360.827V264.276H374.621V250.483Z" fill="#D6D3CB"/>
<path d="M388.414 250.483H374.621V264.276H388.414V250.483Z" fill="#D6D3CB"/>
<path d="M416 250.483H402.207V264.276H416V250.483Z" fill="#D6D3CB"/>
<path d="M57.3793 264.276H43.5862V278.069H57.3793V264.276Z" fill="#D6D3CB"/>
<path d="M71.1724 264.276H57.3793V278.069H71.1724V264.276Z" fill="#D6D3CB"/>
<path d="M98.7586 264.276H84.9655V278.069H98.7586V264.276Z" fill="#D6D3CB"/>
<path d="M112.552 264.276H98.7586V278.069H112.552V264.276Z" fill="#D6D3CB"/>
<path d="M140.138 264.276H126.345V278.069H140.138V264.276Z" fill="#D6D3CB"/>
<path d="M153.931 264.276H140.138V278.069H153.931V264.276Z" fill="#D6D3CB"/>
<path d="M291.862 264.276H278.069V278.069H291.862V264.276Z" fill="#D6D3CB"/>
<path d="M388.414 264.276H374.621V278.069H388.414V264.276Z" fill="#D6D3CB"/>
<path d="M416 264.276H402.207V278.069H416V264.276Z" fill="#D6D3CB"/>
<path d="M57.3793 278.069H43.5862V291.862H57.3793V278.069Z" fill="#D6D3CB"/>
<path d="M181.517 278.069H167.724V291.862H181.517V278.069Z" fill="#D6D3CB"/>
<path d="M236.69 278.069H222.896V291.862H236.69V278.069Z" fill="#D6D3CB"/>
<path d="M250.483 278.069H236.69V291.862H250.483V278.069Z" fill="#D6D3CB"/>
<path d="M264.276 278.069H250.483V291.862H264.276V278.069Z" fill="#D6D3CB"/>
<path d="M291.862 278.069H278.069V291.862H291.862V278.069Z" fill="#D6D3CB"/>
<path d="M305.655 278.069H291.862V291.862H305.655V278.069Z" fill="#D6D3CB"/>
<path d="M347.034 278.069H333.241V291.862H347.034V278.069Z" fill="#D6D3CB"/>
<path d="M360.827 278.069H347.034V291.862H360.827V278.069Z" fill="#D6D3CB"/>
<path d="M374.621 278.069H360.827V291.862H374.621V278.069Z" fill="#D6D3CB"/>
<path d="M402.207 278.069H388.414V291.862H402.207V278.069Z" fill="#D6D3CB"/>
<path d="M416 278.069H402.207V291.862H416V278.069Z" fill="#D6D3CB"/>
<path d="M29.7931 291.862H16V305.655H29.7931V291.862Z" fill="#D6D3CB"/>
<path d="M43.5862 291.862H29.7931V305.655H43.5862V291.862Z" fill="#D6D3CB"/>
<path d="M71.1724 291.862H57.3793V305.655H71.1724V291.862Z" fill="#D6D3CB"/>
<path d="M84.9655 291.862H71.1724V305.655H84.9655V291.862Z" fill="#D6D3CB"/>
<path d="M112.552 291.862H98.7586V305.655H112.552V291.862Z" fill="#D6D3CB"/>
<path d="M126.345 291.862H112.552V305.655H126.345V291.862Z" fill="#D6D3CB"/>
<path d="M140.138 291.862H126.345V305.655H140.138V291.862Z" fill="#D6D3CB"/>
<path d="M153.931 291.862H140.138V305.655H153.931V291.862Z" fill="#D6D3CB"/>
<path d="M167.724 291.862H153.931V305.655H167.724V291.862Z" fill="#D6D3CB"/>
<path d="M181.517 291.862H167.724V305.655H181.517V291.862Z" fill="#D6D3CB"/>
<path d="M236.69 291.862H222.896V305.655H236.69V291.862Z" fill="#D6D3CB"/>
<path d="M250.483 291.862H236.69V305.655H250.483V291.862Z" fill="#D6D3CB"/>
<path d="M278.069 291.862H264.276V305.655H278.069V291.862Z" fill="#D6D3CB"/>
<path d="M305.655 291.862H291.862V305.655H305.655V291.862Z" fill="#D6D3CB"/>
<path d="M319.448 291.862H305.655V305.655H319.448V291.862Z" fill="#D6D3CB"/>
<path d="M333.241 291.862H319.448V305.655H333.241V291.862Z" fill="#D6D3CB"/>
<path d="M347.034 291.862H333.241V305.655H347.034V291.862Z" fill="#D6D3CB"/>
<path d="M360.827 291.862H347.034V305.655H360.827V291.862Z" fill="#D6D3CB"/>
<path d="M402.207 291.862H388.414V305.655H402.207V291.862Z" fill="#D6D3CB"/>
<path d="M140.138 305.655H126.345V319.448H140.138V305.655Z" fill="#D6D3CB"/>
<path d="M153.931 305.655H140.138V319.448H153.931V305.655Z" fill="#D6D3CB"/>
<path d="M167.724 305.655H153.931V319.448H167.724V305.655Z" fill="#D6D3CB"/>
<path d="M181.517 305.655H167.724V319.448H181.517V305.655Z" fill="#D6D3CB"/>
<path d="M195.31 305.655H181.517V319.448H195.31V305.655Z" fill="#D6D3CB"/>
<path d="M236.69 305.655H222.896V319.448H236.69V305.655Z" fill="#D6D3CB"/>
<path d="M250.483 305.655H236.69V319.448H250.483V305.655Z" fill="#D6D3CB"/>
<path d="M264.276 305.655H250.483V319.448H264.276V305.655Z" fill="#D6D3CB"/>
<path d="M305.655 305.655H291.862V319.448H305.655V305.655Z" fill="#D6D3CB"/>
<path d="M360.827 305.655H347.034V319.448H360.827V305.655Z" fill="#D6D3CB"/>
<path d="M388.414 305.655H374.621V319.448H388.414V305.655Z" fill="#D6D3CB"/>
<path d="M416 305.655H402.207V319.448H416V305.655Z" fill="#D6D3CB"/>
<path d="M140.138 319.448H126.345V333.241H140.138V319.448Z" fill="#D6D3CB"/>
<path d="M181.517 319.448H167.724V333.241H181.517V319.448Z" fill="#D6D3CB"/>
<path d="M195.31 319.448H181.517V333.241H195.31V319.448Z" fill="#D6D3CB"/>
<path d="M209.103 319.448H195.31V333.241H209.103V319.448Z" fill="#D6D3CB"/>
<path d="M250.483 319.448H236.69V333.241H250.483V319.448Z" fill="#D6D3CB"/>
<path d="M264.276 319.448H250.483V333.241H264.276V319.448Z" fill="#D6D3CB"/>
<path d="M278.069 319.448H264.276V333.241H278.069V319.448Z" fill="#D6D3CB"/>
<path d="M291.862 319.448H278.069V333.241H291.862V319.448Z" fill="#D6D3CB"/>
<path d="M305.655 319.448H291.862V333.241H305.655V319.448Z" fill="#D6D3CB"/>
<path d="M333.241 319.448H319.448V333.241H333.241V319.448Z" fill="#D6D3CB"/>
<path d="M360.827 319.448H347.034V333.241H360.827V319.448Z" fill="#D6D3CB"/>
<path d="M402.207 319.448H388.414V333.241H402.207V319.448Z" fill="#D6D3CB"/>
<path d="M416 319.448H402.207V333.241H416V319.448Z" fill="#D6D3CB"/>
<path d="M140.138 333.241H126.345V347.034H140.138V333.241Z" fill="#D6D3CB"/>
<path d="M153.931 333.241H140.138V347.034H153.931V333.241Z" fill="#D6D3CB"/>
<path d="M181.517 333.241H167.724V347.034H181.517V333.241Z" fill="#D6D3CB"/>
<path d="M195.31 333.241H181.517V347.034H195.31V333.241Z" fill="#D6D3CB"/>
<path d="M264.276 333.241H250.483V347.034H264.276V333.241Z" fill="#D6D3CB"/>
<path d="M291.862 333.241H278.069V347.034H291.862V333.241Z" fill="#D6D3CB"/>
<path d="M305.655 333.241H291.862V347.034H305.655V333.241Z" fill="#D6D3CB"/>
<path d="M360.827 333.241H347.034V347.034H360.827V333.241Z" fill="#D6D3CB"/>
<path d="M374.621 333.241H360.827V347.034H374.621V333.241Z" fill="#D6D3CB"/>
<path d="M416 333.241H402.207V347.034H416V333.241Z" fill="#D6D3CB"/>
<path d="M140.138 347.034H126.345V360.827H140.138V347.034Z" fill="#D6D3CB"/>
<path d="M167.724 347.034H153.931V360.827H167.724V347.034Z" fill="#D6D3CB"/>
<path d="M181.517 347.034H167.724V360.827H181.517V347.034Z" fill="#D6D3CB"/>
<path d="M195.31 347.034H181.517V360.827H195.31V347.034Z" fill="#D6D3CB"/>
<path d="M209.103 347.034H195.31V360.827H209.103V347.034Z" fill="#D6D3CB"/>
<path d="M222.896 347.034H209.103V360.827H222.896V347.034Z" fill="#D6D3CB"/>
<path d="M236.69 347.034H222.896V360.827H236.69V347.034Z" fill="#D6D3CB"/>
<path d="M278.069 347.034H264.276V360.827H278.069V347.034Z" fill="#D6D3CB"/>
<path d="M291.862 347.034H278.069V360.827H291.862V347.034Z" fill="#D6D3CB"/>
<path d="M305.655 347.034H291.862V360.827H305.655V347.034Z" fill="#D6D3CB"/>
<path d="M319.448 347.034H305.655V360.827H319.448V347.034Z" fill="#D6D3CB"/>
<path d="M333.241 347.034H319.448V360.827H333.241V347.034Z" fill="#D6D3CB"/>
<path d="M347.034 347.034H333.241V360.827H347.034V347.034Z" fill="#D6D3CB"/>
<path d="M360.827 347.034H347.034V360.827H360.827V347.034Z" fill="#D6D3CB"/>
<path d="M402.207 347.034H388.414V360.827H402.207V347.034Z" fill="#D6D3CB"/>
<path d="M181.517 360.827H167.724V374.62H181.517V360.827Z" fill="#D6D3CB"/>
<path d="M209.103 360.827H195.31V374.62H209.103V360.827Z" fill="#D6D3CB"/>
<path d="M250.483 360.827H236.69V374.62H250.483V360.827Z" fill="#D6D3CB"/>
<path d="M264.276 360.827H250.483V374.62H264.276V360.827Z" fill="#D6D3CB"/>
<path d="M347.034 360.827H333.241V374.62H347.034V360.827Z" fill="#D6D3CB"/>
<path d="M388.414 360.827H374.621V374.62H388.414V360.827Z" fill="#D6D3CB"/>
<path d="M402.207 360.827H388.414V374.62H402.207V360.827Z" fill="#D6D3CB"/>
<path d="M153.931 374.62H140.138V388.414H153.931V374.62Z" fill="#D6D3CB"/>
<path d="M195.31 374.62H181.517V388.414H195.31V374.62Z" fill="#D6D3CB"/>
<path d="M278.069 374.62H264.276V388.414H278.069V374.62Z" fill="#D6D3CB"/>
<path d="M291.862 374.62H278.069V388.414H291.862V374.62Z" fill="#D6D3CB"/>
<path d="M305.655 374.62H291.862V388.414H305.655V374.62Z" fill="#D6D3CB"/>
<path d="M319.448 374.62H305.655V388.414H319.448V374.62Z" fill="#D6D3CB"/>
<path d="M402.207 374.62H388.414V388.414H402.207V374.62Z" fill="#D6D3CB"/>
<path d="M416 374.62H402.207V388.414H416V374.62Z" fill="#D6D3CB"/>
<path d="M195.31 388.414H181.517V402.207H195.31V388.414Z" fill="#D6D3CB"/>
<path d="M209.103 388.414H195.31V402.207H209.103V388.414Z" fill="#D6D3CB"/>
<path d="M250.483 388.414H236.69V402.207H250.483V388.414Z" fill="#D6D3CB"/>
<path d="M278.069 388.414H264.276V402.207H278.069V388.414Z" fill="#D6D3CB"/>
<path d="M319.448 388.414H305.655V402.207H319.448V388.414Z" fill="#D6D3CB"/>
<path d="M333.241 388.414H319.448V402.207H333.241V388.414Z" fill="#D6D3CB"/>
<path d="M347.034 388.414H333.241V402.207H347.034V388.414Z" fill="#D6D3CB"/>
<path d="M374.621 388.414H360.827V402.207H374.621V388.414Z" fill="#D6D3CB"/>
<path d="M402.207 388.414H388.414V402.207H402.207V388.414Z" fill="#D6D3CB"/>
<path d="M416 388.414H402.207V402.207H416V388.414Z" fill="#D6D3CB"/>
<path d="M167.724 402.207H153.931V416H167.724V402.207Z" fill="#D6D3CB"/>
<path d="M209.103 402.207H195.31V416H209.103V402.207Z" fill="#D6D3CB"/>
<path d="M222.896 402.207H209.103V416H222.896V402.207Z" fill="#D6D3CB"/>
<path d="M236.69 402.207H222.896V416H236.69V402.207Z" fill="#D6D3CB"/>
<path d="M264.276 402.207H250.483V416H264.276V402.207Z" fill="#D6D3CB"/>
<path d="M291.862 402.207H278.069V416H291.862V402.207Z" fill="#D6D3CB"/>
<path d="M305.655 402.207H291.862V416H305.655V402.207Z" fill="#D6D3CB"/>
<path d="M319.448 402.207H305.655V416H319.448V402.207Z" fill="#D6D3CB"/>
<path d="M333.241 402.207H319.448V416H333.241V402.207Z" fill="#D6D3CB"/>
<path d="M360.827 402.207H347.034V416H360.827V402.207Z" fill="#D6D3CB"/>
<path d="M374.621 402.207H360.827V416H374.621V402.207Z" fill="#D6D3CB"/>
<path d="M402.207 402.207H388.414V416H402.207V402.207Z" fill="#D6D3CB"/>
<path d="M181.627 194.183L216.173 213.274L216.173 255.091L181.627 235.091L181.627 194.183Z" fill="#FF90E8"/>
<path d="M215.827 213.272L250.373 194.182L250.373 235.091L215.827 255.091L215.827 213.272Z" fill="#E65CA1"/>
<path d="M181.8 194.182L216.033 177.818L250.2 194.182L216 213.273L181.8 194.182Z" fill="#FF66D6"/>
</svg>
