<svg width="128" height="128" viewBox="0 0 128 128" fill="none" xmlns="http://www.w3.org/2000/svg">
<path d="M71.9036 62.7781C71.9036 63.7741 71.7074 64.7604 71.3262 65.6806C70.945 66.6008 70.3864 67.4369 69.6821 68.1412C68.9778 68.8455 68.1417 69.4041 67.2215 69.7853C66.3013 70.1665 65.315 70.3626 64.319 70.3626C63.3229 70.3626 62.3367 70.1665 61.4165 69.7853C60.4963 69.4041 59.6601 68.8455 58.9558 68.1412C58.2516 67.4369 57.6929 66.6008 57.3117 65.6806C56.9306 64.7604 56.7344 63.7741 56.7344 62.7781C56.7344 60.7665 57.5335 58.8373 58.9558 57.415C60.3782 55.9926 62.3074 55.1935 64.319 55.1935C66.3305 55.1935 68.2597 55.9926 69.6821 57.415C71.1045 58.8373 71.9036 60.7665 71.9036 62.7781Z" fill="#ED1746"/>
<path d="M64.3529 107.848C39.502 107.848 19.284 87.6297 19.284 62.7789C19.284 50.7095 23.9914 39.3713 32.5401 30.8528C32.7762 30.629 33.0904 30.5063 33.4157 30.5109C33.741 30.5155 34.0516 30.647 34.2813 30.8775C34.511 31.1079 34.6415 31.4189 34.6451 31.7443C34.6487 32.0696 34.5249 32.3834 34.3004 32.6188C26.2243 40.6666 21.7764 51.3774 21.7764 62.7789C21.7764 86.2552 40.8765 105.354 64.3529 105.354C77.2033 105.354 89.2358 99.6367 97.3656 89.6674C97.469 89.5404 97.5964 89.435 97.7405 89.3573C97.8846 89.2796 98.0426 89.2311 98.2055 89.2145C98.3684 89.1979 98.533 89.2137 98.6898 89.2608C98.8466 89.3079 98.9925 89.3855 99.1193 89.4891C99.2463 89.5924 99.3517 89.7198 99.4294 89.8639C99.5071 90.008 99.5556 90.166 99.5722 90.3289C99.5888 90.4918 99.573 90.6564 99.5259 90.8132C99.4788 90.97 99.4012 91.116 99.2976 91.2428C90.6933 101.796 77.9561 107.848 64.3529 107.848ZM115.786 50.6048C115.596 50.6047 115.413 50.5414 115.264 50.425C115.114 50.3087 115.008 50.1459 114.962 49.9624C109.392 27.8964 89.6197 11.7272 66.8792 10.6442C66.0377 10.6042 65.1953 10.5841 64.3529 10.5839C64.1276 10.5839 63.9115 10.4944 63.7522 10.3351C63.5929 10.1757 63.5034 9.95967 63.5034 9.73437C63.5034 9.50907 63.5929 9.293 63.7522 9.13369C63.9115 8.97438 64.1276 8.88488 64.3529 8.88488C65.2236 8.88488 66.1009 8.90469 66.9603 8.9462C90.4414 10.065 110.858 26.7596 116.611 49.5464C116.643 49.6719 116.645 49.803 116.618 49.9296C116.592 50.0563 116.536 50.1751 116.457 50.2772C116.377 50.3793 116.275 50.4618 116.159 50.5186C116.043 50.5754 115.915 50.6049 115.786 50.6048ZM21.5217 32.949C15.3983 41.7241 12.1636 52.035 12.1636 62.7751C12.1636 68.2192 12.9758 73.5227 14.6002 78.6046C14.0381 78.711 13.4985 78.9133 13.005 79.2027C11.3071 73.8925 10.4474 68.3501 10.457 62.7751C10.457 51.6878 13.8031 41.0373 20.1255 31.9735C20.1892 31.8819 20.2704 31.8038 20.3644 31.7438C20.4585 31.6837 20.5635 31.6429 20.6734 31.6237C20.7833 31.6045 20.896 31.6073 21.0048 31.6319C21.1136 31.6564 21.2165 31.7024 21.3075 31.7669C21.4921 31.8957 21.6183 32.0923 21.6584 32.3138C21.6985 32.5353 21.6494 32.7636 21.5217 32.949ZM64.3887 116.672C57.2051 116.672 50.228 115.281 43.6509 112.539C43.4489 112.448 43.2903 112.282 43.209 112.076C43.1276 111.869 43.1299 111.64 43.2153 111.435C43.3007 111.231 43.4625 111.068 43.6663 110.981C43.8701 110.894 44.0998 110.89 44.3065 110.969C50.6742 113.626 57.4305 114.973 64.3887 114.973C74.9137 114.973 85.0567 111.855 93.7233 105.956C93.8156 105.894 93.9194 105.85 94.0287 105.827C94.1379 105.804 94.2506 105.803 94.3602 105.824C94.4699 105.845 94.5743 105.887 94.6676 105.949C94.7609 106.01 94.8412 106.089 94.904 106.181C94.9667 106.274 95.0107 106.377 95.0333 106.487C95.056 106.596 95.0569 106.709 95.036 106.818C95.0151 106.928 94.9728 107.032 94.9115 107.126C94.8503 107.219 94.7713 107.299 94.679 107.362C85.7303 113.452 75.2562 116.672 64.3887 116.672ZM64.318 126.141C61.7228 126.141 59.1078 125.983 56.5466 125.671C56.2183 125.63 55.9194 125.461 55.7157 125.201C55.5119 124.94 55.4199 124.609 55.4599 124.281C55.5018 123.953 55.6713 123.656 55.9314 123.452C56.1915 123.249 56.5214 123.156 56.8494 123.194C59.3097 123.495 61.8228 123.648 64.318 123.648C70.0508 123.648 75.7232 122.853 81.1786 121.283C81.3359 121.238 81.5006 121.224 81.6633 121.242C81.826 121.261 81.9835 121.311 82.1267 121.39C82.27 121.469 82.3963 121.576 82.4983 121.704C82.6003 121.832 82.6762 121.979 82.7214 122.136C82.7667 122.294 82.7806 122.458 82.7622 122.621C82.7438 122.784 82.6936 122.941 82.6143 123.084C82.5351 123.228 82.4284 123.354 82.3004 123.456C82.1724 123.558 82.0255 123.634 81.8682 123.679C76.1621 125.317 70.2544 126.145 64.318 126.141ZM7.6062 89.4051C7.1298 89.4051 6.6751 89.1306 6.46757 88.6683C2.80923 80.5045 0.95459 71.7936 0.95459 62.7779C0.95459 53.7585 2.81112 45.0456 6.4704 36.8818C6.75246 36.2545 7.48828 35.9724 8.11844 36.2545C8.26787 36.3213 8.40266 36.417 8.51509 36.536C8.62752 36.655 8.71538 36.795 8.77364 36.948C8.83191 37.1009 8.85944 37.2639 8.85466 37.4276C8.84988 37.5912 8.81288 37.7523 8.74577 37.9016C5.22988 45.7428 3.44788 54.1122 3.44788 62.7779C3.44788 71.4408 5.22988 79.8074 8.74294 87.6476C8.82808 87.8375 8.86438 88.0456 8.84853 88.253C8.83268 88.4604 8.76518 88.6606 8.6522 88.8353C8.53921 89.01 8.38431 89.1536 8.20162 89.2531C8.01893 89.3527 7.81424 89.4049 7.6062 89.4051Z" fill="white"/>
<path d="M122.753 37.3968C122.634 37.3968 122.523 37.4223 122.407 37.4317C114.924 20.2305 100.205 7.17636 81.9406 1.89923C81.6263 1.8178 81.2925 1.86219 81.0104 2.02296C80.7283 2.18373 80.52 2.4482 80.4298 2.76015C80.3396 3.0721 80.3747 3.40692 80.5275 3.69343C80.6803 3.97994 80.9389 4.19555 81.2482 4.29441C98.7654 9.35552 112.888 21.8644 120.087 38.3496C119.103 39.1354 118.461 40.3316 118.461 41.6891C118.461 42.538 118.713 43.3679 119.184 44.0737C119.656 44.7796 120.326 45.3297 121.11 45.6546C121.895 45.9795 122.758 46.0645 123.59 45.8989C124.423 45.7332 125.188 45.3245 125.788 44.7242C126.388 44.1239 126.797 43.3591 126.963 42.5265C127.128 41.6938 127.043 40.8308 126.719 40.0465C126.394 39.2622 125.844 38.5918 125.138 38.1202C124.432 37.6485 123.602 37.3968 122.753 37.3968ZM107.575 50.0897C105.133 41.7881 100.357 34.3632 93.8146 28.699C85.6239 21.6089 75.1528 17.7073 64.3196 17.7089C61.6999 17.7089 59.0746 17.9353 56.5162 18.3825C56.1906 18.4393 55.9008 18.6231 55.7107 18.8935C55.5206 19.1639 55.4458 19.4988 55.5026 19.8244C55.5593 20.15 55.7432 20.4398 56.0136 20.6299C56.284 20.82 56.6189 20.8948 56.9445 20.8381C59.38 20.4147 61.8476 20.202 64.3196 20.2022C74.5533 20.2007 84.445 23.8863 92.1826 30.5839C98.3244 35.9028 102.819 42.8652 105.139 50.6519C104.303 51.0805 103.602 51.7313 103.112 52.5327C102.623 53.3341 102.363 54.255 102.363 55.1942C102.363 56.5493 102.902 57.849 103.86 58.8073C104.818 59.7655 106.118 60.3039 107.473 60.3039C108.828 60.3039 110.128 59.7655 111.086 58.8073C112.044 57.849 112.583 56.5493 112.583 55.1942C112.582 53.8572 112.058 52.5736 111.122 51.6192C110.185 50.6648 108.912 50.1156 107.575 50.0897Z" fill="white"/>
<path d="M64.3526 27.3282C44.8006 27.3282 28.8975 43.2313 28.8975 62.7758C28.8975 63.2701 28.9051 63.7578 28.9277 64.2456C29.4787 64.0938 30.0476 64.0167 30.6191 64.0163C30.6041 63.603 30.5965 63.1894 30.5965 62.7758C30.5965 44.169 45.7393 29.0272 64.3526 29.0272C82.9585 29.0272 98.1012 44.169 98.1012 62.7758C98.1012 81.3892 82.9585 96.531 64.3526 96.531C50.0429 96.531 37.7849 87.5776 32.8841 74.9781C33.9184 74.4682 34.7495 73.6231 35.2423 72.5805C35.735 71.5379 35.8602 70.3592 35.5976 69.2364C35.335 68.1135 34.7 67.1127 33.796 66.3968C32.892 65.6808 31.7723 65.292 30.6191 65.2936C29.264 65.2936 27.9643 65.832 27.006 66.7902C26.0478 67.7485 25.5095 69.0482 25.5095 70.4033C25.5095 71.7585 26.0478 73.0582 27.006 74.0164C27.9643 74.9747 29.264 75.513 30.6191 75.513C30.8342 75.513 31.0446 75.4951 31.2521 75.4696C36.3708 88.7662 49.2702 98.23 64.3526 98.23C83.8971 98.23 99.8002 82.3278 99.8002 62.7758C99.8002 43.2313 83.8971 27.3282 64.3526 27.3282ZM19.9498 83.8551C19.9498 83.2915 19.8388 82.7333 19.6231 82.2125C19.4073 81.6918 19.0912 81.2186 18.6926 80.82C18.294 80.4215 17.8209 80.1053 17.3001 79.8896C16.7793 79.6739 16.2212 79.5629 15.6575 79.5629C15.0938 79.5629 14.5357 79.6739 14.0149 79.8896C13.4942 80.1053 13.021 80.4215 12.6224 80.82C12.2238 81.2186 11.9077 81.6918 11.692 82.2125C11.4763 82.7333 11.3652 83.2915 11.3652 83.8551C11.3652 84.9935 11.8175 86.0853 12.6224 86.8902C13.4274 87.6952 14.5191 88.1474 15.6575 88.1474C16.7959 88.1474 17.8876 87.6952 18.6926 86.8902C19.4976 86.0853 19.9498 84.9935 19.9498 83.8551Z" fill="white"/>
<path d="M64.3554 45.7443C57.5227 45.7443 51.621 49.7847 48.9107 55.5976C49.4904 55.6568 50.0609 55.7857 50.6097 55.9816C53.1209 50.9223 58.3358 47.4432 64.3554 47.4432C72.8126 47.4432 79.6896 54.3203 79.6896 62.7775C79.6896 71.2347 72.8126 78.1184 64.3554 78.1184C57.8226 78.1184 52.2417 74.0063 50.0352 68.2339C51.3259 67.7897 52.4174 66.9024 53.1158 65.7297C53.8143 64.5569 54.0744 63.1745 53.8501 61.8281C53.6258 60.4817 52.9315 59.2584 51.8906 58.3754C50.8497 57.4924 49.5295 57.0069 48.1646 57.0051C47.4004 56.9953 46.6418 57.1374 45.933 57.4231C45.2241 57.7088 44.5791 58.1324 44.0352 58.6693C43.4914 59.2063 43.0596 59.8459 42.7648 60.551C42.4701 61.2561 42.3184 62.0128 42.3184 62.777C42.3184 63.5413 42.4701 64.2979 42.7648 65.0031C43.0596 65.7082 43.4914 66.3478 44.0352 66.8848C44.5791 67.4217 45.2241 67.8453 45.933 68.131C46.6418 68.4167 47.4004 68.5587 48.1646 68.549C48.223 68.549 48.2806 68.5424 48.3381 68.5405C50.706 75.1081 56.9831 79.8174 64.3554 79.8174C73.7512 79.8174 81.3962 72.1724 81.3962 62.7775C81.3962 53.3817 73.7512 45.7443 64.3554 45.7443Z" fill="white"/>
<path d="M83.9642 62.7767C83.9639 63.8926 84.287 64.9845 84.8944 65.9206C85.5017 66.8566 86.3673 67.5966 87.3864 68.051C88.4054 68.5055 89.5344 68.6548 90.6366 68.4811C91.7388 68.3073 92.767 67.8179 93.5969 67.072C94.4268 66.3261 95.0227 65.3557 95.3126 64.2782C95.6025 63.2007 95.574 62.0623 95.2305 61.0007C94.8869 59.9391 94.2432 58.9998 93.377 58.2964C92.5108 57.593 91.4593 57.1557 90.3498 57.0374C87.716 45.1067 77.0655 36.1505 64.3537 36.1505C49.6704 36.1505 37.7256 48.0962 37.7256 62.7796C37.7256 77.4629 49.6704 89.4087 64.3537 89.4087C76.5419 89.4087 86.8367 81.175 89.9866 69.9793C89.9026 69.9821 89.8206 69.9925 89.7366 69.9925C88.9745 69.9919 88.2173 69.8702 87.4933 69.6321C84.5321 79.6128 75.2825 86.9154 64.3537 86.9154C51.0458 86.9154 40.2189 76.0885 40.2189 62.7796C40.2189 49.4716 51.0458 38.6438 64.3537 38.6438C75.7853 38.6438 85.3783 46.635 87.8584 57.3232C86.7223 57.7137 85.7365 58.449 85.0384 59.4267C84.3403 60.4043 83.9648 61.5755 83.9642 62.7767Z" fill="white"/>
</svg>
