<svg width="68" height="40" viewBox="0 0 68 40" fill="none" xmlns="http://www.w3.org/2000/svg">
<g clip-path="url(#clip0_1028_120383)">
<path d="M68 0H20C6.5 0 0 12 0 20C0 28.0001 6.5 40 20 40H68L53.8182 20L68 0Z" fill="#F23913"/>
<path d="M28.0407 23.6588C26.6444 26.5491 23.6655 28.5448 20.2211 28.5448C15.4385 28.5448 11.552 24.714 11.552 20C11.552 15.286 15.4385 11.4552 20.2211 11.4552C23.5491 11.4552 26.4349 13.3133 27.8895 16.0315H35.9185C34.1265 9.12688 27.7731 4 20.2211 4C11.2727 4.01147 4 11.1914 4 20.0115C4 28.8315 11.2727 36 20.2211 36C27.8895 36 34.3244 30.724 36 23.6588H28.0407Z" fill="#FFFEFA"/>
</g>
<defs>
<clipPath id="clip0_1028_120383">
<rect width="68" height="40" fill="white"/>
</clipPath>
</defs>
</svg>
